<?xml version="1.0" encoding="UTF-8" standalone="no"?>
<!-- Generator: Adobe Illustrator 25.0.0, SVG Export Plug-In . SVG Version: 6.00 Build 0)  -->
<svg version="1.1" id="Vrstva_1" xmlns="http://www.w3.org/2000/svg" xmlns:xlink="http://www.w3.org/1999/xlink" x="0px" y="0px"
	 viewBox="0 0 436.2 155.9" style="enable-background:new 0 0 436.2 155.9;" xml:space="preserve">
<style type="text/css">
	.st0{fill:#D02E3E;}
</style>
<g>
	<path d="M151,99.7V86.2h-1.9v-0.4h10.6l0.3,4h-0.3c-0.2-1.1-0.6-2-1-2.5c-0.4-0.5-0.8-0.8-1.2-0.9c-0.4-0.1-1.3-0.2-2.8-0.2h-1.4
		v6.5h0.4c1.2,0,1.9-0.2,2.3-0.5s0.5-1.1,0.5-2.2h0.3v5.9h-0.3l0-0.3c-0.1-1-0.3-1.7-0.6-2c-0.3-0.3-1-0.5-1.9-0.5l-0.7,0v6.6h1.9
		v0.4h-6.1v-0.4H151z"/>
	<path d="M163.3,99.7v-7.6h-1.5v-0.4h3.5v8.1h1.5v0.4h-5v-0.4H163.3z M164.2,86.1c0.4,0,0.7,0.1,0.9,0.4c0.2,0.2,0.4,0.5,0.4,0.9
		c0,0.3-0.1,0.6-0.4,0.8c-0.2,0.2-0.5,0.4-0.9,0.4c-0.4,0-0.7-0.1-0.9-0.3c-0.2-0.2-0.4-0.5-0.4-0.9c0-0.4,0.1-0.7,0.3-0.9
		C163.6,86.2,163.9,86.1,164.2,86.1z"/>
	<path d="M170.6,99.7V86.2h-1.5v-0.4h3.5v14h1.5v0.4h-5v-0.4H170.6z"/>
	<path d="M180.5,91.4c1.2,0,2.3,0.4,3.2,1.3c0.9,0.9,1.3,1.9,1.3,3.2c0,1.2-0.4,2.3-1.3,3.2c-0.9,0.9-1.9,1.3-3.2,1.3
		c-1.2,0-2.3-0.4-3.2-1.3s-1.3-1.9-1.3-3.2c0-1.2,0.4-2.3,1.3-3.2C178.2,91.9,179.2,91.4,180.5,91.4z M180.5,91.9
		c-0.8,0-1.4,0.3-1.8,0.8c-0.2,0.2-0.3,0.5-0.3,0.8c0,0.3-0.1,1.1-0.1,2.4c0,1.2,0,2,0.1,2.4c0,0.3,0.1,0.6,0.3,0.8
		c0.4,0.5,1,0.8,1.8,0.8c0.8,0,1.4-0.3,1.8-0.8c0.2-0.2,0.3-0.5,0.3-0.8c0-0.3,0.1-1.1,0.1-2.4c0-1.2,0-2-0.1-2.4s-0.1-0.6-0.3-0.8
		C181.9,92.2,181.3,91.9,180.5,91.9z"/>
	<path d="M195.1,91.6l-5.4,8.1h1.7c0.7,0,1.2-0.1,1.5-0.2c0.3-0.1,0.6-0.4,0.8-0.7c0.3-0.5,0.6-1.3,0.8-2.3h0.3l0,3.6h-7.7l5.4-8.1
		h-1.2c-0.9,0-1.6,0.1-1.9,0.4c-0.3,0.3-0.7,0.9-1,1.9l-0.2,0.5h-0.3v-3.3H195.1z"/>
	<path d="M201.9,91.4c1.2,0,2.3,0.4,3.2,1.3c0.9,0.9,1.3,1.9,1.3,3.2c0,1.2-0.4,2.3-1.3,3.2c-0.9,0.9-1.9,1.3-3.2,1.3
		c-1.2,0-2.3-0.4-3.2-1.3s-1.3-1.9-1.3-3.2c0-1.2,0.4-2.3,1.3-3.2C199.6,91.9,200.7,91.4,201.9,91.4z M201.9,91.9
		c-0.8,0-1.4,0.3-1.8,0.8c-0.2,0.2-0.3,0.5-0.3,0.8c0,0.3-0.1,1.1-0.1,2.4c0,1.2,0,2,0.1,2.4c0,0.3,0.1,0.6,0.3,0.8
		c0.4,0.5,1,0.8,1.8,0.8c0.8,0,1.4-0.3,1.8-0.8c0.2-0.2,0.3-0.5,0.3-0.8c0-0.3,0.1-1.1,0.1-2.4c0-1.2,0-2-0.1-2.4s-0.1-0.6-0.3-0.8
		C203.4,92.2,202.8,91.9,201.9,91.9z"/>
	<path d="M212.1,92.1v7.6h1.8v0.4h-5.3v-0.4h1.5v-7.6h-1.5v-0.4h1.5v-1.7c0-1.4,0.3-2.4,0.9-3.1c0.7-0.8,1.5-1.2,2.4-1.2
		c0.5,0,1,0.1,1.4,0.4s0.6,0.6,0.6,1c0,0.3-0.1,0.5-0.3,0.7c-0.2,0.2-0.4,0.3-0.6,0.3c-0.3,0-0.5-0.1-0.7-0.3
		c-0.2-0.2-0.3-0.4-0.3-0.7c0-0.3,0.1-0.6,0.4-0.9c-0.2-0.1-0.4-0.1-0.6-0.1c-0.8,0-1.2,0.6-1.2,1.7v1.1v2.9h2v0.4H212.1z"/>
	<path d="M218.1,99.7v-7.6h-1.5v-0.4h3.5v8.1h1.5v0.4h-5v-0.4H218.1z M219,86.1c0.4,0,0.7,0.1,0.9,0.4c0.2,0.2,0.4,0.5,0.4,0.9
		c0,0.3-0.1,0.6-0.4,0.8c-0.2,0.2-0.5,0.4-0.9,0.4c-0.4,0-0.7-0.1-0.9-0.3c-0.2-0.2-0.4-0.5-0.4-0.9c0-0.4,0.1-0.7,0.3-0.9
		C218.4,86.2,218.7,86.1,219,86.1z"/>
	<path d="M230.9,97.4h0.6c-0.8,2-2,3-3.7,3c-1.1,0-2.1-0.4-3-1.3c-0.9-0.9-1.3-1.9-1.3-3.1c0-1.2,0.4-2.3,1.3-3.2
		c0.9-0.9,2-1.3,3.2-1.3c0.8,0,1.5,0.2,2.1,0.7c0.6,0.4,0.9,1,0.9,1.5c0,0.8-0.4,1.1-1.1,1.1c-0.3,0-0.5-0.1-0.7-0.3
		s-0.3-0.4-0.3-0.8c0-0.3,0.2-0.6,0.5-1c0.1-0.1,0.1-0.1,0.1-0.1c0-0.2-0.2-0.3-0.5-0.5c-0.3-0.1-0.7-0.2-1-0.2
		c-0.9,0-1.4,0.3-1.7,0.9s-0.5,1.8-0.5,3.6c0,1.3,0.1,2.1,0.4,2.6c0.3,0.5,0.8,0.7,1.6,0.7C229.4,99.8,230.3,99,230.9,97.4z"/>
	<path d="M236.7,85.7v14h1.5v0.4h-5v-0.4h1.5V86.2h-1.5v-0.4H236.7z M238.6,94.7l4.1,5h1v0.4H239v-0.4h1.1l-3.2-4.1l3.7-3.5h-2.2
		v-0.4h4.5v0.4h-1.6L238.6,94.7z"/>
	<path d="M254.3,99.4l0.3,0.3c-0.5,0.4-1,0.6-1.5,0.6c-1.1,0-1.7-0.6-1.8-1.7c-0.7,1.1-1.6,1.7-2.9,1.7c-0.7,0-1.3-0.2-1.7-0.6
		c-0.4-0.4-0.6-0.9-0.6-1.5c0-0.9,0.5-1.6,1.4-2.1s2.2-0.8,3.8-0.8V94c0-0.9-0.1-1.5-0.3-1.7c-0.3-0.3-0.7-0.4-1.2-0.4
		c-0.4,0-0.8,0.1-1.1,0.3c-0.4,0.2-0.5,0.4-0.5,0.6c0,0.1,0,0.1,0.1,0.2c0.2,0.2,0.3,0.5,0.3,0.7c0,0.3-0.1,0.5-0.3,0.7
		c-0.2,0.2-0.4,0.3-0.7,0.3s-0.5-0.1-0.7-0.3c-0.2-0.2-0.3-0.4-0.3-0.7c0-0.6,0.3-1.1,1-1.5c0.7-0.4,1.5-0.6,2.4-0.6
		c1,0,1.8,0.2,2.4,0.7c0.3,0.3,0.5,0.5,0.6,0.8c0.1,0.3,0.1,0.9,0.1,1.9v2.4v1.5c0,0.7,0.2,1,0.5,1c0.2,0,0.3-0.1,0.5-0.2
		L254.3,99.4z M251.2,95.8c-1,0-1.8,0.2-2.4,0.6s-0.9,0.9-0.9,1.6c0,0.9,0.5,1.4,1.4,1.4c0.6,0,1.1-0.3,1.5-0.8
		c0.3-0.4,0.4-1.2,0.4-2.3V95.8z M251.2,86.7h1.7c0.1,0,0.2,0.1,0.2,0.2c0,0.1,0,0.1-0.1,0.2l-3.6,3.1l-0.1,0.1c0,0-0.1,0-0.1,0
		c-0.1,0-0.1,0-0.1-0.1l0,0L249,90L251.2,86.7z"/>
	<path d="M267,92.1v7.6h1.8v0.4h-5.3v-0.4h1.5v-7.6h-1.5v-0.4h1.5v-1.7c0-1.4,0.3-2.4,0.9-3.1c0.7-0.8,1.5-1.2,2.4-1.2
		c0.5,0,1,0.1,1.4,0.4c0.4,0.3,0.6,0.6,0.6,1c0,0.3-0.1,0.5-0.3,0.7c-0.2,0.2-0.4,0.3-0.6,0.3c-0.3,0-0.5-0.1-0.7-0.3
		c-0.2-0.2-0.3-0.4-0.3-0.7c0-0.3,0.1-0.6,0.4-0.9c-0.2-0.1-0.4-0.1-0.6-0.1c-0.8,0-1.2,0.6-1.2,1.7v1.1v2.9h2v0.4H267z"/>
	<path d="M279.8,99.4l0.3,0.3c-0.5,0.4-1,0.6-1.5,0.6c-1.1,0-1.7-0.6-1.8-1.7c-0.7,1.1-1.6,1.7-2.9,1.7c-0.7,0-1.3-0.2-1.7-0.6
		s-0.6-0.9-0.6-1.5c0-0.9,0.5-1.6,1.4-2.1s2.2-0.8,3.8-0.8V94c0-0.9-0.1-1.5-0.3-1.7c-0.3-0.3-0.7-0.4-1.2-0.4
		c-0.4,0-0.8,0.1-1.1,0.3c-0.4,0.2-0.5,0.4-0.5,0.6c0,0.1,0,0.1,0.1,0.2c0.2,0.2,0.3,0.5,0.3,0.7c0,0.3-0.1,0.5-0.3,0.7
		c-0.2,0.2-0.4,0.3-0.7,0.3c-0.3,0-0.5-0.1-0.7-0.3c-0.2-0.2-0.3-0.4-0.3-0.7c0-0.6,0.3-1.1,1-1.5c0.7-0.4,1.5-0.6,2.4-0.6
		c1,0,1.8,0.2,2.4,0.7c0.3,0.3,0.5,0.5,0.6,0.8c0.1,0.3,0.1,0.9,0.1,1.9v2.4v1.5c0,0.7,0.2,1,0.5,1c0.2,0,0.3-0.1,0.5-0.2
		L279.8,99.4z M276.7,95.8c-1,0-1.8,0.2-2.4,0.6c-0.6,0.4-0.9,0.9-0.9,1.6c0,0.9,0.5,1.4,1.4,1.4c0.6,0,1.1-0.3,1.5-0.8
		c0.3-0.4,0.4-1.2,0.4-2.3V95.8z"/>
	<path d="M285.9,85.7v14h1.5v0.4h-5v-0.4h1.5V86.2h-1.5v-0.4H285.9z M287.8,94.7l4.1,5h1v0.4h-4.8v-0.4h1.1l-3.2-4.1l3.7-3.5h-2.2
		v-0.4h4.5v0.4h-1.6L287.8,94.7z"/>
	<path d="M304,91.6v8.1h1.5v0.4H302V99c-0.6,0.9-1.6,1.4-2.9,1.4c-0.9,0-1.6-0.2-2.1-0.6c-0.4-0.3-0.6-0.6-0.7-1
		c-0.1-0.4-0.2-1.1-0.2-2.1v-4.6h-1.5v-0.4h3.5v5c0,1,0,1.7,0.1,2.1c0,0.3,0.1,0.6,0.3,0.7c0.2,0.2,0.6,0.4,1.1,0.4
		c0.8,0,1.4-0.3,1.8-0.8c0.3-0.3,0.5-0.8,0.5-1.3c0.1-0.5,0.1-1.4,0.1-2.6v-3h-1.5v-0.4H304z"/>
	<path d="M309.3,99.7V86.2h-1.5v-0.4h3.5v14h1.5v0.4h-5v-0.4H309.3z"/>
	<path d="M317.7,88.4v3.3h2.2v0.4h-2.2v6.1c0,0.6,0.1,0.9,0.2,1.1s0.4,0.3,0.8,0.3c0.6,0,1-0.4,1.2-1.2h0.5c-0.2,1.2-1,1.8-2.4,1.8
		c-0.8,0-1.3-0.2-1.8-0.6c-0.2-0.2-0.4-0.5-0.5-0.7s-0.1-0.7-0.1-1.4v-5.5h-1.3v-0.3c1.4-0.7,2.4-1.8,3-3.4H317.7z"/>
	<path d="M331.1,99.4l0.3,0.3c-0.5,0.4-1,0.6-1.5,0.6c-1.1,0-1.7-0.6-1.8-1.7c-0.7,1.1-1.6,1.7-2.9,1.7c-0.7,0-1.3-0.2-1.7-0.6
		s-0.6-0.9-0.6-1.5c0-0.9,0.5-1.6,1.4-2.1s2.2-0.8,3.8-0.8V94c0-0.9-0.1-1.5-0.3-1.7c-0.3-0.3-0.7-0.4-1.2-0.4
		c-0.4,0-0.8,0.1-1.1,0.3c-0.4,0.2-0.5,0.4-0.5,0.6c0,0.1,0,0.1,0.1,0.2c0.2,0.2,0.3,0.5,0.3,0.7c0,0.3-0.1,0.5-0.3,0.7
		c-0.2,0.2-0.4,0.3-0.7,0.3c-0.3,0-0.5-0.1-0.7-0.3c-0.2-0.2-0.3-0.4-0.3-0.7c0-0.6,0.3-1.1,1-1.5c0.7-0.4,1.5-0.6,2.4-0.6
		c1,0,1.8,0.2,2.4,0.7c0.3,0.3,0.5,0.5,0.6,0.8c0.1,0.3,0.1,0.9,0.1,1.9v2.4v1.5c0,0.7,0.2,1,0.5,1c0.2,0,0.3-0.1,0.5-0.2
		L331.1,99.4z M327.9,95.8c-1,0-1.8,0.2-2.4,0.6c-0.6,0.4-0.9,0.9-0.9,1.6c0,0.9,0.5,1.4,1.4,1.4c0.6,0,1.1-0.3,1.5-0.8
		c0.3-0.4,0.4-1.2,0.4-2.3V95.8z"/>
	<path class="st0" d="M160,108.9h-1.8v-0.4h4.2v0.4h-1.9v8.2c0,1.5-0.1,2.5-0.2,3.1c-0.1,0.6-0.4,1.1-0.9,1.6
		c-0.7,0.8-1.9,1.2-3.5,1.2c-1.6,0-2.8-0.4-3.8-1.1c-0.6-0.5-1-1-1.2-1.6c-0.2-0.6-0.3-1.7-0.3-3.2v-8.2h-1.9v-0.4h6.1v0.4h-1.9v8.2
		c0,1.6,0,2.6,0.1,3.1s0.3,0.9,0.7,1.3c0.6,0.7,1.4,1,2.5,1c1.4,0,2.4-0.5,3-1.6c0.2-0.4,0.4-0.9,0.4-1.3c0.1-0.5,0.1-1.3,0.1-2.5
		V108.9z"/>
	<path class="st0" d="M165.4,122.4v-7.6h-1.5v-0.4h3.5v1.1c0.7-0.9,1.7-1.3,2.9-1.3c0.8,0,1.5,0.2,2,0.7c0.3,0.3,0.5,0.6,0.7,1
		c0.1,0.4,0.2,1,0.2,1.9v4.8h1.5v0.4h-4.8v-0.4h1.3v-3.3c0-1.8-0.1-3-0.3-3.5s-0.6-0.8-1.3-0.8c-0.6,0-1.1,0.2-1.5,0.7
		c-0.3,0.3-0.4,0.7-0.5,1.3c-0.1,0.6-0.1,1.6-0.1,3v2.6h1.3v0.4h-4.8v-0.4H165.4z"/>
	<path class="st0" d="M178.5,122.4v-7.6H177v-0.4h3.5v8.1h1.5v0.4h-5v-0.4H178.5z M179.4,108.8c0.4,0,0.7,0.1,0.9,0.4
		c0.2,0.2,0.4,0.5,0.4,0.9c0,0.3-0.1,0.6-0.4,0.8c-0.2,0.2-0.5,0.4-0.9,0.4c-0.4,0-0.7-0.1-0.9-0.3c-0.2-0.2-0.4-0.5-0.4-0.9
		c0-0.4,0.1-0.7,0.3-0.9C178.7,108.9,179,108.8,179.4,108.8z"/>
	<path class="st0" d="M191.6,114.8l-3.2,8.3h-0.8l-3.4-8.3h-0.9v-0.4h4.7v0.4h-1.6l2.3,5.8l2.3-5.8h-1.7v-0.4h3.2v0.4H191.6z"/>
	<path class="st0" d="M202,117.9h-5.8l0,0.7c0,1.6,0.1,2.6,0.3,3c0.4,0.7,1,1,1.8,1c0.7,0,1.4-0.2,1.9-0.7c0.5-0.4,0.9-1.1,1.1-1.9
		h0.5c-0.2,0.9-0.6,1.7-1.3,2.2c-0.7,0.6-1.5,0.8-2.4,0.8c-1.1,0-2.1-0.5-2.9-1.4c-0.9-0.9-1.3-1.9-1.3-3.1c0-1.2,0.4-2.2,1.3-3.1
		c0.8-0.9,1.8-1.3,2.9-1.3c1.1,0,2,0.3,2.7,1C201.5,115.9,201.9,116.8,202,117.9z M199.7,117.5v-0.5c0-0.8-0.1-1.4-0.4-1.8
		c-0.2-0.3-0.7-0.5-1.3-0.5c-0.7,0-1.1,0.2-1.4,0.5c-0.3,0.4-0.4,1-0.4,1.8v0.5H199.7z"/>
	<path class="st0" d="M205.6,122.4v-7.6h-1.5v-0.4h3.5v2.1c0.6-1.5,1.4-2.3,2.4-2.3c0.4,0,0.7,0.1,1,0.4s0.4,0.5,0.4,0.9
		c0,0.3-0.1,0.6-0.3,0.8c-0.2,0.2-0.5,0.3-0.8,0.3c-0.2,0-0.5-0.1-0.6-0.2c-0.2-0.2-0.3-0.4-0.3-0.6l0-0.2l0-0.2
		c0-0.2-0.1-0.3-0.2-0.3c-0.2,0-0.4,0.2-0.6,0.5c-0.6,1-0.9,2.6-0.9,4.9v2h1.5v0.4h-5v-0.4H205.6z"/>
	<path class="st0" d="M221.2,114.4l-5.4,8.1h1.7c0.7,0,1.2-0.1,1.5-0.2c0.3-0.1,0.6-0.4,0.8-0.7c0.3-0.5,0.6-1.3,0.8-2.3h0.3l0,3.6
		h-7.7l5.4-8.1h-1.2c-0.9,0-1.6,0.1-1.9,0.4c-0.3,0.3-0.7,0.9-1,1.9l-0.2,0.5H214v-3.3H221.2z"/>
	<path class="st0" d="M225.2,122.4v-7.6h-1.5v-0.4h3.5v8.1h1.5v0.4h-5v-0.4H225.2z M226.1,108.8c0.4,0,0.7,0.1,0.9,0.4
		c0.2,0.2,0.4,0.5,0.4,0.9c0,0.3-0.1,0.6-0.4,0.8c-0.2,0.2-0.5,0.4-0.9,0.4c-0.4,0-0.7-0.1-0.9-0.3c-0.2-0.2-0.4-0.5-0.4-0.9
		c0-0.4,0.1-0.7,0.3-0.9C225.4,108.9,225.7,108.8,226.1,108.8z"/>
	<path class="st0" d="M233.6,111.1v3.3h2.2v0.4h-2.2v6.1c0,0.6,0.1,0.9,0.2,1.1c0.2,0.2,0.4,0.3,0.8,0.3c0.6,0,1-0.4,1.2-1.2h0.5
		c-0.2,1.2-1,1.8-2.4,1.8c-0.8,0-1.3-0.2-1.8-0.6c-0.2-0.2-0.4-0.5-0.5-0.7c-0.1-0.2-0.1-0.7-0.1-1.4v-5.5h-1.3v-0.3
		c1.4-0.7,2.4-1.8,3-3.4H233.6z"/>
	<path class="st0" d="M246.9,122.1l0.3,0.3c-0.5,0.4-1,0.6-1.5,0.6c-1.1,0-1.7-0.6-1.8-1.7c-0.7,1.1-1.6,1.7-2.9,1.7
		c-0.7,0-1.3-0.2-1.7-0.6c-0.4-0.4-0.6-0.9-0.6-1.5c0-0.9,0.5-1.6,1.4-2.1s2.2-0.8,3.8-0.8v-1.5c0-0.9-0.1-1.5-0.3-1.7
		c-0.3-0.3-0.7-0.4-1.2-0.4c-0.4,0-0.8,0.1-1.1,0.3c-0.4,0.2-0.5,0.4-0.5,0.6c0,0.1,0,0.1,0.1,0.2c0.2,0.2,0.3,0.5,0.3,0.7
		c0,0.3-0.1,0.5-0.3,0.7c-0.2,0.2-0.4,0.3-0.7,0.3s-0.5-0.1-0.7-0.3c-0.2-0.2-0.3-0.4-0.3-0.7c0-0.6,0.3-1.1,1-1.5
		c0.7-0.4,1.5-0.6,2.4-0.6c1,0,1.8,0.2,2.4,0.7c0.3,0.3,0.5,0.5,0.6,0.8c0.1,0.3,0.1,0.9,0.1,1.9v2.4v1.5c0,0.7,0.2,1,0.5,1
		c0.2,0,0.3-0.1,0.5-0.2L246.9,122.1z M243.8,118.5c-1,0-1.8,0.2-2.4,0.6s-0.9,0.9-0.9,1.6c0,0.9,0.5,1.4,1.4,1.4
		c0.6,0,1.1-0.3,1.5-0.8c0.3-0.4,0.4-1.2,0.4-2.3V118.5z"/>
	<path class="st0" d="M258,122.4v-13.5h-1.9v-0.4h6.1v0.4h-1.9v13.5h1.9v0.4h-6.1v-0.4H258z M262.5,114.1l6.4,8.4h1.1v0.4h-5.9v-0.4
		h1.9l-5.5-7.1l6-6.5h-2.2v-0.4h4.7v0.4h-1.9L262.5,114.1z"/>
	<path class="st0" d="M280.6,122.1l0.3,0.3c-0.5,0.4-1,0.6-1.5,0.6c-1.1,0-1.7-0.6-1.8-1.7c-0.7,1.1-1.6,1.7-2.9,1.7
		c-0.7,0-1.3-0.2-1.7-0.6s-0.6-0.9-0.6-1.5c0-0.9,0.5-1.6,1.4-2.1s2.2-0.8,3.8-0.8v-1.5c0-0.9-0.1-1.5-0.3-1.7
		c-0.3-0.3-0.7-0.4-1.2-0.4c-0.4,0-0.8,0.1-1.1,0.3c-0.4,0.2-0.5,0.4-0.5,0.6c0,0.1,0,0.1,0.1,0.2c0.2,0.2,0.3,0.5,0.3,0.7
		c0,0.3-0.1,0.5-0.3,0.7c-0.2,0.2-0.4,0.3-0.7,0.3c-0.3,0-0.5-0.1-0.7-0.3c-0.2-0.2-0.3-0.4-0.3-0.7c0-0.6,0.3-1.1,1-1.5
		c0.7-0.4,1.5-0.6,2.4-0.6c1,0,1.8,0.2,2.4,0.7c0.3,0.3,0.5,0.5,0.6,0.8c0.1,0.3,0.1,0.9,0.1,1.9v2.4v1.5c0,0.7,0.2,1,0.5,1
		c0.2,0,0.3-0.1,0.5-0.2L280.6,122.1z M277.5,118.5c-1,0-1.8,0.2-2.4,0.6c-0.6,0.4-0.9,0.9-0.9,1.6c0,0.9,0.5,1.4,1.4,1.4
		c0.6,0,1.1-0.3,1.5-0.8c0.3-0.4,0.4-1.2,0.4-2.3V118.5z"/>
	<path class="st0" d="M284.8,122.4v-7.6h-1.5v-0.4h3.5v2.1c0.6-1.5,1.4-2.3,2.4-2.3c0.4,0,0.7,0.1,1,0.4s0.4,0.5,0.4,0.9
		c0,0.3-0.1,0.6-0.3,0.8c-0.2,0.2-0.5,0.3-0.8,0.3c-0.2,0-0.5-0.1-0.6-0.2c-0.2-0.2-0.3-0.4-0.3-0.6l0-0.2l0-0.2
		c0-0.2-0.1-0.3-0.2-0.3c-0.2,0-0.4,0.2-0.6,0.5c-0.6,1-0.9,2.6-0.9,4.9v2h1.5v0.4h-5v-0.4H284.8z"/>
	<path class="st0" d="M293.6,122.4v-13.5h-1.5v-0.4h3.5v14h1.5v0.4h-5v-0.4H293.6z"/>
	<path class="st0" d="M303.5,114.2c1.2,0,2.3,0.4,3.2,1.3c0.9,0.9,1.3,1.9,1.3,3.2c0,1.2-0.4,2.3-1.3,3.2c-0.9,0.9-1.9,1.3-3.2,1.3
		c-1.2,0-2.3-0.4-3.2-1.3s-1.3-1.9-1.3-3.2c0-1.2,0.4-2.3,1.3-3.2C301.2,114.6,302.3,114.2,303.5,114.2z M303.5,114.7
		c-0.8,0-1.4,0.3-1.8,0.8c-0.2,0.2-0.3,0.5-0.3,0.8c0,0.3-0.1,1.1-0.1,2.4c0,1.2,0,2,0.1,2.4c0,0.3,0.1,0.6,0.3,0.8
		c0.4,0.5,1,0.8,1.8,0.8c0.8,0,1.4-0.3,1.8-0.8c0.2-0.2,0.3-0.5,0.3-0.8c0-0.3,0.1-1.1,0.1-2.4c0-1.2,0-2-0.1-2.4s-0.1-0.6-0.3-0.8
		C304.9,114.9,304.3,114.7,303.5,114.7z"/>
	<path class="st0" d="M317.7,114.8l-3.2,8.3h-0.8l-3.4-8.3h-0.9v-0.4h4.7v0.4h-1.6l2.3,5.8l2.3-5.8h-1.7v-0.4h3.2v0.4H317.7z"/>
	<path class="st0" d="M328.7,122.1l0.3,0.3c-0.5,0.4-1,0.6-1.5,0.6c-1.1,0-1.7-0.6-1.8-1.7c-0.7,1.1-1.6,1.7-2.9,1.7
		c-0.7,0-1.3-0.2-1.7-0.6s-0.6-0.9-0.6-1.5c0-0.9,0.5-1.6,1.4-2.1s2.2-0.8,3.8-0.8v-1.5c0-0.9-0.1-1.5-0.3-1.7
		c-0.3-0.3-0.7-0.4-1.2-0.4c-0.4,0-0.8,0.1-1.1,0.3c-0.4,0.2-0.5,0.4-0.5,0.6c0,0.1,0,0.1,0.1,0.2c0.2,0.2,0.3,0.5,0.3,0.7
		c0,0.3-0.1,0.5-0.3,0.7c-0.2,0.2-0.4,0.3-0.7,0.3c-0.3,0-0.5-0.1-0.7-0.3c-0.2-0.2-0.3-0.4-0.3-0.7c0-0.6,0.3-1.1,1-1.5
		c0.7-0.4,1.5-0.6,2.4-0.6c1,0,1.8,0.2,2.4,0.7c0.3,0.3,0.5,0.5,0.6,0.8c0.1,0.3,0.1,0.9,0.1,1.9v2.4v1.5c0,0.7,0.2,1,0.5,1
		c0.2,0,0.3-0.1,0.5-0.2L328.7,122.1z M325.5,118.5c-1,0-1.8,0.2-2.4,0.6c-0.6,0.4-0.9,0.9-0.9,1.6c0,0.9,0.5,1.4,1.4,1.4
		c0.6,0,1.1-0.3,1.5-0.8c0.3-0.4,0.4-1.2,0.4-2.3V118.5z"/>
</g>
<g>
	<g>
		<g>
			<path class="st0" d="M78.1,127c-26.9,0.1-48.8-21.7-48.9-48.7c-0.1-26.9,21.7-48.8,48.7-48.9c26.9-0.1,48.8,21.7,48.9,48.7
				C126.8,104.7,105,126.9,78.1,127 M77.8,28.6c-27.4,0.1-49.5,22.3-49.4,49.7c0.1,27.4,22.3,49.5,49.7,49.4
				c27.4-0.1,49.5-22.3,49.4-49.7C127.4,50.6,105.2,28.5,77.8,28.6"/>
			<path class="st0" d="M76.6,34.1c0.2,0,0.4,0.2,0.4,0.7c0,0.7-0.1,1.5-0.3,2c0.7,0,1,0,1.7-0.1c-0.3-0.7-0.4-1.6-0.4-2
				c-0.1-0.5,0.2-0.7,0.5-0.7c0.2,0,1.3,0,1.8,0.3l0-1.6c-0.6,0.3-1.1,0.4-1.8,0.4c-0.3,0-0.5-0.1-0.6-0.5c-0.1-0.7,0-1.6,0.2-2.2
				c-0.6,0-0.9-0.1-1.5,0c0.4,0.6,0.4,1.8,0.4,2.1c0,0.2-0.2,0.6-0.5,0.6c-0.6,0-1.2-0.1-1.8-0.3l0,1.5C75.2,34.1,76,34,76.6,34.1"
				/>
			<path class="st0" d="M70.5,36c0.1-0.2,0.2-0.4,0.4-0.9c0.4,0.3,1.7,0.7,1.1,1.6c-0.2,0.4-0.9,0.1-1.3,0
				C70.4,36.5,70.4,36.3,70.5,36 M70.1,32.3c0.2-0.4,1.1-0.2,1.5,0.2c0.2,0.2,0.1,0.4,0,0.5l-0.4,0.8C69.9,33.1,69.7,32.9,70.1,32.3
				 M64.4,33.5c0.5-0.1,0.7-0.3,0.8,0.1c0.4,1.3,0.7,2.2,1,3.7c0.2,0.7-0.4,0.6-0.6,0.7c-0.4,0.2-0.2,0.8,0.2,0.7
				c1.1-0.4,2-0.6,3.3-0.8c0.3,0,0.5-0.3,0.7-0.5c0.2-0.2,0.4,0,0.8,0.1c0.5,0.2,2.4,0.6,2.9-0.9c0.4-1-0.7-1.9-1.7-2.5
				c0.4-0.8,1.2-2.2,1.6-2.7c0.2-0.2-0.3-0.6-0.5-0.4c-0.1,0.1-0.3,0.4-0.4,0.5c-0.2,0.2-0.3,0.3-0.8,0c-0.8-0.5-2.5-0.4-2.9,0.8
				c-0.3,0.7,0.2,1.6,1.4,2.3c0.2,0.1,0.1,0.3,0.1,0.4c-0.3,0.8-0.6,1.1-1,1.9c-0.1,0.2-1.2,0.6-1.5-0.3c-0.5-1.4-0.6-1.9-1-3.4
				c-0.1-0.5,0.7-0.6,1-0.6c0.3-0.1,0.2-0.7-0.1-0.7c-1.2,0.3-2.1,0.5-3.2,0.9C64,32.9,64.1,33.6,64.4,33.5"/>
			<path class="st0" d="M86.4,36.3c0.1-0.1,0.3-0.3,0.4-0.5c0.3-0.2,0.5-0.4,0.7-0.2c0.4,0.4,1.2,1,0.5,1.7
				c-0.5,0.4-1.1,0.1-1.5-0.4C86.3,36.7,86.2,36.5,86.4,36.3 M87.7,32.7c0.3-0.3,0.7-0.2,1.1,0.1c0.2,0.1,0.1,0,0.2,0.2
				c0.2,0.2,0.3,0.5,0.1,0.7c-0.2,0.2-0.3,0.3-0.5,0.4c-0.2,0.1-0.4,0.5-0.7,0.2l-0.3-0.3C87.4,33.6,87.3,33,87.7,32.7 M85,37.6
				c0.3-0.2,0.5-0.5,1.1,0c1.5,1.2,2.8,0.6,3.3-0.1c0.4-0.6,0.3-1.6-0.8-2.6l2.6-2.1c0.2-0.2-0.1-0.6-0.3-0.5
				c-0.4,0.3-0.9,0.4-1.2,0.1c-2.6-2.3-4.6,0.4-2.9,2.4l-2.1,2.2C84.3,37.4,84.8,37.8,85,37.6"/>
			<path class="st0" d="M60.3,35c0.1-0.6,2.1-0.7,2,0c0,0.3-0.2,0.7-0.2,0.9C61.6,35.8,60.2,36,60.3,35 M63.2,38.3
				c-0.1,0.9-1.5,0.6-1.7,0.6c-0.1,0-0.2-0.1-0.1-0.3c0-0.3,0.2-1.2,0.2-1.2C62.3,37.4,63.3,37.5,63.2,38.3 M60.8,37.2
				c-0.1,0.9-0.4,2.2-0.6,3.2c-0.1,0.4,0.5,0.5,0.6,0.1c0.1-0.3,0.2-0.6,0.4-0.8c1.4,0.3,3.3,0.2,3.5-1.6c0.2-1.5-1.2-1.8-1.8-2
				c0.1-0.9,0.3-2.1,0.6-3c0.1-0.3-0.4-0.5-0.6-0.1c-0.1,0.2-0.2,0.4-0.3,0.8c-2.5-0.3-3.5,0.5-3.6,1.4
				C58.7,36.1,59.3,36.9,60.8,37.2"/>
			<path class="st0" d="M90.3,38.1c-0.3,0-0.4,0.5-0.2,0.5c1.1,0.3,1.9,0.6,3.1,1.1c0.3,0.1,0.4-0.4,0.2-0.5
				c-0.3-0.2-0.9-0.5-0.7-1.2c0.3-1.2,0.6-2,1-3.2c0.2-0.5,0.6-0.2,1-0.2c0.3,0,0.4-0.4,0.2-0.5c-0.6-0.3-2.3-0.8-3-1
				c-0.3-0.1-0.5,0.4-0.2,0.6c0.2,0.1,0.8,0.2,0.7,0.7c-0.4,1.3-0.6,2.3-1.1,3.5C91.2,38.2,90.6,38.1,90.3,38.1"/>
			<path class="st0" d="M95.7,41c0.5,0.3,1.5,0.6,2.4,0.1c0.8-0.4,1.8-2.2,0.6-2.8c-0.3-0.2-1-0.5-1.6-0.7c-0.3-0.1-0.6,0.4-0.2,0.6
				c1.8,0.7,0.7,2.6-0.7,2.1c-0.3-0.1-0.6-0.3-0.5-0.8c0.1-0.7,0.9-2.7,1.4-3.2c1-0.8,2.1,0,2.3,0.7c0.1,0.3,0,0.4-0.2,0.6
				c-0.2,0.1,0,0.6,0.3,0.5c0.8-0.4,1.3-0.7,2.1-1c0.2-0.1,0-0.6-0.3-0.5c-0.3,0.1-1.1,0.3-1.4-0.2c-0.8-1.5-3.3-2.3-4.8,0.7
				C93.8,39.6,95,40.7,95.7,41"/>
			<path class="st0" d="M48.2,41.8c1.2-0.9,1.7,0.1,1.8,0.3s0.2,0.3,0,0.5c-0.3,0.2-0.6,0.5-0.8,0.7c-0.2,0.2-0.5,0.4-0.7,0.3
				C48.3,43.4,47.5,42.3,48.2,41.8 M50.9,43.2c0.3,0.3,0.5,0.6,0.8,0.9c0.2,0.2,0.2,0.4,0.1,0.6c-0.1,0.2-0.8,1.8-2.3-0.1
				c-0.1-0.2-0.2-0.3,0-0.6c0.3-0.3,0.6-0.6,0.9-0.8C50.7,43.1,50.8,43.1,50.9,43.2 M48.8,46.2c0.7,0.5,1.5,0.9,2.3,0.5
				c0.7-0.4,1.4-1.2,1.7-1.9c0,0,0.6-0.1,1.1-0.3c0.3-0.2,2.3-1.5,3.5-2.2c0.3-0.2,0-0.6-0.3-0.5c-0.4,0.1-0.7,0.3-1,0.1
				c-0.3-0.3-1.4-2.2-2.1-3.5c-0.2-0.3,0.2-0.4,0.7-0.7c0.4-0.2,1-0.4,1.2,0c0.9,1.9,1.7,3.7,2.1,3.9c0.4,0.2,1.2-0.1,1.4-0.6
				c0.2-0.5-0.2-0.7-0.5-0.6c-0.3,0.2-0.5,0.2-0.7-0.1c-0.6-0.8,0-2.1-0.3-2.8c-0.2-0.5-1.9-1.3-2.3-1.3c-0.6,0.1-2.3,1.1-4.1,2.5
				c-0.3,0.2,0,0.6,0.3,0.5c0.3-0.1,0.7-0.4,0.9-0.1l2.1,3.3c0.2,0.4-0.3,0.7-0.8,1.1c-1.1,0.7-1.7-0.3-2.4-1.2
				c-0.9-1.3-1-2.1-0.8-2.5c0.2-0.3,0-0.5-0.2-0.4c-0.4,0.1-0.7,0.5-0.8,1c-0.1,0.3-0.2,0.3-0.5,0.4c-1.1,0.3-2.4,0.7-2.4,1.8
				C46.8,43.9,47.6,45.2,48.8,46.2"/>
			<path class="st0" d="M102.1,38.9c-0.6,1.2-1,1.9-1.7,3c-0.4,0.5-0.7,0.2-1.3-0.1c-0.3-0.1-0.5,0.4-0.3,0.5
				c0.5,0.3,1.8,1.2,2.8,1.8c0.2,0.2,0.6-0.2,0.4-0.5c-0.2-0.2-0.7-0.4-0.4-1c0.7-1.3,1-2,1.7-3.1c0.3-0.5,0.9-0.2,1.1-0.1
				c0.3,0.1,0.5-0.4,0.3-0.5c-0.9-0.5-1.8-1.1-2.7-1.6c-0.3-0.2-0.7,0.2-0.4,0.5C102,38.2,102.3,38.4,102.1,38.9"/>
			<path class="st0" d="M105.7,41.3c-0.9,1.3-1.2,1.8-2.3,3.2c-0.2,0.2-0.5-0.1-0.7-0.1c-0.2-0.1-0.5,0.4-0.3,0.6
				c0.4,0.3,2.6,2,3.6,3c0.2,0.2,0.6,0,0.4-0.4c-0.1-0.3-0.5-0.7,0-1.2c1-0.9,1.7-1.4,2.8-2c0.4-0.3,0.6,0,0.8-0.1
				c0.3,0,0.3-0.4,0.1-0.6c-1.3-0.8-3.6,1.1-5,1.9c-0.4,0.3-0.9-0.1-0.6-0.6c0.8-1.1,1.3-1.8,2.2-2.9c0.4-0.4,0.7-0.1,0.9,0
				c0.2,0.1,0.6-0.3,0.4-0.4c-0.9-0.7-1.3-1.1-2.2-1.8c-0.3-0.3-0.7,0.2-0.4,0.4C105.5,40.5,106.1,40.8,105.7,41.3"/>
			<path class="st0" d="M47.6,50.3c0.9-0.9,1.4-2.1,0.4-3.3c-0.9-1.1-2.4-0.4-2.9,0.5c-0.3,0.5,0,0.8,0.3,0.6
				c0.6-0.3,0.9-0.6,1.5,0.1c0.5,0.7,0.7,1,0.3,1.4c-0.4,0.4-1.1,0.3-1.6,0.1c-0.7-0.3-1.6-1.1-2.3-2.1c-0.3-0.5-0.2-1.3,0.2-1.7
				c1.4-1.1,1.6,0.1,3-0.1c0.3,0,0.4-0.4,0.2-0.5c-1.1-0.6-1.3-1.1-1.5-1.9c-0.1-0.4-0.6-0.2-0.6,0.1c0,0.4,0.1,0.7-0.3,1
				c-1,0.6-1.4,0.8-1.9,1.5c-0.9,1-0.4,2.6,0.8,3.9C44.5,51.3,46.1,51.8,47.6,50.3"/>
			<path class="st0" d="M110.7,45.7c-0.9,1-1.4,1.6-2.6,2.7c-0.2,0.2-0.4,0-0.5,0c-0.3-0.1-0.6,0.2-0.4,0.5c1,1.2,2.4,2.6,3.2,3.6
				c0.2,0.3,0.6,0,0.5-0.4c-0.2-0.5-0.5-0.6,0-1.1c0.7-0.7,1.6-1.2,2.8-1.8c0.7-0.3,1.2,0.7,0.9,1.3c-0.9,1.6-1.5,2.5-2.3,4.2
				c-0.1,0.1,0.1,0.3,0.2,0.4c2.6,0.2,4.8-0.5,5.6-0.1c0.3,0.3,0.8,0,0.6-0.3c-0.5-0.9-0.7-1.2-1.3-2.2c-0.2-0.3-0.6-0.1-0.6,0.2
				c0,0.3,0.2,0.4-0.2,0.6c-1.1,0.6-1.8,0.8-3.2,1c-0.3,0-0.4,0-0.2-0.2c0.8-1,1.5-1.8,2.4-2.5c0.2-0.2,0.4-0.1,0.5,0.1
				c0.2,0.2,0.6-0.1,0.5-0.4c-0.7-1-1-1.6-1.8-2.6c-0.8-1.2-3.5,0.5-4.9,1.1c-0.5,0.2-1.1-0.2-0.6-0.7c0.9-1,1.4-1.4,2.3-2.4
				c0.5-0.4,0.7,0.1,0.9,0.2c0.3,0.2,0.7-0.2,0.4-0.5c0,0-1.6-1.5-1.8-1.8c-0.2-0.2-0.6,0-0.5,0.3C110.8,45.3,111,45.4,110.7,45.7"
				/>
			<path class="st0" d="M39.3,51.9c0.2-0.2,0.5-0.6,0.7-0.4c0.2,0.2,1,0.7,1.2,0.9c0.3,0.2-0.1,0.6-0.2,0.7c0,0-0.4,0.6-0.5,0.7
				c-0.1,0.2-0.2,0.3-0.4,0.2c-0.4-0.3-0.5-0.5-0.8-1C39.1,52.7,39,52.4,39.3,51.9 M37.5,54.7c0.3-0.6,0.5-0.9,0.7-1.2
				c0.2-0.2,0.3,0.1,0.3,0.1c0,0.2,0,1.3,0.4,1.8c0.6,0.6,1.8,0.1,2.2,0.6c0.3,0.3,0.4,0.7,0.3,1c-0.2,0.8,0.7,1.2,1,0.3
				c0.3-1.1-0.7-1.5-1.2-2.3c-0.2-0.2-0.1-0.2,0.1-0.5c0.1-0.2,0.7-1.1,0.9-1.4c0.5,0.3,0.5,0.3,0.9,0.6c0.5,0.5-0.2,1.1-0.4,1.5
				c-0.1,0.3,0.4,0.7,0.6,0.4c0.7-1.2,1.6-2.5,2.2-3.3c0.3-0.4-0.3-0.7-0.6-0.5c-0.4,0.3-0.7,0.9-1.2,0.6c-1.1-0.7-1.8-1.2-2.9-2.1
				c-0.4-0.3,0.2-0.9,0.4-1.4c0.1-0.3-0.3-0.6-0.5-0.4c-1.4,1.8-2.7,3.7-3.8,5.7C36.7,54.7,37.3,55.1,37.5,54.7"/>
			<path class="st0" d="M35.4,58.8c0.2-0.5,0.5-1.1,1.1-0.9c1,0.4,0.2,1.8,0,2.2c0,0-1-0.3-1.2-0.4C35.1,59.6,35.3,59.1,35.4,58.8
				 M34,61.3c0.2-0.3,0.3-0.5,0.7-0.4c1.5,0.5,3.5,1.3,3.5,1.3c0.6,0.2,0.5,0.5,0.3,1.4c-0.1,0.3,0.5,0.6,0.6,0.3
				c0.4-1.2,1.3-3.2,1.3-3.2c0.1-0.2-0.4-0.5-0.6-0.3c-0.1,0.2-0.4,0.8-0.8,0.7l-1.7-0.7c0.7-2.1,2.1-0.5,3.3-0.8
				c0.7-0.2,0.9-0.7,0.8-1.5c-0.1-0.5-0.6-0.4-0.6-0.1c0,0.4-0.3,0.5-0.5,0.5c-0.4,0-0.8-0.5-1.2-0.6c-0.4-0.1-0.8,0-1,0.3
				c-0.1,0.2-0.3,0.2-0.3,0c0.1-0.8-0.2-1.4-0.8-1.7c-0.4-0.2-1.3-0.1-1.8,0.9c0,0-1.1,2.4-1.7,3.7C33.3,61.4,33.8,61.6,34,61.3"/>
			<path class="st0" d="M117,55.3c-0.9,0.3-1.5,2.1-2.2,2.2c-0.5,0.1-0.5-1.2-1-0.7c-0.5,0.5,0.4,2,1.6,1.3c1.2-0.6,1.7-0.8,2.9-1.4
				c0.2-0.1,0.7-0.4,0.8,0c0.2,0.4-0.3,0.7-0.6,0.9c-0.8,0.4-1.6,0.8-2.4,1.2c-0.3,0.1-0.4,0.3-0.7,0.1c-0.2-0.1-0.4,0.1-0.4,0.3
				c0.2,0.4,0.3,0.7,0.4,0.9c0.1,0.2,0.5,0.1,0.4-0.1c0-0.2,0.1-0.1,0.3-0.3c1.2-0.7,1.5-0.8,2.8-1.4c0.7-0.3,1.4,0.3,0.5,0.7
				c-1.3,0.6-1.9,0.9-3.2,1.5c-1,0.5-0.3,2,0.1,1.9c0.6-0.2,0-1.1,0.5-1.4c0.3-0.2,2.2,0,2.7-0.1c0.5-0.2,1.3-2.2,1.2-2.5
				c-0.1-0.2-1-0.9-1-1.1c-0.1-0.2,0-1.2-0.1-1.4C119.8,55.7,117.8,55.1,117,55.3"/>
			<path class="st0" d="M33,64.7c0.3-0.9,0.3-1.2,1.4-1c1.1,0.2,0.9,1,0.8,1.6c0,0.3-0.2,0.5-0.3,0.4c-0.8-0.2-1-0.3-1.8-0.5
				C32.9,65.2,32.9,64.9,33,64.7 M32.3,67.1c0.1-0.4,0.3-0.7,0.6-0.6c1.6,0.4,2.1,0.6,3.6,1.1c0.6,0.1,0.3,0.9,0.2,1.4
				c-0.1,0.3,0.6,0.5,0.6,0.1c0.1-0.5,0.7-2.9,1.1-3.9c0.2-0.4-0.5-0.5-0.6-0.2c-0.3,0.5-0.4,1.4-1,1.3c-0.5-0.1-0.6-0.2-1.1-0.3
				c0.2-1.1,1-3.2-1-3.6c-1-0.2-1.7,0-2,0.6c-0.6,1.3-0.9,2.8-1.1,4C31.6,67.3,32.2,67.4,32.3,67.1"/>
			<path class="st0" d="M120.5,62.4c-0.4,0.2-0.5,0.6-0.4,1c0.2,0.4,0.6,0.4,0.9,0.3c0.3-0.1,0.6-0.4,0.4-0.9
				C121.3,62.5,120.9,62.3,120.5,62.4"/>
			<path class="st0" d="M118.1,63.5c-0.4,0.2-0.5,0.6-0.3,1c0.2,0.4,0.7,0.4,1,0.2c0.2-0.2,0.5-0.5,0.3-1
				C118.8,63.3,118.4,63.3,118.1,63.5"/>
			<path class="st0" d="M124.7,77.4c0,0.4-0.1,1.1-0.6,1.1c0,0-2.9,0.1-3.5,0.1c-0.4,0-0.6-0.3-0.6-0.6c-0.1-1,0.1-1.7,0.7-1.8
				c1.2-0.2,1.5,0.7,2.3,0.7c0.5,0,2.4-1,2.3-2c-0.2-2.1-0.3-4.3-0.9-6.3c-0.1-0.3-0.2-0.3-0.5-0.3c-1.3,0.3-2.2,0.2-3.7,0.1
				c-0.5,0-0.4-0.2-0.2-0.4c1.1-0.8,1.9-1.2,2.8-1.6c1.1-0.4,1.1,0,0.9-0.7c-0.3-1-0.3-1.3-0.6-1.8c-0.1-0.3-0.6-0.2-0.6,0.1
				c0.1,1.4-2.3,2.7-3.9,4.2c-0.2,0.2-0.1,0.5,0.1,0.5c2,0.7,2.9,0.4,4.8,1.3c0.3,0.2,0.5,0.5,0.5,1c0,0.3,0.2,0.6-0.4,0.7
				c-1.2,0.1-2.1,0.2-3.6,0.2c-0.5,0-0.6-0.7-0.8-1.5c-0.1-0.3-0.6-0.2-0.6,0.1c0,0.3,0.4,4.1,0.4,4.1c0,0.3,0.6,0.3,0.6,0
				c0.1-0.5-0.2-1.3,0.4-1.3c1.4-0.2,2.1-0.2,3.5-0.3c0.6,0,0.5,0.2,0.6,0.6c0,0.2,0,0.3,0,0.4c0,0.4-0.3,0.8-0.6,0.8
				c-0.4,0-3,0.2-3,0.2c-2.4,0.3-1.1,2.4-1.7,6.2c-0.1,0.5,0.6,0.5,0.7,0c0.1-0.6,0.2-1.4,0.7-1.5c0.4,0,3-0.1,3.5-0.1
				c0.4,0,0.4,0.4,0.5,0.8c0,0.2,0,0.4,0,0.7c-0.1,0.2-0.1,0.4-0.4,0.6c-1.6,0.5-5,1.4-5,1.9c-0.1,0.5,2.8,2.1,4.1,3.5
				c0.3,0.3,0.4,0.8,0.4,1.1c0.1,0.3,0.5,0.3,0.6-0.1c0.3-1.3,0.5-2.5,0.5-2.8c0-0.4-0.5-0.3-0.6-0.1c-0.1,0.3,0,0.5-0.6,0.3
				c-0.7-0.2-3-1.2-3.4-1.5c-0.3-0.2-0.3-0.3,0.1-0.3c1.5-0.2,3.7-0.3,4.3-0.1c0.2,0.1,0.3,0.4,0.5-0.4c0.3-2.2,0.3-5.4,0.3-5.8
				C125.3,77,124.7,77.1,124.7,77.4"/>
			<path class="st0" d="M32.5,69.2c-0.2,0.4-0.2,0.8,0.1,1c0.3,0.3,0.9,0.2,1.1-0.1c0.2-0.3,0.2-1-0.2-1.2
				C33.1,68.8,32.7,68.9,32.5,69.2"/>
			<path class="st0" d="M31.3,74.6c0-0.4,0.1-1.1,0.2-1.3c0.4,0.2,0.5,1.1,1.3,1.2c0.6,0.1,1.5-0.7,2.3-0.7c0.8,0.1,0.9,0.8,1,1.3
				c0,0.2,0.4,0.2,0.5,0c0.2-0.5,0.3-1.5-0.4-2c-0.8-0.5-1.6-0.3-3.1-0.4c-1-0.1-1.5-0.8-1.5-1.7c0-0.3-0.5-0.4-0.6-0.1
				c-0.1,0.3-0.4,2.7-0.3,3.5C30.6,74.9,31.3,74.9,31.3,74.6"/>
			<path class="st0" d="M35,69.6c-0.4,0.2-0.5,0.5-0.4,0.9c0.2,0.4,0.6,0.5,1,0.3c0.3-0.2,0.4-0.6,0.3-1
				C35.8,69.6,35.4,69.5,35,69.6"/>
			<path class="st0" d="M31.2,79.1c0.1-0.5,0-0.8,0.4-0.8c1.4-0.1,2.1-0.1,3.6,0c0.4,0,0.3,0.6,0.4,1.1c0.1,0.3,0.6,0.3,0.6,0
				c0-0.7,0-2.4,0.1-3.1c0-0.5-0.6-0.5-0.7,0c-0.1,0.3,0.1,0.8-0.5,0.8c-1,0-2.5-0.1-3.5-0.1c-0.5,0-0.3-0.7-0.5-1.1
				c-0.1-0.3-0.6-0.3-0.6,0.1c0,0.6,0.1,2.3,0,3.3C30.6,79.4,31.2,79.4,31.2,79.1"/>
			<path class="st0" d="M31.6,83.3c-0.1-0.4-0.1-0.8-0.1-1.1c0-0.2,0.1-0.6,0.4-0.6c1.2-0.1,2-0.2,3.2-0.2c0.4,0,0.6,0.5,0.7,0.7
				c0,0.2,0.1,0.5,0.1,0.9C34.5,83.2,33,83.3,31.6,83.3 M33.2,92.3c0.3-1.6,2.8-2.6,4.4-4.1c0.1-0.1,0.1-0.4-0.1-0.4
				c-2-0.7-3.9-0.8-4.8-1.2c-0.8-0.3-0.8-0.8-0.8-1.3c0-0.2,0-0.5,0.3-0.6c1.3-0.2,2.3-0.2,3.6-0.2c0.6,0,0.5,0.3,0.7,1.1
				c0.1,0.3,0.6,0.3,0.6-0.1c-0.3-2.4-0.2-3.4-0.7-4.3c-0.8-1.4-5.2-1.5-5.5,0.5c-0.2,1.1,0.3,3.9,0.8,6.9c0,0.3,0.5,0.2,0.6-0.1
				c0.1-0.6,0.4-0.5,0.6-0.5c0.8,0,2.3,0,3.3,0.2c0.4,0,0.4,0.1,0.1,0.3c-1.2,0.7-1.9,1.2-3.3,1.5c-0.2,0.1-0.3,0.1-0.5-0.2
				c-0.2-0.2-0.6,0.1-0.5,0.3c0.3,1,0.4,1.3,0.7,2.3C32.6,92.6,33.1,92.6,33.2,92.3"/>
			<path class="st0" d="M36.9,96.8c-0.4-0.1-0.6-0.1-1.1-0.2c-0.2,0-0.5,0-0.6-0.4c-0.2-0.5,0.2-0.6,0.5-0.7c0.6-0.3,2-0.9,2.7-1.1
				c0.6-0.3,0.7,0.4,1.3,1.1c0.2,0.3,0.8,0,0.6-0.3c-0.8-1.3-1.2-2.5-1.8-3.9c-0.1-0.4-0.7-0.1-0.6,0.2c0.2,1.1,0.6,1.5,0,1.7
				c-1.1,0.4-2.4,1-2.8,1.2c-0.3,0.1-0.6,0.2-0.8-0.1c-0.2-0.4,0-0.5,0.2-0.7c0.3-0.4,0.7-0.7,0.8-0.9c0.1-0.2,0-0.6-0.4-0.4
				c-0.5,0.2-1.2,0.4-2,0.9c0.6,1.7,1.3,3.1,2,4.8c0.9-0.2,1.2-0.3,2.1-0.5C37.3,97.3,37.3,96.9,36.9,96.8"/>
			<path class="st0" d="M122.5,91.5c-0.6,0-1.1-0.2-1.6-0.4c0.1-0.4,0.4-1.5,0.5-2C122.6,89.5,123.4,90.3,122.5,91.5 M120.2,90.9
				c-0.6-0.1-1.1-0.3-1.7-0.5c-0.4-1.8,0.9-1.8,2.2-1.5C120.6,89.4,120.3,90.5,120.2,90.9 M119.3,95.4l1.6,0.6
				C120.3,98.7,117.9,97.7,119.3,95.4 M115.7,100.7c-0.9,0.5-1.6,0.8-1.9,0.1c-0.1-0.3,0-1,0.7-1.2
				C114.9,99.6,115.3,99.6,115.7,100.7 M118,101.9c0.1,0.3-0.2,0.9-0.8,1.1c-0.8,0.2-1.1-0.3-1.3-0.9
				C116.4,101.9,117.7,101,118,101.9 M123.4,89.1c-1.1-1.6-3.4-2.4-4.8-1.5c-1.3,0.7-0.6,2.8-1,3.5c-0.6,0.9-1,2.2-1.5,3.5
				c-0.1,0.4,0.3,0.6,0.5,0.3c0.2-0.3,0.4-0.3,0.6-0.2c0.4,0.2,0.9,0.4,1.5,0.6c-0.5,1.3-1.1,1.3-1.9,0.9c-0.7-0.3-2.4,0.2-2,2.2
				c0.1,0.7-0.3,0.7-0.6,0.8c-0.3,0.1-2.2,1-1.1,2.8c0.5,0.9,1.3,1,2.3,0.6c0.3,0.7,0.6,1.1,0.9,2c0.1,0.3-0.1,0.6-0.3,1
				c-0.3,0.3-0.8,0.9-1.2,0.7l-2.6-1.9c-0.5-0.3,0-0.7,0.2-1.4c0.1-0.3-0.3-0.6-0.5-0.3c-0.9,1.2-1.4,1.8-2.4,3
				c-0.3,0.3,0.2,0.6,0.4,0.4c0.8-0.6,0.9-1.1,1.5-0.6l2.4,1.8c0.4,0.3,0,0.9-0.3,1.4c-0.1,0.3,0.2,0.7,0.6,0.3
				c1-1.1,1.9-2.3,2.8-3.5c0-0.3-0.1-0.4-0.1-0.7c-0.1-0.6,0.4-0.6,0.9-0.7c0.6-0.2,1.8-1.3,1.2-2.7c-0.5-1.1-1.8-0.9-2.6-0.5
				c-0.4-0.8-1.4-2.4-0.8-2.9c0.5-0.4,1.5,0.6,2.2,0c0.4-0.4,0.5-0.4,0.5,0.2c0,0.6,0.3,1.1,0.8,1.3c0.7,0.2,1.5,0,2.1-1.2
				c0.4-0.9,0.8-1.6,1.3-3.3c0.1-0.4-0.3-0.6-0.5-0.2c-0.3,0.3-0.7,0.5-1.1,0.3c-1.3-0.5-1.7-0.6-3-1.2c-0.4-0.2-0.5-0.5-0.1-1.2
				c0.3-0.6,0.8-1.1,2.8-0.3c2,0.7,1.5,0.8,1.9,1.5c0.2,0.4,0.7,0.3,0.6-0.1C122.7,91,124.6,90.8,123.4,89.1"/>
			<path class="st0" d="M40.5,100.4c-0.8,0-1.1,0-1-0.5c0.1-0.6,0.2-1,0.8-1c0.6,0,0.8,0.4,0.9,1C41.3,100.5,41.1,100.4,40.5,100.4
				 M37.3,100.8c-0.4,0-0.6-0.7-0.5-1.3c0-0.3,0.5-0.5,1.5-0.3C38.2,99.8,38.4,100.9,37.3,100.8 M42.8,100.6
				c-1.8-0.1-0.1-2.7-2.4-3.1c-1-0.2-1.6,0.1-1.9,0.8c-1.1,0.1-2-0.1-3.1,0c-0.2,0-0.4,0-0.4,0.2c0,0.3,0.1,0.4,0.3,0.4
				c1.5,0-0.3,2.6,1.9,3.3c1.2,0.3,1.8-0.6,2.1-1.1c1.3-0.1,2.3,0.1,3.5,0.1C43.3,101.3,43.2,100.6,42.8,100.6"/>
			<path class="st0" d="M41.3,103.7c0.3-0.1,0.5-0.5,0.3-0.9c-0.2-0.5-0.6-0.5-1-0.4c-0.3,0.2-0.5,0.6-0.3,0.9
				C40.4,103.8,40.9,103.8,41.3,103.7"/>
			<path class="st0" d="M45.7,107.4c0.1-0.8,1-0.4,1.2-0.4c0.2,0.1,0.7,0,0.3-0.7c-0.2-0.4-0.7-0.5-1.2-0.2
				c-1.3,0.6-2.1,2.2-2.7,2.7c-0.4,0.3-0.7,0-0.9-0.1c-0.2-0.3,0-0.3,0.1-0.4c1-0.8,1.7-1.6,2.7-2.5c0.1-0.1,0.2-0.1,0.2-0.1
				c0.2,0.1,0.4-0.1,0.3-0.3c-0.1-0.1-0.3-0.4-0.4-0.6c-0.2-0.4-0.5-0.1-0.5,0c0.1,0.1,0,0.2-0.1,0.3c-0.9,0.9-1.7,1.6-2.7,2.4
				c-0.2,0.2-0.2,0.3-0.4,0.1c-0.2-0.3-0.2-0.6,0-0.8c0.9-1,1.8-1.4,2.8-2.3c0.2-0.2,0.4-0.7-0.1-1.3c-0.6-0.6-1,0.3-0.7,0.5
				c0.2,0.1,0.4,0.2,0.1,0.5c-0.7,0.7-1.8,0.3-2.3,0.5c-0.4,0.2-0.8,1.5-0.7,2.5c0.1,0.5,0.5,1,0.9,1.5c0.4,0.5,0.7,1,1.2,1
				c0.7,0.1,2.3-0.1,2.5-0.4C45.6,109,45.5,108.4,45.7,107.4"/>
			<path class="st0" d="M55.4,118.6c-0.1,0.2-0.4,0.1-0.6,0c-0.3-0.2-1.4-0.6-0.8-1.4c0.5-0.6,1.6,0,2,0.2
				C55.7,118,55.7,118.1,55.4,118.6 M56.6,119l1.4-2.9c0.2-0.3,0.4-0.5,0.9-0.3c0.2,0.1,0.4-0.3,0.2-0.5c-0.5-0.4-1.4-0.9-1.9-1.2
				c-0.4-0.3-0.7,0.2-0.4,0.4c0.2,0.2,0.4,0.4,0.2,0.8l-0.7,1.4c-2.1-1.1-0.1-2.3-0.6-3.3c-0.3-0.5-0.8-0.5-2-1.4
				c-0.9-0.6-1.6-1.2-2-1.7c-0.2-0.2-0.6,0.2-0.4,0.5c0.3,0.3,0.9,0.9,0.5,1.5c-0.4,0.7-0.8,1.2-1.1,1.7c-0.4,0.6-0.8,1.1-1.5,0.5
				c-0.5-0.4-0.4-0.5-0.2-1.3c0.3-1,0.7-2.2,1.1-4.2c0-0.2-0.2-0.4-0.4-0.3c-1.7,0.6-3.1,1.1-3.6,1.3c-0.5,0.2-1.2,0.4-1.7,0.2
				c-0.3-0.1-0.7,0.2-0.4,0.5c0.6,0.7,1.1,1.1,1.6,1.5c0.2,0.2,0.6-0.1,0.5-0.3c-0.1-0.2,0.1-0.4,0.2-0.5c0.8-0.8,1.5-1.2,2.8-1.8
				c0.2-0.1,0.3-0.1,0.2,0.2c-0.5,1.4-1,2.7-2.2,3.7c1.3,1.3,3.8,3.1,4.3,3.5c0.2,0.2,0.6-0.2,0.4-0.5c-0.3-0.3-0.6-0.6-0.4-1
				l1.5-2.4c0.3-0.5,0.8-0.3,1.3,0.1c1.5,1.1-1,1.4,0.2,2.7c0.3,0.3,0.1,0.3-0.1,0.2c-0.3-0.1-1-0.1-1.3,0.3c-1.3,1.8,3.5,3.8,4,4
				c0.2,0.1,0.5-0.4,0.3-0.6C56.6,119.6,56.4,119.5,56.6,119"/>
			<path class="st0" d="M111.4,108c0.1,0.3,0.2,0.5,0.4,1.1c0.2,0.5,0.2,0.5-0.1,0.9c-0.4,0.4-0.5,0.3-1.1-0.2
				c-0.8-0.8-1.1-1-1.9-1.9c-0.3-0.3,0.3-0.8,0.5-1.2c0.2-0.3-0.1-0.7-0.4-0.4c-1,0.9-1.7,1.5-2.7,2.3c-0.2,0.2,0,0.6,0.3,0.4
				c0.9-0.2,1-0.6,1.4-0.3c0,0,1.6,1.7,1.9,1.9c0.5,0.5,0.6,0.6,0.3,0.8c-0.4,0.3-0.5,0.1-1,0c-0.4-0.1-0.4-0.1-1.1-0.3
				c-0.2,0-0.5,0.3-0.2,0.5c0.8,0.6,1,0.7,1.9,1.2c1.4-1,2.2-2,3.5-3.2c-0.5-0.8-1.1-1.7-1.3-2C111.6,107.5,111.3,107.7,111.4,108"
				/>
			<path class="st0" d="M105.7,115.2c-0.2,0.4-0.7,0.8-1,0.3c-0.2-0.4-0.5-0.8-0.9-1.5l1.5-1.5C105.7,113.3,106.2,114,105.7,115.2
				 M108.5,113.2c-0.6,0.4-1,0.7-1.5,1c-0.1-0.6,0.4-1.3,0.1-1.7c-0.3-0.4-2.3-0.9-1.6-2.5c0.3-0.5-0.1-0.8-0.6-0.4
				c-0.9,0.6-0.3,1.4-0.1,2.2c-0.3,0.4-1,1.1-1.5,1.6c-0.4-0.6-0.8-1.1-1.1-1.7c-0.4,0.3-1.6,1.1-1.7,1.2c-0.3,0.2-0.1,0.6,0.2,0.5
				c0.4-0.2,0.7-0.5,1-0.1c0.8,1.2,1.2,1.9,2,3.1c0.2,0.3,0.1,0.5-0.2,0.7c-0.2,0.2,0.1,0.7,0.4,0.5c0.2-0.2,5-3.9,5-3.9
				C109.3,113.4,108.8,113,108.5,113.2"/>
			<path class="st0" d="M59.8,120.8c-0.6-0.3-0.4-0.8,0.2-1.7c0.1-0.1,0.3-0.1,0.6-0.1l1.1,0.4C61.4,119.8,60.9,121.3,59.8,120.8
				 M69.5,119c-1.5-0.4-2.3-0.6-3.8-1.1c-0.4-0.2-0.7,0.4-0.4,0.5c0.2,0.2,0.2,0.3,0.2,0.5c-0.5,1.2-0.8,1.7-1.8,2.8
				c-0.5,0.5-1.3,0.1-1.9-0.1c-0.2-0.1-0.2-0.2,0-0.3c0.4-0.1,0.8-0.1,1.2-0.7c0.4-0.6,0-1.8,0.5-2.4c0.4-0.4,1.1,0.1,1.3-0.5
				c0.1-0.4-0.4-0.6-0.5-0.6c-1.2-0.3-1.7,1-2,1.6c-0.5-0.2-1.2-0.4-1.2-0.4c-0.3-0.1-0.5-0.2-0.3-0.6c0.2-0.4,0.5-0.9,0.6-1.4
				c-0.6-0.3-0.9-0.4-1.4-0.7c-0.3-0.2-0.5,0.2-0.4,0.3c0.3,0.4,0.2,0.6,0.1,0.9c-0.4,1-1.2,2.5-1.4,2.9c-0.2,0.4-0.3,0.3-0.6,0.2
				c-0.3,0-0.4,0.4-0.2,0.5c1.8,1,4.5,1.8,5.3,2.1c1.2,0.3,2.9-1.6,3.9-3.3c0.2-0.3,0.8-0.1,0.7,0.2c-0.3,1.3-0.3,1.8-0.6,3.1
				c-0.1,0.5-0.4,0.5-1,0.4c-0.3,0-0.4,0.5-0.1,0.6c1.1,0.3,1.9,0.5,3.1,0.7c0.3,0,0.4-0.5,0.1-0.6c-0.7-0.2-1-0.3-0.9-0.9
				c0.1-0.6,0.6-2.9,0.6-2.9c0.1-0.5,0.4-0.4,0.7-0.3C69.7,119.6,69.8,119.1,69.5,119"/>
			<path class="st0" d="M91,119.8c-0.1,0.5-0.3,0.8-0.6,0.6c-0.8-0.5-1.4-0.7-1.1-1.4C89.6,118.4,91.2,118.8,91,119.8 M90.9,122.9
				c-0.2,0.5-0.7,0.4-1.1,0.4c-0.6-0.1-0.6-0.2-0.4-0.8c0.2-0.8,0.3-1,0.7-0.8C90.7,122,91.1,122.3,90.9,122.9 M97,120.8
				c-0.7,0.2-0.9,0.5-1.2-0.1c-0.7-1.3-0.6-1.1-1.2-2.6c-0.4-1,0.3-1.1,0.7-1.4c0.3-0.2,0.1-0.8-0.3-0.6c-0.7,0.4-1.9,0.8-2.7,1.2
				c-0.5,0.2-0.7,0.3-0.9,0.7c-0.2,0.5-0.4,0.4-1.3,0c-0.7-0.3-2-0.1-2.3,0.9c-0.3,1,0.2,1.7,1.3,2.3c-0.2,1-0.8,2.3-1,3.2
				c-0.1,0.3,0.4,0.5,0.6,0.1c0.4-0.8,0.5-0.8,1.3-0.6c0.8,0.2,2,0,2.4-1.2c0.2-0.9-0.3-1.3-1-1.8c0.2-0.8,0.5-1.6,0.8-2.4
				c0.2-0.6,1-0.9,1.3-0.3c0.5,1.1,0.7,1.7,1.1,2.7c0.3,0.9-0.4,0.9-0.7,1.1c-0.3,0.3,0,0.8,0.3,0.6c1.3-0.5,2.7-1.2,3.1-1.4
				C97.6,121.3,97.4,120.6,97,120.8"/>
			<path class="st0" d="M72.9,124.1c-0.1,0.5-0.4,0.6-0.9,0.5c-0.4,0-0.8-0.1-0.8-0.6c-0.1-1.3,0-2.1,0.2-3.3
				c0.1-0.5,0.3-0.6,0.9-0.6c0.6,0.1,0.8,0.3,0.8,0.7C73.2,122.2,73.1,122.8,72.9,124.1 M72.4,119.4c-2.1-0.2-2.3,1.1-2.6,2.6
				c-0.1,1.1-0.3,3,2,3.3c2.1,0.2,2.6-1.1,2.7-2.9C74.4,121.3,74.5,119.5,72.4,119.4"/>
			<path class="st0" d="M83.8,120.9c-0.2,0.3-0.4,1-0.8,0.7c-0.4-0.3-0.9-0.6-0.7-1.2c0.3-0.6,1-0.4,1.3-0.2
				C83.9,120.5,84,120.6,83.8,120.9 M83.5,124.1c-0.2,0.6-1,0.5-1.5,0.2c-0.4-0.2,0.2-1.3,0.3-1.6C83.2,123.2,83.6,123.5,83.5,124.1
				 M84.9,119.2c-0.5,0.5-0.5,0.7-1.4,0.3c-1-0.4-2.1-0.2-2.5,0.6c-0.5,0.9-0.2,1.6,0.6,2.3c0,0.6-1.2,2.5-1.4,3
				c-0.2,0.4,0.4,0.6,0.6,0.3c0.2-0.4,0.6-0.8,1.2-0.5c1.1,0.7,2,0.5,2.7-0.4c0.6-1,0.1-2-0.7-2.5c0.4-1,0.8-1.8,1.3-2.6
				C85.6,119.2,85.1,118.9,84.9,119.2"/>
			<path class="st0" d="M77.1,124.7c-0.3,0-0.5,0-0.5-0.7c0-1.2,0-1.5,0-2.4c0-0.6,0.2-0.7,0.6-0.8c0.8-0.2,1.3-0.4,1.4,2
				C78.6,125,77.7,124.8,77.1,124.7 M77.1,119.9c-0.5,0.2-0.8,0.4-1.9-0.2c-0.2-0.2-0.6,0.3-0.3,0.5c0.5,0.3,0.6,0.5,0.6,1.1
				c0,0.9,0.1,1.5,0,2.4c-0.1,0.5-0.3,0.7-0.8,1.1c-0.3,0.2-0.1,0.6,0.3,0.5c0.8-0.2,1.1-0.2,1.6,0.1c2.5,1,3.4-0.4,3.4-2.8
				C79.9,119.6,78.4,119.4,77.1,119.9"/>
			<path class="st0" d="M86.2,121.7c-0.3,0.2-0.5,0.5-0.3,0.9c0.1,0.3,0.5,0.4,0.8,0.3c0.3-0.1,0.5-0.5,0.4-0.9
				C87,121.7,86.6,121.5,86.2,121.7"/>
			<path class="st0" d="M102.8,117.3c-0.4-0.2-0.7-0.2-0.8-0.1c-0.3,0.2-0.5,0.2-0.6,0c-0.3-1.7-1.1-3.8-3.5-2.7
				c-2.4,1.1-1.8,4.3,0,3.9c1-0.2,0.5-0.6,0.1-0.9c-0.5-0.4-0.7-2,0.4-2.4c1-0.3,1.5,1.6,1.7,2.4c0.2,0.8,0.2,1.3-0.5,1.7
				c-0.5,0.4-0.8,0.2-1.5,0.6c-0.5,0.3-0.6,0.7-0.1,0.7c0.4,0.1,1.9-0.1,2.5-0.4c0.9-0.5,1.3-2.5,2.5-2.2
				C103.1,118.1,103.4,117.6,102.8,117.3"/>
			<path class="st0" d="M114.6,79.3c0.8-2.7,1.2-4.1,0.9-11c-0.8,0.1-3.8,0.1-5,0.1c0,0-2.1-1.6-2.3-1.7c0,0,0-0.2,0-0.2l5.9-4.3
				c2.1,4.9,3.3,10.2,3.3,15.7c0,1.4,0,2.2-0.1,3.5L114.6,79.3z M116.9,84.7l-3,2.1c-0.2-0.1-0.3-0.1-0.4,0l-2.2-1.6
				c1.5-2,2.1-2.8,3.3-5.5l2.8,2.2C117.2,82.8,117,84.1,116.9,84.7 M115.9,88.7l-2-1.5l0-0.1l2.8-2
				C116.5,86.6,116.3,87.4,115.9,88.7 M113.4,95.3l-5.2-4.1l0-0.1l5.2-3.6c0,0,0.2,0,0.3,0l2.1,1.6
				C115.5,90.5,114.4,93.3,113.4,95.3 M109.6,101.6l-2.1-1.7l5.8-4.2C112,98.1,111,99.7,109.6,101.6 M107.1,104.6l-0.1-4.7l2.4,2
				C108.6,102.9,108,103.7,107.1,104.6 M106.9,96.9l-2.6,0l-1.9-1.5c0-0.1,0-0.2,0-0.2l5.4-3.8c0.1,0.1,0.2,0,0.2,0l5.1,3.9
				l-6.1,4.4L106.9,96.9z M105.7,105.4c0,0,0.1-0.5-0.1-0.9c0.3-0.2,0.4-0.3,0.6-0.6l0,1L105.7,105.4z M104.8,106.7
				c-0.9,0.4-1.2-0.5-1.4-0.8c-0.4,0.4-1.3,0.5-1.5-0.5c-0.2-1,0.3-1.2,0.8-1.5c-0.1-0.7-0.2-1.7,0.5-2.2c0.8-0.5,1.2,0.4,1.3,0.8
				c0.6-0.7,1.7-0.7,1.8,0.1c0.1,1-0.7,1.5-1,1.8C105.2,104.9,105.6,106.3,104.8,106.7 M100.8,109.6l-1,0c0.8-0.4,1-1.1,0.9-1.8
				c0.5,0,1.2-0.4,1.3-1.3c0.3,0.2,0.9,0.1,1.2,0c0.2,0.2,0.3,0.4,0.6,0.6C103.8,107.2,102.3,108.6,100.8,109.6 M95.3,113.7l-4-3.2
				l9.2,0C98.9,111.6,96.7,112.9,95.3,113.7 M87.6,116.6l-2.3-1.8c0-0.1,0-0.1,0-0.1l5.5-4.1l4.1,3.2
				C92.3,115.1,90.4,115.9,87.6,116.6 M81.2,117.7l3.6-2.7c0.1,0.1,0.2,0,0.3,0l2.1,1.7C85.6,117.1,83.1,117.5,81.2,117.7 M77,117.8
				l-3.8-3c0,0,0-0.1,0-0.1l5.9-4.2l5.4,4.2c0,0,0,0.1,0,0.1l-4,3C79.3,117.8,78.2,117.8,77,117.8 M69.9,117l2.8-2
				c0,0,0.2,0.1,0.3,0l3.4,2.8C74.5,117.7,71.9,117.4,69.9,117 M61.8,114.3l5.6-3.8l5.1,4.2c0,0,0,0.1,0,0.1l-3.1,2.1
				C67,116.4,64.5,115.5,61.8,114.3 M55.4,110.7l11,0l-5,3.4C59.4,113.2,57.4,112.1,55.4,110.7 M51.7,107.2c0.5-0.1,0.7-0.3,0.9-0.7
				c0.4,0.3,0.7,0.3,1.2,0.1c0,0.8,0.3,2,1.7,1.8c-0.1,1.1,0.6,1.5,0.9,1.6l-1.3,0C54.3,109.5,51.7,107.2,51.7,107.2 M50.6,104.5
				c-0.4-0.2-1.6-0.7-1.4-1.7c0.4-1.3,1.5-0.5,1.8-0.4c0.4-1.1,1-1.1,1.5-0.7c0.9,0.6,0.6,1.5,0.5,2c0.4,0.2,1.5,0.7,1,1.8
				c-0.6,1.2-1.6,0.5-1.8,0.3c-0.1,0.4-0.3,1.3-1.5,0.9C50,106.3,50.3,104.8,50.6,104.5 M49.9,105.8l-0.5-0.5l0-0.9
				c0,0,0.2,0.2,0.6,0.4C49.9,105,49.8,105.4,49.9,105.8 M52,101c-0.7,0-1,0.3-1.2,0.8c-0.5-0.2-1-0.4-1.4,0l0-3.5L52,101z
				 M46.3,102.3l2.3-1.7l0,4.5C47.9,104.3,47,103.2,46.3,102.3 M42.4,96.1l3.2-2.3c0,0,0.2,0,0.3,0l4.7,3.3l-2.1,0l0,3.1l-2.5,1.8
				C44.8,100.3,43.6,98.4,42.4,96.1 M39.8,89.5l5.6,3.9l0,0.1l-3.2,2.3C41.4,94.1,40.6,92.2,39.8,89.5 M38.4,82l2.8-1.9
				c1.2,2.4,2.7,4,4.2,5.4l-5.6,3.9C39.3,87.7,38.6,84.8,38.4,82 M40.8,63.9l1.2,1c0,0,0,0.1,0,0.2l-1.7,1.3
				c-0.8,3.7-1.2,8.6,0.8,13.5l-2.8,1.8C37.9,76.6,38.4,69.7,40.8,63.9 M43.6,58.1l3.8,3l0,0.1l-4.8,3.4c-0.1-0.1-0.2-0.1-0.3,0
				l-1.3-1.1C41.6,61.7,42.5,59.9,43.6,58.1 M47.3,52.8l5.6,4.4l0,0.1l-5.1,3.6c0,0-0.1-0.1-0.3,0l-3.8-3.1
				C44.8,56.1,46,54.4,47.3,52.8 M49.7,50.2c7.5-7.5,17.3-11.6,28-11.7c1.4,0,4.1,0.2,4.1,0.2c0,0.2,0,0.5,0,0.7
				c-9.3-0.4-15.3,0.4-24.1,6.1l-10.1,7C48.2,51.7,48.9,51,49.7,50.2 M82.6,31.4l-0.4,6L81.7,34L82.6,31.4z M96.3,43.1l-1.7,1.1
				c-1.5-2.7-4.3-3.7-6.2-3.6c-3,0.1-5.8,2.2-5.9,5.8c0,2.4,0.8,4.5,3,5.8c-0.3,0.8-0.6,1.5-1,1.9c-0.9,0.9-2.1,1.5-3,1.9
				c0-0.5,0-0.8,0.2-1.2c0.8-0.8,2.2-1.8,1.3-2.8c0.2-0.4,0.2-0.7-0.1-0.9c0.4-0.7-0.1-1.1-0.2-1.2c0.3-0.9-0.4-1.1-0.7-1.1l0-0.7
				c0.2,0,0.4-0.1,0.4-0.4c0-0.3-0.2-0.4-0.4-0.4l0.2-3.4c0.2,0,0.4-0.1,0.4-0.4c0-0.3-0.2-0.4-0.4-0.4l0.2-3c0.2,0,0.4-0.1,0.4-0.4
				c0-0.2-0.1-0.4-0.4-0.4c0-0.2,0-0.6,0-0.6C87.5,39.4,92.1,40.9,96.3,43.1 M102.2,47l-4.4,3.2c-0.1,0-0.2,0-0.3,0l-2.4-1.8
				c0.2-1.4,0.1-2.6-0.4-3.8c0,0,1.9-1.3,1.9-1.3C98.6,44.4,100.5,45.5,102.2,47 M105.7,50.1c0.4,0.4,0.7,0.7,1.1,1.1l-3.8,2.7
				c-0.1,0-0.2-0.1-0.3,0L98,50.5l0-0.1l4.5-3.2C103.6,48.1,104.7,49.1,105.7,50.1 M110.7,56.1c-0.4,0.3-2.4,1.7-2.4,1.7
				c-0.1-0.1-0.2,0-0.3,0l-4.9-3.6l0-0.1l3.9-2.8C108.4,52.9,109.6,54.4,110.7,56.1 M107.7,66.4l-5.2-3.8l0-0.1l5.6-4
				c0.1,0,0.2,0,0.3,0l5.2,3.9l-5.5,4C108,66.3,107.8,66.3,107.7,66.4 M105.6,68.6l2.1-1.6c0.1,0,0.2,0.1,0.3,0l2,1.5L105.6,68.6z
				 M115,71.4c-0.1-0.5-0.3-0.8-0.7-1.1c-0.7,0.6-1.2,1.6-0.5,2.5c0,0.7-0.3,1.6-2,3.1c-0.3-0.6-0.5-1.7-0.3-2.5
				c1-0.5,0.6-1.8,0.1-2.3c-0.4,0.2-0.7,0.6-0.9,1.2c0-0.9-0.4-2.1-0.7-3.1l5-0.1C115,69.4,115.1,70.8,115,71.4 M113.9,71.6
				c0-0.4,0.2-0.7,0.4-0.7c0.2,0,0.4,0.3,0.3,0.8c0,0.4-0.3,0.7-0.4,0.7C114,72.4,113.9,72,113.9,71.6 M109,86.7
				c-0.4-0.5,0-1.6,0.5-2.2c-0.5-0.7-0.8-1.5-0.6-2.6c0.5,0.1,0.7,0.7,1.6,0.4c0.4-0.1,0.7-0.3,1.2-0.4c-0.1-0.3-0.1-0.5-0.3-0.7
				c2.5-1.5,1.3-4,0.7-4.9c1.1-0.9,2-1.7,2.4-3.6c0,0,0.4,0,0.6-0.9C115,75.1,114.9,80.8,109,86.7 M102.5,86.7l0-0.1l2-1.4
				c0.6,0.7,2.3,2.2,3.7,3.2c1-0.9,2.7-3,2.7-3l2.2,1.7l0,0.1l-5.1,3.6c-0.1-0.1-0.2-0.1-0.4,0C107.7,90.8,104.3,88.1,102.5,86.7
				 M101.9,95c0,0-2.6-2.1-2.8-2.3c0.8,0.6,1.7,0,1.6-0.6c0-0.7-0.9-3.6-0.9-3.6L102,87c0.1,0.1,0.2,0.1,0.3,0l5.2,4.1l0,0.1
				l-5.3,3.8C102.1,94.9,102,94.9,101.9,95 M99.9,97l1.9-1.4c0.1,0,0.2,0,0.2,0l1.7,1.3L99.9,97z M95.4,108c0.6,0,1-0.3,1.1-0.6
				c0.1,0.3,0.6,0.7,1.3,0.6c0,0.8,0.3,1.3,0.9,1.6h-3.9C95,109.4,95.5,108.9,95.4,108 M92.8,107.6c-0.9-0.1-1.3-0.1-1.3-1.2
				c0-0.9,0.8-1.2,1.5-1.2c0-0.6,0.1-1.4,1-1.4c1,0,0.9,0.9,0.9,1.5c0.6,0,1.4,0.2,1.4,1c0,0.9-0.4,1.1-1.3,1.2
				c0,0.5,0.2,1.7-0.9,1.7C92.8,109.2,92.9,108.1,92.8,107.6 M89.3,109.7c0.5-0.3,0.9-0.7,0.8-1.6c0.5,0,0.9-0.2,1.1-0.6
				c0.2,0.4,0.5,0.6,1.1,0.6c0,0.6,0.2,1.2,1,1.6L89.3,109.7z M90.3,110.6l-5.2,3.8c-0.1-0.1-0.2-0.1-0.4,0l-4.9-3.8L90.3,110.6z
				 M80.2,108.2c0.5-0.1,0.7-0.1,0.9-0.5c0.3,0.4,0.5,0.5,1.1,0.5c0,0.9,0.3,1.4,1.1,1.6l-4,0C80,109.5,80.2,108.8,80.2,108.2
				 M77.5,107.7c-0.5,0-1.4,0.1-1.4-1.1c-0.1-1.2,1.1-1.2,1.4-1.3c0-0.4,0-1.6,1-1.5c1.1,0.1,0.9,1.2,1,1.6c0.5,0,1.3,0,1.3,1
				c0.1,1.1-0.8,1.1-1.2,1.2c0,0.4,0.3,1.7-0.9,1.7C77.5,109.5,77.6,108.2,77.5,107.7 M78.3,110.7l-5.2,3.7c-0.2-0.1-0.3,0-0.3,0
				l-4.5-3.7L78.3,110.7z M66.6,107.8c-0.5,0-1.3-0.1-1.3-1.2c0-1.2,1.1-1.2,1.4-1.2c0-0.3-0.3-1.4,0.9-1.5c1.2-0.1,1.1,1.2,1.1,1.6
				c0.3,0,1.4-0.1,1.5,1.1c0,1.1-1.1,1.2-1.5,1.2c0,0.7,0.1,1.6-1,1.7C66.6,109.5,66.7,108.2,66.6,107.8 M64,108.1
				c0.4,0,0.8-0.1,1.1-0.6c0.2,0.4,0.6,0.7,1.1,0.6c0,0.9,0.3,1.6,0.9,1.7H63C63.7,109.6,64.1,109,64,108.1 M61.3,107.7
				c-0.5-0.1-1.4,0-1.4-1.1c0-1.1,1.2-1.1,1.6-1.1c0-0.5-0.1-1.6,1.1-1.5c1.1,0.1,1,1.2,1,1.5c0.5,0,1.3-0.1,1.4,1
				c0.1,1.2-0.9,1.3-1.4,1.3c0,0.5,0.2,1.7-0.9,1.8C61.4,109.6,61.3,108.4,61.3,107.7 M58.6,108.3c0.6-0.1,0.8-0.3,1.1-0.6
				c0.3,0.3,0.7,0.5,1.2,0.5c0,0.6,0.1,1.5,0.9,1.8l-3.8,0C58.3,109.6,58.7,109.3,58.6,108.3 M55.9,105.4c0-0.6-0.1-1.5,1.1-1.5
				c1.3-0.1,1.1,1.2,1.1,1.6c0.4,0,1.3-0.1,1.4,1.1c0,1-0.9,1.2-1.4,1.3c0,0.5,0.2,1.8-1,1.7c-1.2,0-1.1-1.2-1.1-1.7
				c-0.2,0-1.7,0.4-1.6-1.4C54.3,105.7,55.2,105.3,55.9,105.4 M53.7,102.6l1.1,1.1l1.4,0c-0.7,0.3-0.8,0.9-0.8,1.3
				c-0.2,0-0.4,0.1-0.6,0.2c0-0.9-0.7-1.4-1.1-1.6C53.7,103.2,53.7,103,53.7,102.6 M53,97.8c-1.3,1.4-0.1,2.8,1.7,3.9
				c1.1,0.7,0.8,1.3,1.8,1.5l-1.4,0c-2-1.8-5.3-5.3-5.3-5.3L53,97.8z M46.2,93.4l5.7-4.1c0,0,0.2,0,0.3,0l2.5,2
				c-0.5,1.8-1.2,3.8-1.2,5.8l-2.2,0l-5.1-3.5L46.2,93.4z M45.7,85.7c0.5,0.4,1.2,1,1.6,1.2c0.5-0.3,0.8-0.6,1-0.7l3.4,2.7l0,0.1
				L46,93.1c0,0-0.2-0.1-0.4,0l-5.3-3.7L45.7,85.7z M45.5,80c0-0.3,0-0.6,0.1-0.9L45.1,79l0.8-1.5c0.6,0.7,0.9,1.9,0.9,2.9
				c-0.4,0-0.7,0.1-0.7,0.4c0,0.3,0.5,0.3,0.7,0.4c0.1,1.6-1.6,1-2.1,0.4c-0.3,0.9,0.8,1.3,1.4,1.3c-0.3,0.6-0.8,1.6-0.8,1.6
				c-0.5-0.4-1.6-1.7-1.9-2.2C42.9,79.4,45.1,79.2,45.5,80 M43.8,79.6c-0.5,0.4-1,1-1.2,1.6c-0.2-0.3-0.4-0.7-0.6-1
				C42.6,79.8,43.2,79.7,43.8,79.6 M43.6,79.2c-0.3,0.1-1.4,0.3-1.8,0.4c-0.2-0.3-0.2-0.5-0.3-0.9C41.9,78.7,42.9,79.1,43.6,79.2
				 M40.7,67.4c4.6,0.6,9.7,1.2,14.4,1.5c-0.2,4.1-0.6,7-1.9,9.8c-0.4,0.3-2.5,0.3-3.6,0.4l-0.4-2.7c0.2,0.3,0.6,0.5,0.9,0.5
				c0.4,1.7,2.1,1.6,2.5,1.4c-0.3-0.7-0.6-1.6-0.6-2.3c0.4,0.3,1.1,0.4,1.5,0.4c-0.2-0.6-0.4-1.5-0.5-2.3c0.2,0.2,0.8,0.3,1.1,0.3
				c-0.2-1.6,0.1-2.4,0.1-3.9c0-0.4-0.4-1-1.1-1.1c-0.7,0-1.3,0.4-1.3,0.9c0,0.3,0,0.7,0.2,0.9c-0.9,0.8-2.3,1.5-3.2,1.7
				c-0.1-0.1-0.2-0.4-0.2-0.6l0.7,0c-0.1-0.2-0.3-0.4-0.4-0.6c0-1.4,0.1-1.9-1.2-2.6c-0.2-0.1-0.3,0-0.6,0.2
				c-0.4-0.5-1.4-1.7-2.1-0.5c0.2-0.1,0.5-0.1,0.6-0.1c0.2,1.2,1.1,2.4,1,2.7c-0.1,0.3-0.2,0.5-0.6,0.9c0.2,0,0.7,0,0.7,0
				c0,0.3-0.1,0.4-0.2,0.6c-0.7,0-2.9-0.8-3.5-2.1c0.3-0.3,0.4-0.4,0.4-1c0-0.5-0.4-1.2-1.1-1.3c-0.7-0.1-1.2,0.4-1.3,1
				c-0.1,0.9,0.1,2.7-0.3,3.7c0.5,0,0.9-0.2,1.2-0.5c-0.1,1.1-0.1,2.3-0.8,3.3c0.6,0,1,0,1.4-0.1c-0.1,0.5-0.3,1.2-0.8,1.7
				c0.8,0.3,2-0.1,2.5-1.1c0.6-0.1,1-0.3,1.2-0.6c0.1,0.4-0.5,2.5-0.8,2.9c-1.1,0-2.4-0.4-3.5-0.9C40.3,75.3,39.9,72.1,40.7,67.4
				 M45,67.3c0,0-3.2-0.4-4.6-0.6l1.9-1.4c0.1,0,0.2,0,0.3,0L45,67.3z M52.8,65.5v0.1l-3,2.2c-1.5-0.1-3.2-0.3-4.3-0.5l-2.8-2.3
				l0-0.1l4.8-3.4c0,0,0.2,0.1,0.3,0L52.8,65.5z M53.1,57.6c0,0,0.1,0.1,0.3,0l2.3,1.9c-0.6,0.9,0.5,2,1.4,1.6c0,0,0.1,0.4-0.1,1.6
				l-3.7,2.6c-0.1-0.1-0.3,0-0.3,0l-5-4l0-0.1L53.1,57.6z M55.9,50.9c-0.5,1.8-0.9,2.9-1.3,4.4l0.8-0.7c0.4-1.1,0.6-2,1.2-3.2
				l2.1,1.7l0,0.1l-5.2,3.7c-0.2-0.1-0.4,0-0.4,0l-5.3-4.2l5.6-3.9L55.9,50.9z M56,50.6l-2.3-1.9l4.5-3.1
				C57.2,46.9,56.5,49.2,56,50.6 M64.5,44.7c-2.5,0.6-4.9,2.1-7.6,5.3C58,46.7,58.8,43.3,64.5,44.7 M68.4,42.9
				c-0.1,0.2-2.5-0.2-2.8-0.2c-0.5,0-0.7,0.2-0.7,0.5c0,0.2,0.3,0.5,0.7,0.4c0.4-0.1,2.7-0.5,2.9-0.3c0.1,0.1-1.5,0.9-1.9,1.3
				c-1.6-0.4-3.3-0.7-4.7-0.8c1.6-1,3.3-1.6,4.7-2.1C66.8,42.1,68.5,42.7,68.4,42.9 M68.7,45.2c-0.4-0.1-0.9-0.3-1.3-0.4
				c0.5-0.6,1.5-1.5,1.7-1.4C69.3,43.6,68.2,44.7,68.7,45.2 M77.7,48.3l-1.5,1c0,0-0.1-0.1-0.3,0l-0.8-0.6c0.2-0.2,0.1-0.3-0.1-0.3
				c-0.9-0.1-1.1-0.1-1.9-0.3c0,0-0.3-0.2-0.3,0.3c0,1.6-0.1,2.4-0.7,3.6c-0.1,0.3-0.4,0.3-0.5,0c-0.4-1.4-0.6-2.7-0.5-4.2
				c0,0,0.1-0.4-0.3-0.2c-0.4,0.1-0.7,0.2-1.2,0.3c0.2,0.6,0.4,1.1,0.5,1.5c-0.3,0.9-0.4,1.4-0.8,2.1c-0.2,0.3-0.4,0.3-0.5,0
				c-1-3.8-0.5-4.3-0.2-4.5c0.3-0.2,0.2-0.4-0.1-0.4c-0.4,0-1.9-0.2-2.5-0.4c-0.3-0.1-0.4,0.1-0.2,0.3c0.4,0.3,0.5,0.5,0.7,1
				L65,48.8c-0.2-0.1-0.3,0-0.3,0l-2.9-2.3c1.6-1,3.5-1.7,6-0.9C73.3,47.3,74.6,47.8,77.7,48.3 M77,41.6L76.6,42L74,42l0,0.4l2.3,0
				l-0.4,0.5c0,0-0.8,0-2,0c-1.5-0.5-2.8-1.9-2.8-1.9l-0.2,0.4c0,0,0.8,1,2.1,1.6c-1,0.1-2.8-0.1-2.8-0.1c-1.2-0.1-1.3-1.5-0.7-2.1
				c1.6-0.4,2.8-0.5,3.2-0.6C73.3,41.8,74.4,41.5,77,41.6 M77.6,40.8l-0.3,0.4c-2.1,0-3.6,0.2-3.8-1.1l1.1-0.1
				C74.7,40.7,75.1,40.8,77.6,40.8 M74.5,46l2.3,0l0.3,0.5c-2.2,0-2.5-0.2-2.8,0.4l-1.2-0.3C73.4,46.1,73.8,46,74.5,46 M70.9,45.4
				c0,0,1.3-1.2,3-1.4c0.6,0.1,2.1,0.1,2.1,0.1l0.3,0.5H74l0,0.4l2.4,0l0.2,0.5c-2.5,0-3.7-0.2-4.3,0.8c-0.7-0.2-1.7-0.5-2.9-0.9
				c-0.5-0.8-0.4-2.1,0.7-2.1c0,0,1.8,0.1,2.7,0.4c-1.2,0.4-2.2,1.3-2.2,1.3L70.9,45.4z M80.1,41.8c0,1.1,0.7,1.6,1.2,1.9
				c-0.7,0.2-1.3,1.1-1.3,1.9c0,0.9,0.3,1.7,1.2,2.1c-1.4,0.2-4.6-0.1-6.1-0.6c0.1-0.3,0.3-0.3,1.2-0.3c0.3,0,0.6,0,0.9,0
				c0.6,0,1,0.1,1.2-0.2c0.3-0.4-0.2-0.9-0.7-0.7c-0.3-0.4-0.6-0.9-0.7-1.1c-0.4-0.7,0.1-1,0.5-1c0.7,0,1.4,0.2,2.1,1.1
				c0.3-0.2,0.1-0.4,0-0.8c-0.2-0.6,0.3-0.4-0.2-1.1c-0.2-0.3-0.3-0.4-0.6-0.4c-0.8-0.1-0.4,0.3-1.2,0.4c-0.6,0.1-0.9-0.2-0.5-0.8
				c0.2-0.2,0.5-0.7,0.9-1c0.3,0.3,0.9,0.2,0.9-0.3c0-0.5-0.5-0.7-1.1-0.7c-0.5,0-1,0-1.3,0c-0.9,0-1.1-0.2-1.1-0.4
				c1.4-0.1,4.3,0,6.2,0.1C80.8,40.1,80.1,40.9,80.1,41.8 M81.5,43.3c-1.3-0.3-1.2-2.8,0.2-2.9L81.5,43.3z M81.5,44.2l-0.2,3.2
				C80.3,47,80.2,44.5,81.5,44.2 M83.9,57.5L81.5,59l0.1-2.1l0.8-0.4C82.7,57.1,83.2,57.5,83.9,57.5 M85.1,56.9
				c-0.8,0.3-1.7,0.4-2.3-0.7c0.5-0.3,1.3-0.8,1.6-1C84.7,55.5,84.9,56.2,85.1,56.9 M86.4,55.3c0,0.6-0.4,1.3-0.9,1.4
				c-0.1-0.7-0.3-1.2-0.6-1.8l0.4-0.4C85.6,54.9,86,55.1,86.4,55.3 M86.5,52.1c2.6,1.2,3.8-0.6,4-1.5l0.6,0c0,1.2,0.3,2.1,0.8,3
				c-0.9,1.3-3.7,2.6-6.4,0.7C85.8,53.7,86.1,53,86.5,52.1 M88.8,48.6c-0.1-0.5-0.1-1,0.9-1c0.6,0,0.9,0,0.8,0.6
				c-0.2,0.7-0.2,1-0.5,1.3C89.6,49.9,89.1,49.5,88.8,48.6 M87.5,49.7c0.3,0,0.8,0,1.1,0c0.1,0.2,0.3,0.2,0.3,0.4
				c0,0.2,0,0.4-0.3,0.4c-0.3,0.1-0.8,0.1-1,0c-0.2-0.1-0.3-0.2-0.4-0.4C87.2,49.9,87.4,50,87.5,49.7 M88.6,49.4l-1,0
				c0-0.3,0.1-0.5,0.5-0.4C88.3,49.1,88.6,49.1,88.6,49.4 M86,47.2c0.3-0.6,1.3-0.4,1.3-0.1C87.3,47.5,86.3,47.6,86,47.2 M90.2,47
				c-0.2,0.5-1.2,0.5-1.4,0.1C88.8,46.8,89.8,46.6,90.2,47 M84.6,44.4c0-1.6,1.6-1.6,3-1.6c-0.1-0.6,0.3-0.9,0.9-0.9
				c0.8,0,0.8,0.8,0.8,1c0.9,0.1,2.2-0.2,2.7,0.6c0.3,0.5,0,1.2,0.2,1.6c0.2,0.3,0.2,0.6-0.1,0.6c-0.6,0-0.3-0.2-2.2-0.2
				c-1.4,0-1.7-0.2-2.8-0.2c-0.8,0-1.4,0.4-2,0.3l-0.5,0c0-0.1,0-0.2,0-0.3C84.7,45.3,84.6,44.8,84.6,44.4 M84.8,46.2
				c0.3,0.1,0.6,0.1,0.8,0.1c-0.1,0.6-0.5,1.4,0,2.3c0.2,0.3,0.2,0.2,0.4,0.1c0-0.2-0.3-1,0.4-1c1,0,1.3-0.1,1.3-0.1
				c0,0.1,0-0.5-0.1-0.7c-0.2-0.5-1-0.5-1.6-0.5c0-0.5,0.5-0.6,1-0.7c0.5-0.1,2.6,0,2.6,0.5c-0.9,0.1-1.2,0.4-1.3,0.9
				c0,0.6,0,0.9,0.1,1.4c-0.3,0-1,0-1,0c-0.1,0.3,0,1.2-0.8,1.2c-0.3,0-0.3-0.2-0.5-0.5c-0.3,0-0.7,0.1-1,0.1
				c-0.3-0.1-0.5-0.4-0.3-0.6c0.1,0,0.2-0.1,0.3-0.2C84.7,48,84.6,48,84.8,46.2 M90.4,46.4c-0.2-0.2-0.1-0.4,0.2-0.3
				c0.4,0,0.9-0.1,1.7,0c0.1,0.2,0.7,1.8-0.2,2.1c0,0-0.3,0.1-0.5,0.2c-0.2,0.1-0.5,0.2,0,0.6c0.1,0.1,0.4,0.4,0.6,0.5
				c-0.3,0.4-1,0.7-1.6,0.6c0.1-0.6,0.2-1.6,0.5-1.8C91.7,47.8,90.6,46.6,90.4,46.4 M91.9,51.7c-0.1-0.4-0.1-0.6-0.2-1.1
				c0.4-0.2,0.7-0.6,1-1c0.1-0.3,0.1-0.3-0.2-0.6c-0.4-0.3,0-0.5,0-0.5c0.7-0.5,0.8-0.7,0.6-1.6c-0.1-0.4-0.2-0.8-0.3-1.2
				c0.3-0.7-0.3-0.8-0.2-1.2c0.1-1.2-0.3-1.6-0.5-1.8c-0.7-0.5-1.5-0.3-2.4-0.4c-0.1-1.3-2.1-1.3-2.5-0.1c-0.5,0.1-0.8,0.1-1.8,0.4
				c-0.5,0.2-0.9,0.5-1,1.2c-0.2,1.2-0.3,1-0.4,1.3c-0.2,0.4-0.1,0.9,0.4,1c0,1.5-0.2,1.7,0.4,2.4c-0.3,0.4-0.6,0.6,0.1,1.1
				c0.5,0.3,1,0.2,1.5,0.2c0.1,0.2,0.2,0.7,0.4,0.9c0.4,0.5,1.6,1.2,3.2,0.2c-0.9,1.6-3.2,0.8-3.8,0.3l-0.2,0.5
				c-2.1-1.1-3.1-3.4-2.8-6c0.3-2.6,2.8-4.6,5.4-4.7c3.8-0.1,6.2,3.1,6.2,5.8C94.7,50.3,92.8,51.2,91.9,51.7 M97.3,50.5l-4.5,3.2
				c-0.1-0.2-0.5-0.8-0.7-1.4c1.5-0.7,2.5-1.7,3-3.6L97.3,50.5L97.3,50.5z M98.3,57.3c-0.1-1.4-0.4-4.1-0.4-4.1
				c-1.1,0.5-2.5,1.3-3.5,2c0,0-0.7-0.4-1.4-1.3l4.5-3.2c0.1,0,0.3,0.1,0.3,0l4.6,3.4l0,0.1C102.5,54.3,98.3,57.3,98.3,57.3
				 M102,62.2l-3.4-2.5l-0.2-2l4.3-3.1c0.1,0,0.2,0,0.2,0l4.9,3.6l0,0.1l-5.6,4C102.2,62.1,102,62.1,102,62.2 M99.4,68.7l-0.6-0.3
				l0-3.3l3.2-2.3c0.1,0,0.2,0,0.3,0l5.3,3.9c0,0,0,0,0,0.1l-2.4,1.8L99.4,68.7z M109.1,69.8l-0.4-0.6l-0.3,0.6l-0.6-0.6l0,0.6
				l-0.4,0.4l-0.9,0c-0.2,0-0.4,0.1-0.4,0.3l0,0.8c0.9,0,2.2-0.1,2,1.1l-0.2,0c-0.4-1.3-2.2-0.4-2.7-0.9l0,0.4
				c0.3,0.3,0.5,0.2,0.8,0.2c0.6,0,1.3-0.2,1.5,0.4l-0.9-0.1l0,0.5c0,0,0.9,0.1,1.4,0.1c-0.4,0.6-1.4,0.2-2.8,0.6l-0.5-0.3
				c-0.1-0.6-0.8-1.3-0.8-1.3c0.3-0.4,0.2-0.7-0.3-1.3c-0.1,0.4-0.1,0.5-0.2,0.7c-0.4-0.5-0.7-0.5-1.3-0.2c0.2,0.3,0.2,0.5,0.3,0.7
				c0.2,0.2,0.8,0.3,0.6,0.5c-0.3-0.1-0.8-0.1-1.1,0.4c0.5,0.1,0.4,0.3,1,0.3c0.1,1,0.7,0.7,0.8,1.7l-0.9,0
				c-0.8-0.6-1.2-0.8-1.2-0.8c0-0.6-0.3-0.9-0.9-1c0,0,0.1,0.5,0.1,0.7c-0.2-0.1-0.5-0.3-0.9,0.1c-0.2-1.5-0.1-4.4-0.1-4.4l9.6-0.2
				L109.1,69.8z M109.4,74.7l-0.5-0.5c-0.8,0.3-1.1,0.9-0.8,3.1c-0.8,0-1.7-0.4-2.4-0.8c-0.4,0.2-0.7,0.4-1.2,0.7
				c-0.6-1.2,0-2.4,0.6-2.8c1.5-1,2.8,0,3.4-1.3c0,0,0.1-0.2,0.1-0.5c0-0.9-0.3-1.4-2-1.4l0-0.4l1,0l0.5-0.4l1.2,0l0.4-0.5
				C109.7,69.8,111.2,73.3,109.4,74.7 M107.9,85.9c0.7,0.3-0.4,0.8,0.5,1.3l-0.3,0.2c-0.5-0.3-0.9-0.7-1.3-1
				C107.1,86.5,107.6,86.6,107.9,85.9 M103.5,83.1c0.1-0.1,1-0.7,2.1,0.8c0.3-0.5,1-0.9,1.3-1.2c1.4,1.8,0.6,2.4,0.6,2.4
				c-0.7-0.4-1.1-0.1-1.3,0.2c0.2,0.2,0.7,0.3,0.7,0.3c-0.3,0.1-0.6,0.2-0.9,0.3C105.5,85.4,104.2,84,103.5,83.1 M98.9,83.9l0-4.1
				l1.5-1.1c1,2.3,1.8,4,3.8,6.2l-2,1.4c0,0-0.1-0.1-0.3,0L98.9,83.9z M105.2,77.3l0.4-0.3c0.6,0.3,1.4,0.7,2,0.8
				c0,0.5,0,0.9,0.2,1.3l-0.8,0.6C106.4,78.9,105.7,78.1,105.2,77.3 M105.6,83.2c-0.4-0.3-0.9-0.9-1.9-0.7c0.2-0.3,0.5-0.5,0.8-0.5
				c0.3,0.2,0.6,0.4,0.9,0.6c0.4-0.3,0.6-0.7,0.5-1.1c-0.1-0.6-1.4-2.1,0.4-2.1c0.2,0.2,0.3,0.4,0.4,0.6
				C105.9,81.5,107.6,81.7,105.6,83.2 M103.6,72.2c0.3,0.5,0.6,0.8,0.8,1.4l0.5,0.3c-0.3,0.2-0.6,0.6-0.6,0.6
				C104,73.5,103,73.3,103.6,72.2 M103.8,76l-0.6,0l-1.7-1.1c0,0-0.1-0.4-0.2-0.7c0.6,0.2,1.5,1,1.5,1l1,0
				C103.7,75.5,103.8,76,103.8,76 M100.4,75.4c0.4-0.1,0.7-0.1,1-0.2l1.8,1.3l0.6,0c0.1,0.5,0.3,0.9,0.4,1.2
				c0.2-0.1,0.6-0.3,0.6-0.3c0.3,0.5,0.7,1,1,1.4c-0.3,0.2-0.9,0.3-1,1c-0.1,0.9,1.1,1.9,0.5,2.1c-0.3-0.2-0.4-0.3-0.6-0.4
				c0,0,0-0.9-0.9-1.2c-0.1,0.4,0,0.7,0,0.8c-0.7-0.2-1,0-1.2,0.2c0.4,0.5,0.6,0.5,1,0.7c-0.3,0.1-0.3,0.3-0.5,0.5
				c-1.7-2.6-2.7-5.2-3-8.4c0.3,0.1,0.2,0.2,0.5,0.3c0.3,0.1,0.5-0.1,0.6,0.1C100.8,74.7,100.3,74.8,100.4,75.4 M100.3,78.5l-1.4,1
				c-0.1-3.8-0.1-7.2-0.1-10.7l0.5,0.3C99.3,73.2,99.4,75.7,100.3,78.5 M98.9,84.3l2.9,2.3l0,0.1l-2.1,1.5
				C99.3,87.1,98.8,85.5,98.9,84.3 M98.6,60.1l3.2,2.4l0,0.1l-3,2.2C98.7,63.1,98.7,62,98.6,60.1 M91.8,73.1c1-0.2,1.6,0.3,2.1,1.4
				c2,5.4,5,13.3,6.1,17c0.3,1-0.4,1.2-0.8,0.3C97.6,88.6,94.2,80,91.8,73.1 M98.2,92.4l3.5,2.8l0,0.1L99.4,97l-1.2,0L98.2,92.4z
				 M93.6,98.3c-0.9-0.5-1.3-1.2-0.9-2.5c0.8-2.9,0.8-3.6,0.7-5c0.1-0.3,0.2-1.4,0.2-2c0.3-0.7,0.5-0.7,0.6-2.8c0,0,0.6-0.3,0.6-0.3
				l-1.2,10c-0.1,1,0,1.3,0.8,1.7l3.1,1.3c0.8,0.3,1.2,0.6,1.5,1.3l0.7,1.9c0,0,0.3,0.8,0.4,1.2C100.2,103.1,97,100.5,93.6,98.3
				 M54.5,98.2c2.1,0.3,6.1-0.2,7.4-0.3c0,0.5-0.1,1.9-0.4,2.8c-1.7-0.2-4.7-0.4-4.7-0.4c0.7,0.6,1.2,1.6,1.8,1.8
				c0.8,0.3,0.7,1,0.5,1c-3.6,0-2.6-1-4.3-2.1C52.7,99.9,52.7,98,54.5,98.2 M57.6,97.6c-1,0.1-2.2,0.1-2.7,0
				c-0.1-0.4,0.2-0.5,0.7-0.5C56.3,97.2,57.3,97.6,57.6,97.6 M57.5,96.9c-0.8,0-1.6-0.6-2.4-0.3c0.5-1.3,2.3-6.5,2.4-6.8
				C57.5,93.4,57.5,95.6,57.5,96.9 M57.8,84.9c0,0-0.2,2.4-0.2,3.2c-0.8,2.2-1.9,5.4-3,8.3c-0.3,0.9-0.6,0.7-0.5-0.1
				C54.4,94.1,56.3,88,57.8,84.9 M52.4,88.9l4.3-3.1c-1,2.4-1.8,5.1-1.8,5.1L52.4,89L52.4,88.9z M52.7,81.3l4.4,3.5l-0.2,0.4
				l-4.7,3.4c0,0-0.2-0.1-0.4,0L48.4,86C50,84.7,51.3,83.3,52.7,81.3 M47.4,83c0.2,0.4,0.8,1.3,1.5,1.7l-1.6,1.4
				C47.4,85.2,47.6,84,47.4,83 M52.2,80.8c0,0-0.5,0.8-0.7,1.1c-0.2-0.6-0.7-1.3-1.1-1.9C50.9,80.1,51.7,80.4,52.2,80.8 M52.4,80.3
				c-0.6-0.3-1.4-0.6-2-0.7c0.5-0.1,1.8-0.2,2.4-0.1C52.7,79.7,52.6,80,52.4,80.3 M57.7,77.3L53,80.6c0.8-1.5,1.6-3.2,2.1-5.3
				L57.7,77.3z M56.5,68.4c3.5-3.6,0.6-3.3,1.4-6.2l0.4-0.1c-0.1,0.2-0.1,0.7-0.1,0.7c0.2-0.2,0.3-0.4,0.6-0.7l0.6-0.1
				c-0.4,0.6-0.6,1.2-0.7,2l0.3,0c0.4-1.3,0.9-1.8,2-2.2c0.6-0.1,0.7,0,0.4,0.4c-0.5,0.7-0.7,1.5-0.7,2.2c0,0.8,0.3,1.3,0.1,1.5
				c-0.4,0.4-1.1,0.4-1.7,0.8c-0.7,0.5-0.4,1.4-0.2,3c0,0,1.6,0.6,1.9,3.1c0.4,2.4-2,3.9-3.6,1.1c-0.8-1.3-0.2-4,0.8-4.3
				c0-0.6,0-0.9,0-1.7c-1.7,2.2-2.3,4.2-1.8,5.7c0.5,1.4,0.8,1.3,1.8,3.4L55.1,75c0.3-1.8,0.6-4.5,0.6-6.7c-1.7-0.1-3.7-0.3-5.5-0.4
				l2.7-2c0.1,0.1,0.3,0,0.3,0L56.5,68.4z M57.6,65.6c0,0.5-0.5,1.6-1.6,2c-0.7-0.6-1.4-1.1-2.5-2l0-0.1L57,63
				C57,64.1,57.6,65.1,57.6,65.6 M56.9,59.1c-0.1-0.2-0.4-1-0.1-1.4c0.4-0.1,0.8,0.3,1.1,0.8c0.6-0.5,1.1-0.5,1.4,0
				c0.3,0.6-0.1,1.2-0.9,1c0.6,1.2,2.8,0.9,2.9-0.5c-1,0.4-1.2-0.1-1.3-0.5c0-0.5,0.5-0.9,1.2-0.7c0-0.5,0.1-0.9,0.5-1.2
				c0.3,0.1,0.6,0.7,0.6,1.2c0.6-0.2,1.2,0.1,1.2,0.5c0,0.5-0.3,1.2-1.3,0.7c0.1,1,0.7,1.3,1.4,1.4c0.9,0,1.3-0.3,1.5-0.6
				c-0.5,0.2-1.2-0.2-1.1-0.8c0.2-0.8,1.1-0.6,1.5-0.2c0.2-0.3,0.6-0.7,1.3-0.6c0.1,0.5-0.1,1-0.3,1.3c0.7,0.2,0.7,1,0.5,1.2
				c-0.5,0.4-1.1,0.1-1.3-0.3c-0.4,0.5-0.5,0.8-0.7,1.4c-2.2-0.4-4.8-0.1-7,0.2c0-0.7,0-1.1-0.3-1.7c-0.1,0.4-0.8,0.7-1.3,0.2
				C55.9,59.6,56.5,59.2,56.9,59.1 M59.2,53.5l5.2,4.1l-0.4,0.3c-0.2-0.4-0.5-0.7-1.1-0.7c-0.1-0.8-0.7-1.2-1.2-1.5
				c-0.3,0.1-0.9,0.7-0.9,1.4c-0.6,0-0.9,0.4-1.1,0.8c-0.5-0.5-1.1-0.4-1.5-0.2c-0.6-0.5-1.1-0.6-1.6-0.6c-0.3,0.6-0.3,1.1-0.2,1.8
				l-0.3,0.3l-2.3-1.8c0-0.1,0-0.2,0-0.2l5.2-3.7C58.9,53.5,59.1,53.6,59.2,53.5 M59.2,52.9c0,0-0.2-0.1-0.3,0l-2.1-1.7
				c0.9-1.6,3.7-4.1,4.6-4.6l3.1,2.4l0,0.1L59.2,52.9z M70.6,53.3c-0.1,0-0.2-0.1-0.3,0l-0.8-0.7l0.9-1.9c0.1-0.2,0.3-0.2,0.3,0
				l0.7,2L70.6,53.3z M79.2,51.8l-2.8-2.2v-0.1l1.8-1.2c0.9,0.1,1.7,0.1,3.1,0l0,0.9C80.3,50,79.6,50.9,79.2,51.8 M80.9,55.6
				c-0.1,1.9-0.5,7.5-0.5,7.4c-0.1,1.4-2.8,1.6-2.4-4.4c0.1-1.7,0.5-3.5,1.1-5c0.4,0.7,0.8,1,1.5,1.3C81,55,80.9,55.2,80.9,55.6
				 M85.1,59.1c-1,0.6-1.4,1-2.4,1.7L82.6,59l2.6-1.7C85.2,57.9,85.1,58.6,85.1,59.1 M86,60c0,0.5-0.5,1.7-1.2,1.7
				c0.2-0.5,0.4-1.4,0.5-2C85.6,59.9,85.8,59.9,86,60 M87.6,57.7c-1-0.3-1.1-1.7-0.6-2.2c0.8,0.3,1.4,0.3,2.4,0.1
				C89.6,56.8,89.1,58.1,87.6,57.7 M90.3,59.6c-0.5,0.4-2.2,0.6-2.2-1.2c1.6,0,1.7-1.6,1.7-1.6C90.7,56.9,91.8,58.4,90.3,59.6
				 M91.5,56.7c-1.1,0.3-1.4-0.8-1.6-1.3c0.9-0.3,1.7-0.7,2.2-1.4C92.8,54.8,92.6,56.4,91.5,56.7 M90.6,70c1.8-0.2,1.9,0.3,2.5,2.1
				l-1.6,0.5L90.6,70z M90.4,76.2l-0.2-2.9l1.1-0.1l1.1,3.1L90.4,76.2z M91.9,80.1l-0.3-3.3c0,0,0.5,0,0.9,0l1.2,3.2
				C93.7,80,93,80,91.9,80.1 M83.6,75.4l-0.4,3.3l-1.4-0.9c0,0,0-1.9,0.3-3.4C82.6,74.7,83.3,75.1,83.6,75.4 M82.7,70.8l0.8,0.7
				l-0.4,2.9c-0.4-0.2-0.5-0.3-0.8-0.6C82.4,72.5,82.7,70.8,82.7,70.8 M86.5,76.5c0.7,0.1,1.2,0.2,2,0.2l0,3.6
				c-1.4,0-2.2-0.4-2.2-0.4L86.5,76.5z M85.5,75.7l0.4-2.7c0,0,0.9,0.4,1.7,0.4l-0.2,2.7C86.9,76.1,86,75.9,85.5,75.7 M83.5,74.7
				l0.4-2.8c0,0,0.9,0.8,1.5,1c0,0.1-0.4,2.7-0.4,2.7C84.2,75.2,83.8,75,83.5,74.7 M84.1,75.6c0.5,0.3,1.3,0.6,1.9,0.7l-0.3,3.4
				c-1-0.3-1.9-0.9-1.9-0.9L84.1,75.6z M91.1,76.8l0.3,3.4c-1.1,0.2-2.2,0.2-2.2,0.2l0-3.6C89.7,76.7,90.4,76.7,91.1,76.8
				 M87.9,76.1l0.1-2.7c0,0,1,0.1,1.7,0l0.1,2.8C89.2,76.2,88.4,76.2,87.9,76.1 M90.3,70.7c0.1,0.3,0.5,1.5,0.8,2.1
				c-2.9,0.6-6.1,0.3-8.4-3l0.4-1.9C84.8,70.4,87.5,71.4,90.3,70.7 M84.8,66.7c0.3,0.4,0.4,0.5,0.8,0.8c-0.2,1.3-1,1.3-1.6,0.8
				c-0.6-0.4-0.6-1-0.5-1.7C83.7,66.9,84.5,66.9,84.8,66.7 M86.6,70.1c-1.2-0.3-0.7-1.7-0.7-2.3c0.6,0.4,1.3,0.7,2.1,0.8
				C88.1,69.4,88.1,70.4,86.6,70.1 M84.7,65.7c0.5,0,0.8-0.1,1-0.3c0.1,0.3,0.5,1.5,1.6,1.7c1,0.2,1.4-0.1,1.8-0.5l0.3,1.4
				c0,0-0.3,0.1-0.8,0.2c-0.9,0.1-2.7-0.4-3.8-1.9c-0.4,0.1-1.1,0.3-1.4,0.1l0.2-1C84,65.4,84.3,65.7,84.7,65.7 M82.8,63.2l-0.1-1.9
				l2.3-1.6C84.6,61.3,84,62.6,82.8,63.2 M85.8,64.4c0,0.7-1,1.3-1.9,0.4l0.5-1.8C84.5,63.8,85.1,64.3,85.8,64.4 M87.9,62.6
				c0,0.7-0.6,1.7-1.8,1.4c-1.3-0.3-1.4-1.2-1.4-1.8c0.6,0,1.1-0.3,1.5-0.9C86.2,62,86.9,62.6,87.9,62.6 M87.9,62.2
				c-1.6,0-1.4-1.7-1.4-2.1c0.7-0.1,1-0.3,1.4-0.8c0.2,0.6,0.8,1,1.4,1C89.2,60.8,89.5,62.2,87.9,62.2 M87.7,66.6
				c-1.1-0.2-1.5-1.1-1.4-2.1c0.5,0.1,1.3,0,1.6-0.6c0.1,0.6,0.6,0.8,1.1,0.9C89,65.2,89.2,66.7,87.7,66.6 M90.6,63.1
				c0.1,0.5-0.2,1-0.8,1.2c-1,0.2-1.4-0.2-1.5-0.6c-0.1-0.5,0.1-1.2,0.8-1.3C89.7,62.2,90.4,62.4,90.6,63.1 M90.7,62.2
				c-0.3,0-1.1-0.2-1-2c0.3,0,0.9-0.1,1.3-0.5C90.8,60.4,90.6,61.3,90.7,62.2 M91,68.5c0.3-0.1,0.7-0.2,1-0.4c0.1,0.3,0.2,0.7,0.3,1
				c-1.2,0.3-2.2,0.7-3.4,1.3c-0.1-0.4-0.3-1-0.4-1.4c0.6-0.1,1.2,0,1.9-0.3c-0.4-1.3-0.8-2.5-1-3.9c0.9-0.1,1.6,0.5,1.9,1.5
				C91.7,67.8,90.8,67.8,91,68.5 M85.3,82.6c-1.2-0.3-2.8-0.3-3.7-0.4c0,0,0-2.1,0.1-3.7c1,0.6,3.5,2,5.7,2.4
				c1.9,0.3,4.5-0.5,6.4-0.2l0.8,2.2C91.5,82.2,89,83.5,85.3,82.6 M87.6,85.1c-1.6,0-2.3-1.7-5.9,0.2l0-2.5c3.2-0.4,4.3,0.7,7,0.6
				c1.8-0.1,3.9-0.7,6.2,0.1l-0.1,1.3C89.6,84,89.5,85.2,87.6,85.1 M92.9,88.5l-0.7,0c0.2-1.1,0.3-2.3,0.1-3.4
				c0.4,0.1,0.8,0.2,1.2,0.6C93.4,86.5,93.6,87.6,92.9,88.5 M90.7,85.1c0.2,0,0.7,0,1,0.1c0.2,0.7,0.1,2.8,0.1,3.5
				c-0.5,0.1-0.9,0.1-0.9,0.1C90.8,87.7,90.6,86.1,90.7,85.1 M90.4,89.9l-0.8,0l0-1c0.9,0.6,2.3,0.1,3.4,0.3l-0.1,1.3
				C92,90.7,91.5,89.8,90.4,89.9 M90.4,88.6c-0.4-0.1-0.6-0.3-0.9-0.4c-0.1-0.8-0.4-1.8-0.2-2.7c0.4-0.2,0.4-0.3,0.9-0.4
				C90.2,86.1,90.1,87.7,90.4,88.6 M87,99.6c0.6-1.3,0.3-1.8-0.1-9.4c0-0.3,0-0.9,0.1-1.5c0.4-0.8,0.5-1.8,0.5-2.4l1.3-0.4
				c-0.1,1.7,0.3,3.1,0.4,4.4c-0.2,0.7-0.3,1.4-0.3,1.9c0,1.8,1.3,2.5,0.8,6.3c-0.3,2.3,1.9,1.3,2.6,2.5c0.1,0.2,0.5,0.4,0.7,0.5
				C88.9,101.6,89,100,87,99.6 M86.8,100.7c-0.1-0.4,0.1-0.7,0.6-0.4c0.5,0.2,1.2,0.8,1.2,0.8c-0.3,0.4-0.5,0.6-1,0.9
				C87.3,101.7,86.9,101,86.8,100.7 M85.7,100.1c0.2-0.8-0.3-1.3,0.1-3.1c0.2-0.7,0.4-1.6,0.9-2.4c0.2,5.3-0.3,4.1-0.5,5.3
				c-0.1,0.7,0.4,1.3,0.8,2c-1.2,0-2.1-0.5-2.9-0.8C84.6,100.7,85.4,100.7,85.7,100.1 M79.8,101.3c1.3-0.7,1.2-1.1,1.9-1.7
				c0.6-0.5,1.5-0.9,1.6-1.6c0.3-1.4-0.5-4.4-0.4-6.4c0-1.8,0.8-1.8,2.2-1.3c1.6,0.6,1.5,2.5,0.6,4.3c-0.4,0.9-0.7,2.3-0.7,3.2
				c0,0.8,0.7,2-0.6,2.5c-2.3,0.6-1.6,1.9-4.3,2C79,102.3,78.6,101.8,79.8,101.3 M83.5,87.9c-0.3-0.2-0.6-0.5-0.8-0.7
				c-0.1-0.3-0.2-1.3-0.2-1.6c0.4-0.4,0.7-0.5,1.2-0.6C83.3,86.1,83.3,86.6,83.5,87.9 M85.3,84.9c0.5,0.1,1,0.5,1.4,1
				c0.1,0.7,0,1.4-0.3,2.2l-1.1,0.2C85.7,87.3,85.7,86.2,85.3,84.9 M84.1,85l0.8-0.1c0.2,1.3,0.3,2.4,0.1,3.5c-0.3,0-0.8-0.1-1-0.3
				C83.8,87.2,83.9,86.1,84.1,85 M86.3,89l0,0.7c-1.3,0.2-2.3,0-3.4-0.3l-0.2-1.2C83.7,88.8,85,89.1,86.3,89 M81.4,97
				c0.3-0.6,0.5-1.5,0.5-2.4c0-2-0.2-8.5-0.2-8.5l0.4,0.2c0,0,0.5,4,0.5,3.9c-0.2,2.9,0.1,3.9,0.4,5.7c0.1,1.3,0.3,2-0.5,2.6
				c-2.4,1.7-1.3,1.7-3.2,2.6L81.4,97z M80.9,96.4c0.1,0.5-2.1,4-2.8,5.2c-0.3-0.2-0.7-0.7-1.2-1.5c-0.1-0.3-0.3-0.4-0.7-0.4
				c-0.5,0-0.8,0-1.1-0.1C77,98.7,78.8,97.9,80.9,96.4 M78.9,93.4L78.7,97l-4.8,0L78.9,93.4z M69.4,86.3l3.9,2.9l0,0.1L70,91.7
				C69.9,90.1,69.6,88.1,69.4,86.3 M69.4,92.7l0.1,1.5c-4-0.1-7.1,1.5-11.3,0.6l0-2.9C64.8,94.8,65.6,92.4,69.4,92.7 M57.2,84.5
				l-4.3-3.4l5.1-3.5C58.9,80.2,57.9,82.6,57.2,84.5 M60.2,77.4c0.2,2-1.1,1.7-1.1,1.7c-0.1-0.8-0.5-2.2-0.8-3
				C58.8,76.4,59.9,77,60.2,77.4 M62.5,76.9l-0.4,0.9l-2.8-1.7c0.7-0.1,1-0.3,1.3-0.7L62.5,76.9z M63.6,73.6l-0.4,1.1l-2-1.5
				c0-0.7-0.3-1.6-0.8-2.3L63.6,73.6z M61.7,67.7c0.8,0.4,1.4,0.5,2.1,0.4c0.1,2,1.2,2.9,2.1,3.9c-0.6,0.6-1.7,0.7-2.5,0.5
				c-1.4-0.4-2.8-2.3-4.3-3.1c-0.3-1-0.6-2.2,1.3-2.7C60.6,67,61,67.4,61.7,67.7 M63.2,64c-0.1,1-1.2,2.6-1.2,2.6
				c0.3,0,1.2-0.7,1.5-1l0.8,0c0,0.1,0.3,0.5-0.4,0.6c1.2,1.3-0.4,1.5-1.9,0.9c-0.3-0.1-0.5-0.3-0.6-0.7c-0.2-0.5-0.3-1.4-0.2-1.7
				C61.6,63.7,62.5,64.6,63.2,64 M63.1,63.6c-0.3,0.3-0.9,0.4-1.5,0C61.9,63.1,63,62.9,63.1,63.6 M64.6,62.8
				c-0.2,0.1-0.2,0.4-0.2,0.6c0,0.5,0.1,1.2,0.1,1.7l-1-0.1c-0.2-0.2,0.2-0.1,0.2-0.8c0-0.2,0-0.5,0-0.9c0-0.3,0-0.4-0.5-0.7
				c-0.4-0.1-1.1-0.1-1.6-0.1c0-0.4,0.3-0.6,0.8-0.7c0.5-0.1,1.4-0.1,1.7,0.1c0.4,0.2,0.5,0.2,0.5,0.5
				C64.7,62.5,64.7,62.7,64.6,62.8 M65.1,66.9l4,3.1l0,0.2l-2.4,1.7c-1.1-0.9-2.2-2.1-2.2-3.7C64.8,67.9,65.4,67.8,65.1,66.9
				 M69.8,62.1c0,0,0.1,0,0.3,0l3.8,3l0,1.6l-4.3,3c-0.1-0.1-0.3-0.1-0.4,0L65,66.4c0-0.2,0-0.8,0-0.8L69.8,62.1z M67.4,60l2.1,1.7
				l0,0.1L65,65.1c-0.1-1.7,0.3-3,0.8-4.1C66.5,61.6,67.7,61.2,67.4,60 M74,89.3l5.3-3.7l-0.4,7.4L74,89.3L74,89.3z M73.7,82.1
				c0,0,0.2,0.1,0.4,0l2,1.5c-0.1,1.2,0.8,2,2.1,1.5l0.6,0.4L73.8,89c0,0-0.1-0.1-0.3,0l-4-3l-0.1-0.8L73.7,82.1z M69.2,83.7
				l-0.3-0.2l-0.2-2l2.4-1.6l2.4,1.8v0.1l-4.2,3L69.2,83.7z M69.1,89.8l0.3,2.4c0,0-1.2-0.1-2.1,0l-0.3-2.8
				C67.6,89.5,68.3,89.6,69.1,89.8 M65.4,89l-0.2-2.2l1.9,0l0.2,2.2C66.7,88.9,66.1,89,65.4,89 M66.4,89.5l0.3,2.9
				c0,0-1.2,0.3-2.2,0.3l-0.2-3.1C64.8,89.6,65.9,89.5,66.4,89.5 M62.8,89.1l-0.2-2.5c0.7,0.1,2,0.1,2,0.1l0.1,2.3
				C64.1,89.1,63.5,89.1,62.8,89.1 M63.7,89.6l0.2,3.1c-1,0-2-0.2-2-0.2l-0.1-2.9C62.4,89.7,63,89.7,63.7,89.6 M60.4,89l0-2.9
				c0.7,0.3,1.8,0.5,1.8,0.5l0.1,2.6C61.7,89.1,61.1,89.1,60.4,89 M59.6,89.5c0.5,0.1,1.2,0.2,1.7,0.2l0.1,2.9c0,0-1.1-0.3-1.7-0.6
				L59.6,89.5z M69,89.2c-0.4-0.1-0.6-0.2-1.1-0.2l-0.3-2.3l1.1-0.1L69,89.2z M68.5,84.1c0.1,0.7,0.2,1.4,0.2,2.1
				c-4.9,0-7.8,0-10.4-2l0.4-1.6C61.2,84.4,64.5,84.5,68.5,84.1 M61.2,81.5c0.5,1.2,1.8,1.4,2.7,1.5c0.7,0,1.7-0.3,2.2-1
				c0.4,0.5,1.2,0.6,1.9,0.3l0.2,1.4c-0.4,0-0.8-0.1-1.3-0.3l-0.3-0.2l-0.2,0.1c-1.5,1-3.8,0.7-4.8-0.5c0-0.1-0.1-0.1-0.1-0.2
				c0,0-0.1,0.1-0.2,0.1c-0.7,0.2-1.8,0.1-2.4-0.5l0.2-0.9C59.4,81.6,60.5,82.3,61.2,81.5 M62.8,78.8c0,1-0.8,1.2-1.5,1
				c-0.6-0.2-0.9-0.8-0.6-2.2C61.1,78,62.3,78.6,62.8,78.8 M62.7,76.4L61,75l0.2-1.2l1.9,1.4L62.7,76.4z M64,81
				c0.6,0.1,1.5,0.1,1.8-0.8c0.1,0.7,0.2,1.9-0.9,2.1C63.8,82.4,63.9,81.4,64,81 M63.6,80.8c0,0.9-0.3,1.5-1.1,1.3
				c-0.7-0.2-1-0.8-0.8-1.6c0.7,0.1,0.8-0.1,1.1-0.4C62.8,80,63,80.6,63.6,80.8 M63.3,79.1c0.5,0.3,1.2,0.6,2,0.9
				C65.2,81.1,62.7,80.5,63.3,79.1 M67,81.9c-0.9-0.1-0.8-1-0.8-1.6c0.4,0.2,1.3,0.3,1.8,0.2C68.1,81.3,67.9,82.1,67,81.9
				 M66.9,75.1c-0.5,0.6-0.8,0.2-0.9-0.1c-0.2-0.9-0.2-1.8,0.3-2.6C67.3,73.5,67.9,73.7,66.9,75.1 M70.8,71.3
				c-1,0.7-1.7,1.4-2.6,2.3c-0.3-0.6-0.9-1.1-1.3-1.5l2.4-1.7c0,0,0.2,0.1,0.3,0L70.8,71.3z M73.9,68.1c-1.2,1.5-1.3,2-2.9,3l-1.2-1
				l0-0.1l4.1-2.9L73.9,68.1z M77.5,77.1c0,0,0.2-1.6,0.2-2.4c-0.3-0.2-1.2-0.1-1.4,0.6c-0.2-0.2-0.6-0.2-0.8,0.2
				c-0.3-0.2-0.7-0.2-0.8,0.2c-0.1,0-0.2-0.1-0.3-0.1c0-0.3,0-1.3,0-1.7c0.8-0.1,1.9-0.5,1.3-1.4c0.6-0.3,0.5-0.9,0.2-1
				c0.4-0.3,0.4-0.5,0.4-0.9c0.1-0.3,0.1-0.6,0.1-1c0-0.7-0.1-0.7-0.4-0.8c0.4-1.4-0.1-2-0.8-1C75,68.1,74.4,69,74.4,69l0-3.4l4.1,0
				l-0.5,11.5L77.5,77.1z M71,76.2c0.5-1.1,0.9-2.4,2.9-2.3c0,0.5,0,1.3,0,1.8C73.4,76.2,72.1,76.1,71,76.2 M73.4,76.6
				c0.2,0,0.4,0,0.5,0.3c0.1,0.3,0.4,0.3,0.4,0c0-0.3,0-0.4-0.1-0.5c-0.1-0.4,0.3-0.4,0.4-0.2c0.1,0.3,0.1,0.4,0.1,0.6
				c0,0.3,0.3,0.3,0.3,0c0-0.3-0.1-0.5-0.1-0.7c-0.1-0.4,0.4-0.4,0.4-0.1c0,0.2,0.1,0.6,0.1,0.9c0,0.2,0.3,0.3,0.3,0
				c0-0.3-0.1-0.6-0.1-0.9c0-0.4,0.5-0.4,0.5,0c0,0.3,0,0.7,0,0.9c0,0.3,0.3,0.3,0.3,0c0-0.3,0-0.7,0.1-1.2c0.1-0.3,0.2-0.6,0.6-0.6
				c-0.1,1.1-0.2,1.9-0.3,2.8c-0.1,0.8-0.6,0.7-1.4,0.6c-0.7-0.1-2.8-0.4-3.5-1.1l0,0.9c-0.9,0.7-2.9,2-3.3,2.2l1.9-3.6
				C71.7,76.8,72.3,76.7,73.4,76.6 M77.6,79l-3.6,2.5c0,0-0.2-0.1-0.3,0l-2.4-1.8l1.1-0.8l0-0.6c0.8,0.4,1.7,0.6,2.8,0.8
				c1.9,0.3,2-0.3,2.1-1.3l0.3,0L77.6,79z M76.2,83.2l-1.9-1.4l0-0.1l3.4-2.4c0,0,0,1.6-0.1,2.5c0,0.3-0.1,0.3-0.3,0.4
				C76.8,82.3,76.2,82.8,76.2,83.2 M77.3,82.7c0.7-0.1,1.1,0.5,1.1,0.9c0,0.6-0.3,1-0.9,1c-0.5,0.1-1-0.2-1-0.9
				C76.5,83.2,76.9,82.7,77.3,82.7 M73.6,70.5c0.1,0.1,0.8-0.5,0.9-0.7c0.3-0.6,0.5-1.1,0.9-1.7c0.2-0.3,0.4-0.2,0.4,0.2
				c-0.1,0.3-0.7,1.7-0.9,2c-0.2,0.2-0.4,0.3-0.7,0.5l0.3,0.3l0.8-0.7l0.4-1.1c0.1-0.2,0.4-0.4,0.4,0.1c0,0.5-0.1,1-0.2,1.3
				c0,0-0.4,0.4-0.7,0.6c-0.2,0.2-0.3,0.2-0.3,0.3c0.1,0.2,0.2,0,0.4,0c0.3-0.1,0.7,0.3,0,0.6c-0.3,0.1-0.4,0.1-0.4,0.2
				c0,0.2,0.2,0.1,0.3,0.1c0.3,0,0.4,0.4-0.1,0.6c-1.1,0.2-2.5-0.1-3.2,0.2c-1.1,0.4-1.6-0.5-1.8-0.9c0.4-0.5,1-0.9,1.5-1.2
				c1-0.5,1.7-1.6,2.1-2.4C74.3,69.4,73.5,70.4,73.6,70.5 M63.8,73c0.7,0.1,1.4,0,1.9-0.2c-0.1,0.3-0.3,1.1-0.2,1.9L63.8,73z
				 M64,74.2c0.5,0.5,1.1,1,1.6,1.4c0.7,0.6,1.2,0.4,1.7-0.1c0,0,1.5-1.8,2.5-2.7c0,0,0.9,1.1,1.3,1.5c-0.8,1.9-1.3,3-2.2,4.4
				c-1,1.7-2.4,1-3,0.8c-1.1-0.4-2.3-0.9-3.2-1.5L64,74.2z M59.2,79.6c0.3,0,0.7-0.1,1.1-0.4c0.1,0.5,0.4,1,0.9,1.1
				c0.1,1-1,1.6-2,0.5C59.2,80.4,59.2,80.1,59.2,79.6 M59.2,89.4l0,2.3l-1-0.4l0-2.3L59.2,89.4z M58.3,88.4c0-0.8,0.2-3.3,0.2-3.3
				c0.6,0.4,1.5,0.8,1.5,0.8l0,3.1C59.4,88.9,58.8,88.7,58.3,88.4 M79.3,85.5l-0.8-0.6c1.2-1,0.5-2.2,0-2.5
				c-0.3-0.1-0.4-0.1-0.4-0.5c0-0.3,0.2-2.7,0.2-4.1l0.5,0l0.5-12.8l-2.5,0l1.6-1.1c0.6,0.5,1.1,0.5,2.1,0.5L79.3,85.5z M76,57.7
				l1.7-1.2c0,0-0.2,1.1-0.3,2.4L76,57.7L76,57.7z M77.3,59.2c0,1.8,0.1,3.6,0.8,4.5l-1.9,1.3l-1.9,0l-4-3.2c0,0,0-0.1,0-0.1
				l5.2-3.7c0.1,0.1,0.3,0,0.3,0L77.3,59.2z M66.9,57.4c-0.6,0-1.1,0.1-1.6,0.4l-0.4-0.2l5.3-3.7c0,0,0.2,0.1,0.4,0l4.7,3.7l0,0.2
				l-5.2,3.7c-0.2-0.1-0.3,0-0.3,0l-2.7-2.1C67.2,58.7,67.2,58,66.9,57.4 M63.3,97.6c0,1.2-0.1,2.4-0.5,3.3l-0.8-0.1
				c0.2-1.1,0.3-2.2,0.4-3.2L63.3,97.6z M58.3,97.6l0-2.2c5.6,0.6,6.8-0.7,11.3-0.6l0.1,1.4C65.9,95.6,66,97.2,58.3,97.6 M63.7,99
				l0.1-1.4c1.1-0.2,1.9-0.6,2.5,0.3C65.6,98.4,64.6,98.8,63.7,99 M66,100.5c-0.5,0.8-1.8,0.6-2.7,0.5l0.2-0.7
				C64.5,100.5,65.2,100.6,66,100.5 M63.6,99.9l0.1-0.3c1-0.3,1.9-0.5,2.7-1.2c0.3,0.3,0.2,1.2,0,1.5
				C65.5,100.3,64.4,100.1,63.6,99.9 M67.1,98.1c-0.1-1.4,0.8-1.6,2.6-1.1c0.5,2.6-1.7,2.6-2.5,2.4C67.3,98.8,67.1,98.6,67.1,98.1
				 M73.6,97.1l-3.1,0l-0.2-2.2L73.6,97.1z M70.3,94.4c0-0.7-0.2-1.7-0.2-2.4l3.4-2.4c0,0,0.1,0.1,0.3,0l4.8,3.6l-5,3.5L70.3,94.4z
				 M92,97.6c0.4,0.9,1.3,1,2.4,1.9c0.4,0.4,0.7,1,1.1,1.5c0.4,0.4-0.1,0.8-0.8,0.5c-0.6-0.4-0.9-0.1-1.5-0.4
				c-0.5-0.3-1-0.9-1.5-1.3c-0.8-0.5-2,0.4-1.8-2.1c0-0.4,0.4-1.9-0.5-4.2c-0.3-1-0.2-2.2,0.3-3.1c0.9-0.1,2,0.3,2.5,1
				C93.4,93.2,91.4,96,92,97.6 M97.4,89.4l0.1,7.7c-1-1.4-1.5-2.7-1.4-4.8C96.3,91.5,96.9,90.2,97.4,89.4 M96.7,89.2l-1.4,3.6
				c-0.5,1.1-0.7,2.1-0.7,3.3l0.6-0.1c-0.1-0.5,0-1.9,0.4-2.7c0.1,1.8,1,3.5,2,4.7c0,0-2-0.7-2.7-1c-0.9-0.4-1-0.6-0.9-1.8l1.5-10.4
				C96.6,87.1,97.1,88.2,96.7,89.2 M98.1,71.1l-0.5-0.2c-0.2-1-0.5-2.4-0.5-2.4l-0.4-2.5l-0.6,0l0.3,2.2c0.1,0.7-0.5,0.8-0.8,0.8
				c-0.1-1.3-0.2-3.1-0.2-3.1l-0.6-0.5l0.3,3.9c0.1,1.7,0.1,3.1-1.3,3.5l-0.7-2.3c1.4-0.4,1.4-1.7,1.2-3.5l-0.2-2l-0.6-0.6l0.3,2.4
				c0.1,1.1,0.4,2.8-0.8,3.1l-0.5-1.8c0.7-0.3,0.8-0.8,0.6-2.3L93,64.3l-0.6-0.7l0.3,2.4c0.1,1.4,0.1,1.4-0.3,1.7
				c-0.9-2.7-1.1-4.7-1.1-4.7c-0.2-3.4,0.4-4,1.3-4c0.5,0,1,0.5,0.9,1c-0.1,0.9-1.2,0.7-1.2,0.7s-0.1,1.1,0.5,1.9
				c0.8,1.1,2.5,1.7,4.1,1.7c0.7-2.1,0.9-2.9,1.1-3.5C98.1,65.1,98.1,71.1,98.1,71.1 M96.2,74.6l-1.4,0.3c-0.2-0.7-0.4-1.2-0.4-1.2
				C94.8,73.9,95.9,74.5,96.2,74.6 M95.8,69.5c0,0,0.6,0.1,1-0.4c0,0,0.3,1.2,0.4,2.1c0.1,0.9-0.2,1.9-0.5,3.3l-0.7-1.4l-0.4,0.2
				c0,0,0.4,0.8,0.5,1l-1.8-0.9C95.6,72.7,95.9,71.6,95.8,69.5 M95.9,78c-0.2-0.5-0.6-1.7-1-2.7l2.9-0.6v-0.4l-0.7,0.1
				c0.2-0.8,0.4-1.7,0.7-2.8l0.3,0.1c0,1,0,3.7,0,3.7c-0.3,0-0.7,0.1-0.7,0.4c0,0.3,0.3,0.4,0.7,0.3C98.1,77.3,97.5,78,95.9,78
				 M98.1,84.2c-0.5-1.3-0.8-2.1-1.2-3.4l1.3-1.7C98.3,79.6,98.3,82.7,98.1,84.2 M98.2,78.2l-1.5,1.9c-0.2-0.6-0.4-1-0.6-1.5
				c0.8,0,1.5-0.1,2.1-1L98.2,78.2z M97.6,59.8c-0.4,1.2-0.8,2.8-1.2,3.7c-1.3,0.1-3.6-0.8-3.6-2.5c1,0.1,1.3-0.8,1.2-1.5
				c-0.2-1-1.1-1.4-2.1-1c1.5-1.6,3-2.9,5.4-4.2C95.8,57.4,98.2,57.5,97.6,59.8 M93,55c0.2,0.3,0.6,0.6,0.9,0.9
				c-0.8,0.6-1.7,1.5-2.3,2.2c0-0.3-0.1-0.5-0.2-0.8C92.4,57,93.1,56.4,93,55 M85.6,57.2c0,0,0.4-0.1,0.6-0.3
				c0.2,0.8,0.8,1.3,1.4,1.4c0,1.2-1.1,1.6-2.1,1C85.6,58.7,85.7,57.9,85.6,57.2 M81.3,63.7l0.2-4l0.6-0.4c0.1,1.3,0.2,4.1,0.2,4.1
				C81.9,63.5,81.7,63.6,81.3,63.7 M83.5,63.6c-0.2,0.6-0.5,2.3-0.7,2.9L82.4,67l-0.5,2.9c0,0,0.2,0.3,0.2,0.5
				c-1.9,8.6-1.1,18.3-1,23.1c0,2.2-0.3,2.1-1.5,2.9l1.6-32C81.9,64.3,82.8,64.1,83.5,63.6 M73.1,51.5c0.4-0.9,1.2-2.1,1.9-2.6
				l0.8,0.7l0,0.1L73.1,51.5z M75.9,49.9c0.1,0,0.2,0,0.3,0l2.8,2.2c-0.5,1.2-0.9,2-1.3,3.9l-1.9,1.4c-0.1-0.1-0.3,0-0.3,0l-4.7-3.7
				l0-0.1l0.7-0.5l0.3,0.6c0.1,0.2,0.2,0.3,0.4,0c0.3-0.5,0.4-0.9,0.8-1.6L75.9,49.9z M65.1,49.2L65.1,49.2l1.8-1.4
				c0.5,1.2,1.1,2.9,1.4,3.9L65.1,49.2z M68.3,52.1c0,0,0.3,0.8,0.4,1.2c0.1,0.3,0.2,0.3,0.3,0l0.2-0.4c0,0,0.8,0.6,0.8,0.6l0,0.1
				l-5.4,3.8l-5.2-4.2c0-0.1,0-0.1,0-0.1l5.2-3.7c0,0,0.2,0,0.3,0L68.3,52.1z M47.4,80.4c0-0.9,0.4-1.8,1.3-2.8l0.4,1.6
				c-0.2,0-0.7,0.1-0.7,0.1l0,0.9c1-1.3,2.6,0.5,2.4,2.5c-0.4,0.5-1.1,1.3-1.6,1.8c-0.2-0.2-0.8-1.3-1-1.6c0.7,0,1.4-0.2,1.2-1.4
				c-0.5,0.8-2.1,1.3-2.1-0.2c0.2,0,0.7,0.1,0.7-0.4C48,80.4,47.7,80.4,47.4,80.4 M50,76.4c-0.4-0.1-0.7-0.3-0.9-1
				c0-0.3-0.1-0.5-0.1-0.9c0.3-0.1,0.7-0.2,1-0.3L50,76.4z M51.8,77.9c-0.5,0-1.3,0-1.4-1.8c0-0.6-0.1-1.2-0.1-2.1
				c0.3-0.1,0.6-0.3,0.9-0.4C51.4,74.9,51.3,76.8,51.8,77.9 M52.1,70.6c0-0.4,0.4-0.7,0.8-0.6c0.7,0.1,0.7,0.8,0.7,1.5
				c0,0.6-0.1,1.3,0,2.5c-0.5,0-0.7-0.2-0.8-1l0-1.1l-0.4,0.3c0,1.3,0.1,2.6,0.4,3.7c-1.3,0-1.1-1.7-1.1-3.1c-0.9,0.6-2,1.1-3,1.4
				l-0.2-0.7c1.5-0.4,2.8-1.1,4-2.2C52.2,71.1,52.1,70.9,52.1,70.6 M45.8,68.9c0.4,0.2,0.7,0.6,1,0.9c0.2-0.1,0.4-0.3,0.7-0.1
				c0.9,0.6,0.6,2.1-0.2,2.1C46.9,71.8,46.2,70.1,45.8,68.9 M45.5,74.4c0,0.9-0.3,1.7-1.3,1.8c0.1-0.5,0.3-1.3,0.3-2.1
				C44.8,74.1,45.2,74.2,45.5,74.4 M47.1,86.1c0,0-1.3-0.9-1.7-1.5c0.5-0.4,1.1-1,1.4-1.6C46.8,83.9,46.9,85.3,47.1,86.1 M47,78.2
				c-0.6-0.3-1.1-1.6-1.1-2.2c0-0.5,0.1-1.4,0.5-2.1c-0.8,0.2-1.4-0.2-2.1-0.5c-0.3,1.8-0.3,4-1.8,4c0.5-1,0.8-2.4,1-4.3l-0.4-0.3
				c-0.1,0.7-0.2,1.6-0.4,2.4c-0.1,0.4-0.6,0.5-0.9,0.4c0.4-1,0.5-2.3,0.5-3.7L42,71.6c-0.1,0.5-0.2,0.9-0.7,1.1
				c0.2-0.6,0.1-1.8,0.1-2.8c0-0.7,0.4-0.9,0.8-0.9c0.4,0,0.7,0.4,0.7,0.8c0,0.4-0.2,0.7-0.8,0.8c1.1,1.6,2.8,2.5,4.6,2.7
				c0.2-0.5,0.1-0.5,0.2-1.1l1,0c-0.1,1.8,0.6,1.7,0.8,3.3C48.8,76.9,47.6,78.6,47,78.2 M58,103.7l4,0c-0.8,0.2-0.8,0.7-0.9,1.5
				c-0.2,0-1.1,0.1-1.4,0.5c-0.1-0.3-0.4-0.6-1.1-0.5C58.6,104.5,58.4,103.8,58,103.7 M66.2,105c0,0-0.7,0-1.2,0.6
				c-0.2-0.3-0.5-0.5-1.1-0.5c0-0.9-0.4-1.2-0.9-1.4l3.9,0C66.2,103.9,66.2,105,66.2,105 M74.7,108.1c0.7,0,0.9-0.1,1.2-0.5
				c0.2,0.5,0.7,0.7,1.2,0.6c0,0.6,0.3,1.3,1.1,1.6l-4.3,0C74.7,109.5,74.8,108.7,74.7,108.1 M72,107.9c-0.5,0-1.4-0.1-1.4-1.2
				c-0.1-1.1,0.9-1.2,1.4-1.3c0-0.4-0.2-1.6,1-1.6c1.2,0,1.1,1.2,1.2,1.6c0.4,0,1.4,0,1.5,1c0.2,1.6-1,1.2-1.4,1.2
				c0,0.6,0.2,1.8-0.9,1.8C72.1,109.6,72,108.2,72,107.9 M69.2,105.1c0-0.9-0.3-1.2-0.6-1.5l3.6,0c-0.6,0.2-0.7,0.8-0.7,1.4
				c-0.5,0-0.9,0.3-1.2,0.6C70,105.3,69.8,105.1,69.2,105.1 M69.2,108.2c0.7,0,1-0.2,1.2-0.6c0.2,0.4,0.7,0.7,1.3,0.7
				c0,0.8,0.2,1.3,0.9,1.6l-4.2,0C69,109.6,69.3,108.8,69.2,108.2 M77.1,105c-0.6,0-0.9,0.3-1.3,0.6c-0.3-0.4-0.6-0.5-1.2-0.5
				c0-0.7-0.2-1-0.6-1.5l3.7,0C77.3,103.9,77.1,104.3,77.1,105 M85.2,108c0.4,0,0.7-0.2,0.9-0.5c0.3,0.4,0.5,0.6,1,0.6
				c0,0.7,0.3,1.4,1,1.7l-3.8,0C85,109.5,85.2,108.7,85.2,108 M87.2,105c-0.4,0-0.9,0.2-1.1,0.5c-0.4-0.4-0.6-0.5-1.1-0.5
				c0-0.7-0.2-1-0.6-1.4l3.2,0C87.4,103.9,87.2,104.5,87.2,105 M81,105.4c-0.3-0.3-0.6-0.4-1-0.3c0-0.8-0.2-1.1-0.7-1.5l3.6,0
				c-0.5,0.3-0.7,0.8-0.7,1.4C81.8,105,81.4,105,81,105.4 M82.6,105.5c0-0.4-0.1-1.6,0.9-1.6c1.1-0.1,1,1.3,1,1.5c0.3,0,1.4,0,1.4,1
				c0,1.2-1.3,1-1.3,1c0,0.5,0.2,2-1,1.9c-1.1-0.2-0.9-1.2-1-1.7c-0.5,0-1.3,0.1-1.4-1.2C81.2,105.4,82.3,105.5,82.6,105.5
				 M88.7,109.3c-1.2,0-1.1-1.4-1.2-1.8c-0.3,0-1.1,0.1-1.1-1c-0.1-1.1,0.9-1,1.3-1.1c0-0.5-0.2-1.5,0.9-1.6c1.1-0.1,1,1.2,1.1,1.6
				c0.5,0,1.3-0.1,1.3,1.1c0,1.1-1,1.1-1.3,1.1C89.7,108.1,89.9,109.3,88.7,109.3 M92.5,104.8c-0.6,0-1,0.3-1.3,0.7
				c-0.2-0.2-0.4-0.5-1-0.5c0-0.7-0.3-1.2-0.7-1.5l3.6,0C92.6,103.8,92.5,104.4,92.5,104.8 M98.3,103.6c-0.4,0.4-0.5,0.8-0.5,1.2
				c-0.5,0-1,0.1-1.4,0.7c-0.3-0.5-0.5-0.6-1.1-0.6c0-0.8-0.3-1.1-0.6-1.4L98.3,103.6z M59.9,103.1c0.1-1.3-1.4-1.2-1.6-2.1
				c5.2,0.3,7.6,2,8.8-0.9c1.4,0.3,3.4-0.2,3.5-2.2l6.6-0.1c0,0-2.1,1.1-3.4,1.9c0.9,0.9,1.9,0.4,2.5,0.9c0.5,0.4,0.6,1.3,2,1.9
				c3.1,1.1,3.9-0.3,5.1-0.9c0.5,0.1,2.1,1,4.1,1.1l1.5-1.2c1.5,0.5,2.8,0.7,5.1,0.4c1.2,0.6,2.8,0.3,1.9-1.3l3.1,2.4L59.9,103.1z
				 M108.9,84.4c-0.1,0.4-0.3,0.8-0.5,1.2c-0.6-0.2-0.1-0.4-0.1-1.1c-0.2-2.1-2.7-3.3-0.3-4.9C109.1,81.5,107.6,82.6,108.9,84.4
				 M111.6,76.7c0,0,2,2.8-0.6,4C110,80.1,109.4,78.1,111.6,76.7 M111,72.3c0-0.3,0.2-0.7,0.4-0.7s0.3,0.3,0.3,0.6
				c0,0.3-0.2,0.6-0.4,0.6C111.2,72.9,111,72.7,111,72.3 M111.3,76.2c-1.2,0.9-1.8,1.5-1.8,2.7c0,1.9,1.6,2.2,0.7,2.9
				c-0.6,0.3-0.8-0.5-1.4-0.6c0.1-1-0.9-2-0.7-3.3l0.5,0c-0.2-1.1-0.4-2.8,0.1-3.1l0.4,0.6c1.4-0.9,1.4-2.5,1.4-2.5l0.2,0.3
				C110.8,74.2,110.9,75.2,111.3,76.2 M81.9,50.8c0.3,0.3,0.4-0.5,0.6-0.2c0.4,0.5-0.8,0.9-0.5,1.2c0.2,0.1,0.4-0.4,0.6-0.1
				c0.3,0.4-0.4,0.6-0.3,0.9c0.2,0.4,0.4-0.3,0.6,0.1c0.2,0.4-0.6,1.2-1.2,1.6c-0.9,0.5-2.4,0-1.8-2.2c0.4-1.1,1.1-1.9,1.9-2.5
				c0.4-0.3,0.9,0,0.5,0.4C82,50.3,81.7,50.5,81.9,50.8 M69,42.8c-0.2,0.1-1.3-0.9-1.7-1.5c0.5-0.1,0.9-0.3,1.3-0.4
				C68,41.5,69.3,42.5,69,42.8 M99.2,109.2c-1.1,0-1-1.2-1-1.7c-0.5,0-1.4,0-1.4-1.2c0-1.2,1.1-1.2,1.5-1.2c0-0.3,0-1.4,0.9-1.5
				c1,0,0.9,1.1,1,1.5c0,0,1.3-0.1,1.4,1c0.1,1.1-0.9,1.2-1.3,1.2C100.2,108.1,100.2,109.3,99.2,109.2 M102.1,103.6
				c-0.4,0.3-0.8,0.9-0.8,1.4c-0.2-0.1-0.4-0.2-0.7-0.2c0-0.5-0.1-1.1-0.6-1.3l1,0l1.1-1.3C102,102.6,102,103.2,102.1,103.6
				 M106,97.9l0.1,3.8c-0.4-0.4-1-0.4-1.6,0c-0.1-0.4-0.7-0.9-1.4-0.6L106,97.9z M100.8,102.9c0,0-1.2-3.1-1.3-3.4
				c-0.3-0.7-0.4-0.9-1.3-1.2v-0.6l7.3,0L100.8,102.9z M114.1,62.3l-5.5-4.1l0-0.1l2.3-1.7C112,58.2,113.2,60.4,114.1,62.3
				 M105.9,49.8c-6.4-6.3-14.5-10.3-23.3-11.3c0.3-1.2,0.8-2.7,1.2-4c-0.3-1.4-0.7-2.7-1-4.1l-0.3,0c-0.5,1.4-1,2.5-1.6,3.8
				c0.3,1.7,0.7,2.9,0.8,4.1c0,0-2.7-0.2-4.1-0.2c-22,0-39.9,18-39.8,40c0,10.7,4.1,20.7,11.7,28.3c7.6,7.5,17.7,11.6,28.3,11.8
				c10.7,0.1,20.7-4.4,28.2-12c7.6-7.6,11.7-17.6,11.7-28.3C117.7,67.3,113.5,57.3,105.9,49.8"/>
			<path class="st0" d="M56.9,107.4c0.4,0,0.7-0.3,0.7-0.7c0-0.4-0.3-0.7-0.7-0.7c-0.4,0-0.7,0.3-0.7,0.7
				C56.2,107,56.5,107.4,56.9,107.4"/>
			<path class="st0" d="M88.6,105.8c-0.4,0-0.7,0.3-0.7,0.7c0,0.4,0.3,0.7,0.7,0.7c0.4,0,0.7-0.3,0.7-0.7
				C89.3,106.1,89,105.8,88.6,105.8"/>
			<path class="st0" d="M83.6,107.2c0.4,0,0.7-0.3,0.7-0.7c0-0.4-0.3-0.7-0.7-0.7c-0.4,0-0.7,0.3-0.7,0.7
				C82.9,106.9,83.2,107.2,83.6,107.2"/>
			<path class="st0" d="M78.5,105.9c-0.4,0-0.7,0.3-0.7,0.7c0,0.4,0.3,0.7,0.7,0.7c0.4,0,0.7-0.3,0.7-0.7
				C79.2,106.3,78.9,105.9,78.5,105.9"/>
			<path class="st0" d="M72.9,107.4c0.4,0,0.7-0.3,0.7-0.7c0-0.4-0.3-0.7-0.7-0.7c-0.4,0-0.7,0.3-0.7,0.7
				C72.2,107,72.5,107.4,72.9,107.4"/>
			<path class="st0" d="M68.4,106.7c0-0.4-0.3-0.7-0.7-0.7c-0.4,0-0.7,0.3-0.7,0.7c0,0.4,0.3,0.7,0.7,0.7
				C68.1,107.4,68.4,107,68.4,106.7"/>
			<path class="st0" d="M63.1,106.7c0-0.4-0.3-0.7-0.7-0.7c-0.4,0-0.7,0.3-0.7,0.7c0,0.4,0.3,0.7,0.7,0.7
				C62.8,107.4,63.1,107.1,63.1,106.7"/>
			<path class="st0" d="M103.9,103.3c-0.3,0.1-0.6,0.4-0.6,0.8c0,0.5,0.4,0.8,0.8,0.7c0.3-0.1,0.5-0.4,0.5-0.7
				C104.6,103.6,104.3,103.2,103.9,103.3"/>
			<path class="st0" d="M52.4,104.2c0-0.3-0.3-0.7-0.6-0.7c-0.4,0-0.6,0.4-0.6,0.7c0,0.3,0.3,0.7,0.7,0.7
				C52.2,104.9,52.4,104.5,52.4,104.2"/>
			<path class="st0" d="M99.2,105.8c-0.4,0-0.7,0.3-0.7,0.7c0,0.4,0.3,0.7,0.7,0.7c0.4,0,0.7-0.3,0.7-0.7
				C99.9,106.1,99.5,105.8,99.2,105.8"/>
			<path class="st0" d="M94.5,106.5c0-0.4-0.3-0.7-0.7-0.7c-0.4,0-0.7,0.3-0.7,0.7c0,0.4,0.3,0.7,0.7,0.7
				C94.2,107.2,94.5,106.9,94.5,106.5"/>
			<path class="st0" d="M83.9,61.5c0,0.2-0.2,0.3-0.3,0.3c-0.2,0-0.3-0.2-0.3-0.3c0-0.2,0.2-0.3,0.3-0.3
				C83.7,61.2,83.9,61.4,83.9,61.5"/>
			<path class="st0" d="M82.5,57.6c0,0.2-0.2,0.3-0.3,0.3c-0.2,0-0.3-0.2-0.3-0.3c0-0.2,0.2-0.3,0.3-0.3
				C82.4,57.3,82.5,57.4,82.5,57.6"/>
			<path class="st0" d="M83.8,59.3c0,0.2-0.2,0.3-0.3,0.3c-0.2,0-0.3-0.2-0.3-0.3c0-0.2,0.2-0.3,0.3-0.3
				C83.6,59,83.8,59.1,83.8,59.3"/>
			<path class="st0" d="M62.5,75.2c0,0.2-0.2,0.3-0.3,0.3c-0.2,0-0.3-0.2-0.3-0.3c0-0.2,0.1-0.3,0.3-0.3
				C62.3,74.9,62.5,75,62.5,75.2"/>
			<path class="st0" d="M61.7,76.7c0,0.2-0.2,0.3-0.3,0.3c-0.2,0-0.3-0.2-0.3-0.3c0-0.2,0.2-0.3,0.3-0.3
				C61.6,76.3,61.7,76.5,61.7,76.7"/>
			<path class="st0" d="M63.1,73.5c0,0.2-0.2,0.3-0.3,0.3c-0.2,0-0.3-0.2-0.3-0.3c0-0.2,0.2-0.3,0.3-0.3
				C62.9,73.2,63.1,73.4,63.1,73.5"/>
			<path class="st0" d="M64.2,87.9c0,0.2-0.2,0.4-0.4,0.4c-0.2,0-0.4-0.2-0.4-0.4c0-0.2,0.2-0.4,0.4-0.4
				C64,87.5,64.2,87.7,64.2,87.9"/>
			<path class="st0" d="M61.8,87.7c0,0.2-0.2,0.4-0.4,0.4c-0.2,0-0.4-0.2-0.4-0.4c0-0.2,0.2-0.4,0.4-0.4
				C61.6,87.4,61.8,87.5,61.8,87.7"/>
			<path class="st0" d="M66.7,87.9c0,0.2-0.2,0.4-0.4,0.4c-0.2,0-0.4-0.2-0.4-0.4c0-0.2,0.2-0.4,0.4-0.4
				C66.5,87.5,66.7,87.7,66.7,87.9"/>
			<path class="st0" d="M60.8,90.8c0,0.2-0.2,0.4-0.4,0.4c-0.2,0-0.4-0.2-0.4-0.4c0-0.2,0.2-0.4,0.4-0.4
				C60.7,90.4,60.8,90.6,60.8,90.8"/>
			<path class="st0" d="M68.5,90.8c0,0.2-0.2,0.4-0.4,0.4c-0.2,0-0.4-0.2-0.4-0.4c0-0.2,0.2-0.4,0.4-0.4
				C68.3,90.4,68.5,90.6,68.5,90.8"/>
			<path class="st0" d="M65.8,91c0,0.2-0.2,0.4-0.4,0.4c-0.2,0-0.4-0.2-0.4-0.4c0-0.2,0.2-0.4,0.4-0.4C65.7,90.6,65.8,90.7,65.8,91"
				/>
			<path class="st0" d="M63.2,91.1c0,0.2-0.2,0.4-0.4,0.4c-0.2,0-0.4-0.2-0.4-0.4c0-0.2,0.2-0.4,0.4-0.4
				C63.1,90.7,63.2,90.9,63.2,91.1"/>
			<path class="st0" d="M59.4,87.2c0,0.2-0.2,0.4-0.4,0.4c-0.2,0-0.4-0.2-0.4-0.4c0-0.2,0.2-0.4,0.4-0.4
				C59.3,86.8,59.4,87,59.4,87.2"/>
			<path class="st0" d="M87.9,78.3c0,0.2-0.2,0.4-0.4,0.4c-0.2,0-0.4-0.2-0.4-0.4c0-0.2,0.2-0.4,0.4-0.4
				C87.7,77.9,87.9,78.1,87.9,78.3"/>
			<path class="st0" d="M85.3,77.5c0,0.2-0.2,0.4-0.4,0.4s-0.4-0.2-0.4-0.4c0-0.2,0.2-0.4,0.4-0.4S85.3,77.3,85.3,77.5"/>
			<path class="st0" d="M90.5,78.4c0,0.2-0.2,0.4-0.4,0.4s-0.4-0.2-0.4-0.4c0-0.2,0.2-0.4,0.4-0.4S90.5,78.2,90.5,78.4"/>
			<path class="st0" d="M89.3,74.7c0,0.2-0.2,0.4-0.4,0.4c-0.2,0-0.4-0.2-0.4-0.4c0-0.2,0.2-0.4,0.4-0.4
				C89.1,74.4,89.3,74.5,89.3,74.7"/>
			<path class="st0" d="M87,74.6c0,0.2-0.2,0.4-0.4,0.4c-0.2,0-0.4-0.2-0.4-0.4s0.2-0.4,0.4-0.4C86.8,74.2,87,74.4,87,74.6"/>
			<path class="st0" d="M84.8,73.8c0,0.2-0.2,0.4-0.4,0.4c-0.2,0-0.4-0.2-0.4-0.4s0.2-0.4,0.4-0.4C84.7,73.4,84.8,73.6,84.8,73.8"/>
			<path class="st0" d="M83,76.5c0,0.2-0.2,0.4-0.4,0.4s-0.4-0.2-0.4-0.4c0-0.2,0.2-0.4,0.4-0.4S83,76.3,83,76.5"/>
			<path class="st0" d="M91.5,74.7c0,0.2-0.2,0.4-0.4,0.4c-0.2,0-0.4-0.2-0.4-0.4c0-0.2,0.2-0.4,0.4-0.4
				C91.3,74.4,91.5,74.5,91.5,74.7"/>
			<path class="st0" d="M59.7,83.9c0,0.2-0.2,0.4-0.4,0.4c-0.2,0-0.4-0.2-0.4-0.4s0.2-0.4,0.4-0.4C59.6,83.5,59.7,83.7,59.7,83.9"/>
			<path class="st0" d="M61.2,84.6c0,0.2-0.2,0.4-0.4,0.4c-0.2,0-0.4-0.2-0.4-0.4c0-0.2,0.2-0.4,0.4-0.4
				C61,84.1,61.2,84.3,61.2,84.6"/>
			<path class="st0" d="M62.8,85c0,0.2-0.2,0.4-0.4,0.4c-0.2,0-0.4-0.2-0.4-0.4c0-0.2,0.2-0.4,0.4-0.4C62.6,84.6,62.8,84.8,62.8,85"
				/>
			<path class="st0" d="M64.4,85.2c0,0.2-0.2,0.4-0.4,0.4c-0.2,0-0.4-0.2-0.4-0.4c0-0.2,0.2-0.4,0.4-0.4
				C64.3,84.8,64.4,85,64.4,85.2"/>
			<path class="st0" d="M66.2,85.2c0,0.2-0.2,0.4-0.4,0.4c-0.2,0-0.4-0.2-0.4-0.4c0-0.2,0.2-0.4,0.4-0.4C66,84.8,66.2,85,66.2,85.2"
				/>
			<path class="st0" d="M67.9,85.1c0,0.2-0.2,0.4-0.4,0.4c-0.2,0-0.4-0.2-0.4-0.4s0.2-0.4,0.4-0.4C67.7,84.7,67.9,84.9,67.9,85.1"/>
			<path class="st0" d="M86.8,71.5c0,0.2-0.2,0.4-0.4,0.4c-0.2,0-0.4-0.2-0.4-0.4c0-0.2,0.2-0.4,0.4-0.4
				C86.6,71.1,86.8,71.3,86.8,71.5"/>
			<path class="st0" d="M85.3,70.7c0,0.2-0.2,0.4-0.4,0.4c-0.2,0-0.4-0.2-0.4-0.4c0-0.2,0.2-0.4,0.4-0.4
				C85.1,70.3,85.3,70.5,85.3,70.7"/>
			<path class="st0" d="M84,69.6c0,0.2-0.2,0.4-0.4,0.4s-0.4-0.2-0.4-0.4c0-0.2,0.2-0.4,0.4-0.4S84,69.4,84,69.6"/>
			<path class="st0" d="M88.5,71.9c0,0.2-0.2,0.4-0.4,0.4c-0.2,0-0.4-0.2-0.4-0.4c0-0.2,0.2-0.4,0.4-0.4
				C88.3,71.5,88.5,71.7,88.5,71.9"/>
			<path class="st0" d="M90.2,71.9c0,0.2-0.2,0.4-0.4,0.4c-0.2,0-0.4-0.2-0.4-0.4c0-0.2,0.2-0.4,0.4-0.4
				C90,71.4,90.2,71.6,90.2,71.9"/>
			<path class="st0" d="M92.4,71.3c0,0.2-0.2,0.4-0.4,0.4c-0.2,0-0.4-0.2-0.4-0.4s0.2-0.4,0.4-0.4C92.2,70.9,92.4,71,92.4,71.3"/>
			<path class="st0" d="M73.8,93.6c-0.2,0-0.4-0.2-0.4-0.4c0-0.2,0.2-0.4,0.4-0.4c0.2,0,0.4,0.2,0.4,0.4
				C74.2,93.4,74,93.6,73.8,93.6 M73.8,92.3c-0.4,0-0.8,0.4-0.8,0.8c0,0.4,0.4,0.8,0.8,0.8c0.4,0,0.8-0.4,0.8-0.8
				C74.6,92.7,74.2,92.3,73.8,92.3"/>
			<path class="st0" d="M45.7,98.2c-0.2,0-0.4-0.2-0.4-0.4c0-0.2,0.2-0.4,0.4-0.4c0.2,0,0.4,0.2,0.4,0.4C46.2,98,46,98.2,45.7,98.2
				 M45.7,97c-0.4,0-0.8,0.4-0.8,0.8c0,0.4,0.4,0.8,0.8,0.8c0.4,0,0.8-0.4,0.8-0.8C46.5,97.4,46.1,97,45.7,97"/>
			<path class="st0" d="M45.9,89.7c-0.2,0-0.4-0.2-0.4-0.4c0-0.2,0.2-0.4,0.4-0.4s0.4,0.2,0.4,0.4C46.4,89.5,46.2,89.7,45.9,89.7
				 M45.9,88.5c-0.4,0-0.8,0.4-0.8,0.8c0,0.4,0.4,0.8,0.8,0.8c0.4,0,0.8-0.4,0.8-0.8C46.7,88.8,46.4,88.5,45.9,88.5"/>
			<path class="st0" d="M52.2,85.3c-0.2,0-0.4-0.2-0.4-0.4c0-0.2,0.2-0.4,0.4-0.4c0.2,0,0.4,0.2,0.4,0.4
				C52.6,85.1,52.4,85.3,52.2,85.3 M52.2,84.1c-0.4,0-0.8,0.4-0.8,0.8s0.4,0.8,0.8,0.8c0.4,0,0.8-0.4,0.8-0.8S52.6,84.1,52.2,84.1"
				/>
			<path class="st0" d="M51.8,93.8c-0.2,0-0.4-0.2-0.4-0.4c0-0.2,0.2-0.4,0.4-0.4c0.2,0,0.4,0.2,0.4,0.4
				C52.2,93.6,52,93.8,51.8,93.8 M51.8,92.6c-0.4,0-0.8,0.4-0.8,0.8c0,0.4,0.4,0.8,0.8,0.8c0.4,0,0.8-0.4,0.8-0.8
				C52.6,92.9,52.2,92.6,51.8,92.6"/>
			<path class="st0" d="M67.1,115c-0.2,0-0.4-0.2-0.4-0.4c0-0.2,0.2-0.4,0.4-0.4c0.2,0,0.4,0.2,0.4,0.4
				C67.6,114.8,67.4,115,67.1,115 M67.1,113.8c-0.4,0-0.8,0.4-0.8,0.8c0,0.4,0.4,0.8,0.8,0.8c0.4,0,0.8-0.4,0.8-0.8
				C67.9,114.2,67.6,113.8,67.1,113.8"/>
			<path class="st0" d="M90.7,115c-0.2,0-0.4-0.2-0.4-0.4c0-0.2,0.2-0.4,0.4-0.4c0.2,0,0.4,0.2,0.4,0.4C91.2,114.8,91,115,90.7,115
				 M90.7,113.8c-0.4,0-0.8,0.4-0.8,0.8c0,0.4,0.4,0.8,0.8,0.8c0.4,0,0.8-0.4,0.8-0.8C91.5,114.1,91.2,113.8,90.7,113.8"/>
			<path class="st0" d="M78.9,115.1c-0.2,0-0.4-0.2-0.4-0.4c0-0.2,0.2-0.4,0.4-0.4c0.2,0,0.4,0.2,0.4,0.4
				C79.4,114.9,79.2,115.1,78.9,115.1 M78.9,113.8c-0.4,0-0.8,0.4-0.8,0.8c0,0.4,0.4,0.8,0.8,0.8c0.4,0,0.8-0.4,0.8-0.8
				C79.7,114.2,79.3,113.8,78.9,113.8"/>
			<path class="st0" d="M97.6,47c-0.2,0-0.4-0.2-0.4-0.4c0-0.2,0.2-0.4,0.4-0.4c0.2,0,0.4,0.2,0.4,0.4C98,46.8,97.8,47,97.6,47
				 M97.6,45.8c-0.4,0-0.8,0.4-0.8,0.8c0,0.4,0.4,0.8,0.8,0.8c0.4,0,0.8-0.4,0.8-0.8C98.4,46.1,98,45.8,97.6,45.8"/>
			<path class="st0" d="M102.7,50.8c-0.2,0-0.4-0.2-0.4-0.4c0-0.2,0.2-0.4,0.4-0.4c0.2,0,0.4,0.2,0.4,0.4
				C103.2,50.6,103,50.8,102.7,50.8 M102.7,49.6c-0.4,0-0.8,0.4-0.8,0.8c0,0.4,0.4,0.8,0.8,0.8c0.4,0,0.8-0.4,0.8-0.8
				C103.5,50,103.2,49.6,102.7,49.6"/>
			<path class="st0" d="M102.4,58.7c-0.2,0-0.4-0.2-0.4-0.4c0-0.2,0.2-0.4,0.4-0.4c0.2,0,0.4,0.2,0.4,0.4
				C102.9,58.5,102.7,58.7,102.4,58.7 M102.4,57.5c-0.4,0-0.8,0.4-0.8,0.8c0,0.4,0.4,0.8,0.8,0.8c0.4,0,0.8-0.4,0.8-0.8
				C103.2,57.8,102.9,57.5,102.4,57.5"/>
			<path class="st0" d="M108.1,54.8c-0.2,0-0.4-0.2-0.4-0.4s0.2-0.4,0.4-0.4c0.2,0,0.4,0.2,0.4,0.4S108.3,54.8,108.1,54.8
				 M108.1,53.5c-0.4,0-0.8,0.4-0.8,0.8c0,0.4,0.4,0.8,0.8,0.8c0.4,0,0.8-0.4,0.8-0.8C108.9,53.9,108.5,53.5,108.1,53.5"/>
			<path class="st0" d="M113.8,67.1c-0.2,0-0.4-0.2-0.4-0.4c0-0.2,0.2-0.4,0.4-0.4c0.2,0,0.4,0.2,0.4,0.4
				C114.3,66.9,114.1,67.1,113.8,67.1 M113.8,65.9c-0.4,0-0.8,0.4-0.8,0.8c0,0.4,0.4,0.8,0.8,0.8c0.4,0,0.8-0.4,0.8-0.8
				C114.6,66.2,114.2,65.9,113.8,65.9"/>
			<path class="st0" d="M108,63c-0.2,0-0.4-0.2-0.4-0.4c0-0.2,0.2-0.4,0.4-0.4s0.4,0.2,0.4,0.4C108.4,62.8,108.2,63,108,63
				 M108,61.7c-0.4,0-0.8,0.4-0.8,0.8c0,0.4,0.4,0.8,0.8,0.8c0.4,0,0.8-0.4,0.8-0.8C108.8,62.1,108.4,61.7,108,61.7"/>
			<path class="st0" d="M102.1,66.9c-0.2,0-0.4-0.2-0.4-0.4c0-0.2,0.2-0.4,0.4-0.4c0.2,0,0.4,0.2,0.4,0.4
				C102.5,66.7,102.3,66.9,102.1,66.9 M102.1,65.7c-0.4,0-0.8,0.4-0.8,0.8s0.4,0.8,0.8,0.8c0.4,0,0.8-0.4,0.8-0.8
				S102.5,65.7,102.1,65.7"/>
			<path class="st0" d="M114,83.6c-0.2,0-0.4-0.2-0.4-0.4c0-0.2,0.2-0.4,0.4-0.4c0.2,0,0.4,0.2,0.4,0.4
				C114.4,83.4,114.2,83.6,114,83.6 M114,82.4c-0.4,0-0.8,0.4-0.8,0.8c0,0.4,0.4,0.8,0.8,0.8c0.4,0,0.8-0.4,0.8-0.8
				C114.8,82.7,114.4,82.4,114,82.4"/>
			<path class="st0" d="M107.7,95.9c-0.2,0-0.4-0.2-0.4-0.4c0-0.2,0.2-0.4,0.4-0.4c0.2,0,0.4,0.2,0.4,0.4
				C108.1,95.7,107.9,95.9,107.7,95.9 M107.7,94.7c-0.4,0-0.8,0.4-0.8,0.8c0,0.4,0.4,0.8,0.8,0.8c0.4,0,0.8-0.4,0.8-0.8
				C108.4,95,108.1,94.7,107.7,94.7"/>
			<path class="st0" d="M102.1,91.3c-0.2,0-0.4-0.2-0.4-0.4c0-0.2,0.2-0.4,0.4-0.4c0.2,0,0.4,0.2,0.4,0.4
				C102.6,91.1,102.4,91.3,102.1,91.3 M102.1,90.1c-0.4,0-0.8,0.4-0.8,0.8c0,0.4,0.4,0.8,0.8,0.8s0.8-0.4,0.8-0.8
				C102.9,90.5,102.5,90.1,102.1,90.1"/>
			<path class="st0" d="M69.7,66.3c-0.2,0-0.4-0.2-0.4-0.4c0-0.2,0.2-0.4,0.4-0.4c0.2,0,0.4,0.2,0.4,0.4
				C70.1,66.1,69.9,66.3,69.7,66.3 M69.7,65.1c-0.4,0-0.8,0.4-0.8,0.8c0,0.4,0.4,0.8,0.8,0.8s0.8-0.4,0.8-0.8
				C70.5,65.4,70.1,65.1,69.7,65.1"/>
			<path class="st0" d="M47.5,65.6c-0.2,0-0.4-0.2-0.4-0.4c0-0.2,0.2-0.4,0.4-0.4s0.4,0.2,0.4,0.4C48,65.4,47.8,65.6,47.5,65.6
				 M47.5,64.4c-0.4,0-0.8,0.4-0.8,0.8c0,0.4,0.4,0.8,0.8,0.8c0.4,0,0.8-0.4,0.8-0.8C48.3,64.7,48,64.4,47.5,64.4"/>
			<path class="st0" d="M39.8,85.3c-0.2,0-0.4-0.2-0.4-0.4c0-0.2,0.2-0.4,0.4-0.4s0.4,0.2,0.4,0.4C40.2,85.1,40,85.3,39.8,85.3
				 M39.8,84c-0.4,0-0.8,0.4-0.8,0.8s0.4,0.8,0.8,0.8c0.4,0,0.8-0.4,0.8-0.8S40.2,84,39.8,84"/>
			<path class="st0" d="M73.7,86c-0.2,0-0.4-0.2-0.4-0.4c0-0.2,0.2-0.4,0.4-0.4c0.2,0,0.4,0.2,0.4,0.4C74.2,85.8,74,86,73.7,86
				 M73.7,84.8c-0.4,0-0.8,0.4-0.8,0.8c0,0.4,0.4,0.8,0.8,0.8c0.4,0,0.8-0.4,0.8-0.8C74.5,85.1,74.2,84.8,73.7,84.8"/>
			<path class="st0" d="M53.1,61.8c-0.2,0-0.4-0.2-0.4-0.4c0-0.2,0.2-0.4,0.4-0.4c0.2,0,0.4,0.2,0.4,0.4
				C53.6,61.6,53.4,61.8,53.1,61.8 M53.1,60.6c-0.4,0-0.8,0.4-0.8,0.8c0,0.4,0.4,0.8,0.8,0.8c0.4,0,0.8-0.4,0.8-0.8
				C53.9,61,53.6,60.6,53.1,60.6"/>
			<path class="st0" d="M64.7,53.8c-0.2,0-0.4-0.2-0.4-0.4s0.2-0.4,0.4-0.4c0.2,0,0.4,0.2,0.4,0.4S65,53.8,64.7,53.8 M64.7,52.6
				c-0.4,0-0.8,0.4-0.8,0.8s0.4,0.8,0.8,0.8c0.4,0,0.8-0.4,0.8-0.8S65.2,52.6,64.7,52.6"/>
			<path class="st0" d="M75.4,62.3c-0.2,0-0.4-0.2-0.4-0.4c0-0.2,0.2-0.4,0.4-0.4c0.2,0,0.4,0.2,0.4,0.4
				C75.9,62.1,75.7,62.3,75.4,62.3 M75.4,61.1c-0.4,0-0.8,0.4-0.8,0.8c0,0.4,0.4,0.8,0.8,0.8s0.8-0.4,0.8-0.8
				C76.2,61.5,75.9,61.1,75.4,61.1"/>
			<path class="st0" d="M75.9,53.9c-0.2,0-0.4-0.2-0.4-0.4s0.2-0.4,0.4-0.4c0.2,0,0.4,0.2,0.4,0.4S76.1,53.9,75.9,53.9 M75.9,52.7
				c-0.4,0-0.8,0.4-0.8,0.8c0,0.4,0.4,0.8,0.8,0.8c0.4,0,0.8-0.4,0.8-0.8C76.7,53,76.3,52.7,75.9,52.7"/>
			<path class="st0" d="M70.2,58.1c-0.2,0-0.4-0.2-0.4-0.4c0-0.2,0.2-0.4,0.4-0.4c0.2,0,0.4,0.2,0.4,0.4
				C70.6,57.9,70.4,58.1,70.2,58.1 M70.2,56.9c-0.4,0-0.8,0.4-0.8,0.8c0,0.4,0.4,0.8,0.8,0.8c0.4,0,0.8-0.4,0.8-0.8
				C71,57.3,70.6,56.9,70.2,56.9"/>
			<path class="st0" d="M47.5,57.5c-0.2,0-0.4-0.2-0.4-0.4c0-0.2,0.2-0.4,0.4-0.4c0.2,0,0.4,0.2,0.4,0.4
				C48,57.3,47.8,57.5,47.5,57.5 M47.5,56.2c-0.4,0-0.8,0.4-0.8,0.8c0,0.4,0.4,0.8,0.8,0.8c0.4,0,0.8-0.4,0.8-0.8
				C48.3,56.6,48,56.2,47.5,56.2"/>
			<path class="st0" d="M42.5,61.6c-0.2,0-0.4-0.2-0.4-0.4s0.2-0.4,0.4-0.4s0.4,0.2,0.4,0.4S42.8,61.6,42.5,61.6 M42.5,60.3
				c-0.4,0-0.8,0.4-0.8,0.8c0,0.4,0.4,0.8,0.8,0.8c0.4,0,0.8-0.4,0.8-0.8C43.3,60.7,43,60.3,42.5,60.3"/>
			<path class="st0" d="M53.3,53.4c-0.2,0-0.4-0.2-0.4-0.4c0-0.2,0.2-0.4,0.4-0.4c0.2,0,0.4,0.2,0.4,0.4
				C53.7,53.2,53.5,53.4,53.3,53.4 M53.3,52.2c-0.4,0-0.8,0.4-0.8,0.8c0,0.4,0.4,0.8,0.8,0.8c0.4,0,0.8-0.4,0.8-0.8
				C54,52.5,53.7,52.2,53.3,52.2"/>
			<path class="st0" d="M59.1,49.5c-0.2,0-0.4-0.2-0.4-0.4c0-0.2,0.2-0.4,0.4-0.4c0.2,0,0.4,0.2,0.4,0.4
				C59.6,49.3,59.4,49.5,59.1,49.5 M59.1,48.2c-0.4,0-0.8,0.4-0.8,0.8c0,0.4,0.4,0.8,0.8,0.8c0.4,0,0.8-0.4,0.8-0.8
				C59.9,48.6,59.6,48.2,59.1,48.2"/>
			<path class="st0" d="M113.4,91.5c-0.2,0-0.4-0.2-0.4-0.4c0-0.2,0.2-0.4,0.4-0.4c0.2,0,0.4,0.2,0.4,0.4
				C113.9,91.3,113.7,91.5,113.4,91.5 M113.4,90.3c-0.4,0-0.8,0.4-0.8,0.8c0,0.4,0.4,0.8,0.8,0.8c0.4,0,0.8-0.4,0.8-0.8
				C114.2,90.7,113.9,90.3,113.4,90.3"/>
		</g>
	</g>
</g>
<g>
	<path d="M158.4,34.4V34h4.3v0.4h-1.9v8.2c0,2.8-0.1,3.4-0.8,4.4c-0.7,1-2.1,1.5-3.8,1.5c-1.8,0-3.4-0.5-4.3-1.4
		c-1-0.9-1.2-1.7-1.2-4.6v-8.2h-1.9V34h6.2v0.4h-1.9v8.2c0,3,0,3.4,0.6,4.2c0.5,0.8,1.6,1.2,2.8,1.2c1.5,0,2.6-0.6,3.1-1.7
		c0.4-0.8,0.5-1.3,0.5-3.7v-8.2H158.4z M160.1,30.4c0.3,0,0.4,0.1,0.4,0.2c0,0.1-0.1,0.2-0.3,0.3l-5.3,2l-0.2-0.3l3.1-2.3H160.1z"/>
	<path d="M174.5,37.6h-0.3c-0.1-0.9-0.4-1.5-0.8-2c-0.7-0.8-1.7-1.3-2.8-1.3c-1.7,0-3,1.1-3,2.6c0,0.8,0.3,1.3,1,1.7
		c0.4,0.2,1.1,0.4,2.6,0.8c1.8,0.5,2.3,0.6,2.9,1.2c0.9,0.8,1.3,1.8,1.3,3.2c0,2.8-1.9,4.9-4.5,4.9c-1.3,0-2.3-0.4-3.4-1.2l-0.8,1
		h-0.5v-4.4h0.3c0.2,1.2,0.5,1.8,1,2.5c0.8,1.1,2.1,1.7,3.5,1.7c2,0,3.3-1.2,3.3-3.1c0-0.9-0.4-1.7-1-2.1c-0.5-0.3-0.8-0.5-2.6-0.9
		c-1.9-0.5-2.5-0.7-3.1-1.3c-0.7-0.6-1.1-1.5-1.1-2.6c0-2.5,1.8-4.4,4.2-4.4c1,0,1.9,0.3,2.8,0.9l0.8-0.9h0.3V37.6z"/>
	<path d="M183.6,34.4h-0.8c-1.6,0-2,0.2-2.7,0.9c-0.7,0.9-1.1,1.7-1.4,3.2h-0.3l0.2-4.5H191l0.2,4.5h-0.3c-0.3-1.5-0.7-2.3-1.4-3.2
		c-0.6-0.8-1.1-0.9-2.6-0.9h-0.8v13.5h2.1v0.4h-6.7v-0.4h2.1V34.4z"/>
	<path d="M196.5,43.7l-1.5,4.2h2v0.4h-3.7v-0.4h1.1l5.2-13.9h0.7l4.9,13.9h1.6v0.4h-6.2v-0.4h2l-1.5-4.2H196.5z M198.8,37.3l-2.1,6
		h4.3L198.8,37.3z"/>
	<path d="M215.4,48.6H215l-5.2-14.1h-1.4V34h6v0.4h-2.1l3.8,10.5l3.7-10.5h-2.2V34h4.3v0.4h-1.5L215.4,48.6z"/>
	<path d="M233.7,34.4h-1.9V34h5.3c3,0,3.9,0.1,4.9,0.7c1,0.6,1.6,1.5,1.6,2.6c0,1.9-1.8,3.3-4.7,3.5c2.9,0.4,4.3,2.1,4.2,4.9
		c0,1,0,1.2,0.1,1.5c0.2,0.4,0.5,0.7,0.9,0.7c0.2,0,0.4,0,0.9-0.2l0.2,0.4c-0.6,0.2-1.1,0.3-1.6,0.3c-1.1,0-2.2-0.6-2.7-1.5
		c-0.4-0.7-0.5-1.1-0.5-2.8c0-1.3-0.2-1.9-0.6-2.4c-0.5-0.6-1.3-0.8-2.9-0.8h-0.7v7h1.9v0.4h-6.2v-0.4h1.9V34.4z M234.1,30.5
		l0.1-0.2l3.7,1l3.6-1l0.1,0.2l-3.8,2.4L234.1,30.5z M237,40.5c1.6,0,2.4-0.1,3-0.5c0.6-0.5,1-1.4,1-2.5c0-1.1-0.4-2-1-2.4
		c-0.6-0.5-1.2-0.6-2.9-0.6h-0.9v6H237z"/>
	<path d="M250.1,34.4h-1.9V34h10.9l0.2,3.9H259c-0.3-1.2-0.6-1.9-1-2.5c-0.4-0.5-1-0.9-1.9-1c-0.3-0.1-0.6-0.1-1.8-0.1h-1.8v6.5
		c2.8,0,3.3-0.3,3.3-2.7h0.3v5.9h-0.3c-0.1-1.3-0.1-1.5-0.4-2c-0.3-0.6-0.9-0.9-2.2-0.9h-0.7v6.6h2.9c1.6,0,1.8,0,2.3-0.4
		c0.8-0.6,1.2-1.3,1.9-3.6h0.3l-0.4,4.5h-11.3v-0.4h1.9V34.4z"/>
	<path d="M275,48.4h-0.3l-0.8-1.1c-1.3,0.9-2.5,1.3-3.8,1.3c-3.6,0-6.5-3.3-6.5-7.4c0-2.5,1-4.7,2.8-6c1.1-0.9,2.6-1.4,3.9-1.4
		c1.2,0,2.5,0.4,3.6,1.2l0.8-1h0.3v3.8h-0.3c-0.6-2.2-2.1-3.5-4.2-3.5c-1.5,0-2.6,0.6-3.2,1.7c-0.5,0.8-0.7,2.7-0.7,5.8
		c0,2.9,0.2,4.2,0.7,5c0.6,0.8,1.7,1.3,3,1.3c2,0,3.5-1.3,4.4-3.8h0.3V48.4z"/>
	<path d="M280.4,34.4h-1.9V34h6.2v0.4h-1.9v13.5h1.9v0.4h-6.2v-0.4h1.9V34.4z M291.6,47.9h1.1v0.4h-6v-0.4h2l-5.6-7.1l6.1-6.4H287
		V34h4.9v0.4h-1.9l-4.9,5.2L291.6,47.9z"/>
	<path d="M299.9,41.6l-4.4-7.1h-1.2V34h5.9v0.4h-1.9l3.5,5.7c0.2,0.3,0.2,0.4,0.3,0.6l3.6-6.3h-2.3V34h4.4v0.4h-1.6l-3.2,5.7
		l-0.3,0.5c-0.1,0.2-0.1,0.2-0.4,0.8c0,0-0.1,0.1-0.1,0.2v6.4h2.1v0.4h-6.7v-0.4h2.1V41.6z M305.2,30.4c0.3,0,0.4,0.1,0.4,0.2
		c0,0.1-0.1,0.2-0.3,0.3l-5.3,2l-0.2-0.3l3.1-2.3H305.2z"/>
	<path d="M321.9,48.4h-0.3l-0.8-1.1c-1.3,0.9-2.5,1.3-3.8,1.3c-3.6,0-6.5-3.3-6.5-7.4c0-2.5,1-4.7,2.8-6c1.1-0.9,2.6-1.4,3.9-1.4
		c1.2,0,2.5,0.4,3.6,1.2l0.8-1h0.3v3.8h-0.3c-0.6-2.2-2.1-3.5-4.2-3.5c-1.5,0-2.6,0.6-3.2,1.7c-0.5,0.8-0.7,2.7-0.7,5.8
		c0,2.9,0.2,4.2,0.7,5c0.6,0.8,1.7,1.3,3,1.3c2,0,3.5-1.3,4.4-3.8h0.3V48.4z"/>
	<path d="M329.8,41.2v6.7h1.9v0.4h-6.2v-0.4h1.9V34.4h-1.9V34h6.2v0.4h-1.9v6.4h6.1v-6.4H334V34h6.2v0.4h-1.9v13.5h1.9v0.4H334v-0.4
		h1.9v-6.7H329.8z"/>
	<path d="M151.8,69.5l-1.5,4.2h2v0.4h-3.7v-0.4h1.1l5.2-13.9h0.7l4.9,13.9h1.6v0.4h-6.2v-0.4h2l-1.5-4.2H151.8z M154.1,63.1l-2.1,6
		h4.3L154.1,63.1z"/>
	<path d="M173.9,60.2H172v-0.4h6.2v0.4h-1.9v13.5h2.7c1.8,0,2.4-0.2,3-0.8c0.6-0.6,1-1.5,1.4-3.2h0.3l-0.4,4.4H172v-0.4h1.9V60.2z"
		/>
	<path d="M189.4,69.5l-1.5,4.2h2v0.4h-3.7v-0.4h1.1l5.2-13.9h0.7l4.9,13.9h1.6v0.4h-6.2v-0.4h2l-1.5-4.2H189.4z M191.7,63.1l-2.1,6
		h4.3L191.7,63.1z"/>
	<path d="M206.7,60.2h-0.8c-1.6,0-2,0.2-2.7,0.9c-0.7,0.9-1.1,1.7-1.4,3.2h-0.3l0.2-4.5h12.4l0.2,4.5h-0.3c-0.3-1.5-0.7-2.3-1.4-3.2
		c-0.6-0.8-1.1-0.9-2.6-0.9h-0.8v13.5h2.1v0.4h-6.7v-0.4h2.1V60.2z"/>
	<path d="M219,60.2h-1.9v-0.4h6.2v0.4h-1.9v13.5h1.9v0.4h-6.2v-0.4h1.9V60.2z"/>
	<path d="M228.4,60.2h-1.9v-0.4h4.8l4.4,6.3c1.8,2.6,1.8,2.7,2.6,3.8v-9.7h-1.9v-0.4h4.3v0.4h-1.9v13.9h-0.5l-9.3-13.5v13.1h1.9v0.4
		h-4.3v-0.4h1.9V60.2z"/>
	<path d="M252.5,63.4h-0.3c-0.1-0.9-0.4-1.5-0.8-2c-0.7-0.8-1.7-1.3-2.8-1.3c-1.7,0-3,1.1-3,2.6c0,0.8,0.3,1.3,1,1.7
		c0.4,0.2,1.1,0.4,2.6,0.8c1.8,0.5,2.3,0.6,2.9,1.2c0.9,0.8,1.3,1.8,1.3,3.2c0,2.8-1.9,4.9-4.5,4.9c-1.3,0-2.3-0.4-3.4-1.2l-0.8,1
		h-0.5v-4.4h0.3c0.2,1.2,0.5,1.8,1,2.5c0.8,1.1,2.1,1.7,3.5,1.7c2,0,3.3-1.2,3.3-3.1c0-0.9-0.4-1.7-1-2.1c-0.5-0.3-0.8-0.5-2.6-0.9
		c-1.9-0.5-2.5-0.7-3.1-1.3c-0.7-0.6-1.1-1.5-1.1-2.6c0-2.5,1.8-4.4,4.2-4.4c1,0,1.9,0.3,2.8,0.9l0.8-0.9h0.3V63.4z"/>
	<path d="M258.8,60.2h-1.9v-0.4h6.2v0.4h-1.9v13.5h1.9v0.4h-6.2v-0.4h1.9V60.2z M270,73.7h1.1v0.4h-6v-0.4h2l-5.6-7.1l6.1-6.4h-2.2
		v-0.4h4.9v0.4h-1.9l-4.9,5.2L270,73.7z"/>
	<path d="M278.3,67.4l-4.4-7.1h-1.2v-0.4h5.9v0.4h-1.9l3.5,5.7c0.2,0.3,0.2,0.4,0.3,0.6l3.6-6.3h-2.3v-0.4h4.4v0.4h-1.6l-3.2,5.7
		l-0.3,0.5c-0.1,0.2-0.1,0.2-0.4,0.8c0,0-0.1,0.1-0.1,0.2v6.4h2.1v0.4h-6.7v-0.4h2.1V67.4z M283.6,56.2c0.3,0,0.4,0.1,0.4,0.2
		c0,0.1-0.1,0.2-0.3,0.3l-5.3,2l-0.2-0.3l3.1-2.3H283.6z"/>
	<path d="M300.3,74.2h-0.3l-0.8-1.1c-1.3,0.9-2.5,1.3-3.8,1.3c-3.6,0-6.5-3.3-6.5-7.4c0-2.5,1-4.7,2.8-6c1.1-0.9,2.6-1.4,3.9-1.4
		c1.2,0,2.5,0.4,3.6,1.2l0.8-1h0.3v3.8h-0.3c-0.6-2.2-2.1-3.5-4.2-3.5c-1.5,0-2.6,0.6-3.2,1.7c-0.5,0.8-0.7,2.7-0.7,5.8
		c0,2.9,0.2,4.2,0.7,5c0.6,0.8,1.7,1.3,3,1.3c2,0,3.5-1.3,4.4-3.8h0.3V74.2z"/>
	<path d="M308.1,67v6.7h1.9v0.4h-6.2v-0.4h1.9V60.2h-1.9v-0.4h6.2v0.4h-1.9v6.4h6.1v-6.4h-1.9v-0.4h6.2v0.4h-1.9v13.5h1.9v0.4h-6.2
		v-0.4h1.9V67H308.1z"/>
	<path d="M338.2,63.4h-0.3c-0.1-0.9-0.4-1.5-0.8-2c-0.7-0.8-1.7-1.3-2.8-1.3c-1.7,0-3,1.1-3,2.6c0,0.8,0.3,1.3,1,1.7
		c0.4,0.2,1.1,0.4,2.6,0.8c1.8,0.5,2.3,0.6,2.9,1.2c0.9,0.8,1.3,1.8,1.3,3.2c0,2.8-1.9,4.9-4.5,4.9c-1.3,0-2.3-0.4-3.4-1.2l-0.8,1
		h-0.5v-4.4h0.3c0.2,1.2,0.5,1.8,1,2.5c0.8,1.1,2.1,1.7,3.5,1.7c2,0,3.3-1.2,3.3-3.1c0-0.9-0.4-1.7-1-2.1c-0.5-0.3-0.8-0.5-2.6-0.9
		c-1.9-0.5-2.5-0.7-3.1-1.3c-0.7-0.6-1.1-1.5-1.1-2.6c0-2.5,1.8-4.4,4.2-4.4c1,0,1.9,0.3,2.8,0.9l0.8-0.9h0.3V63.4z"/>
	<path d="M347.2,60.2h-0.8c-1.6,0-2,0.2-2.7,0.9c-0.7,0.9-1.1,1.7-1.4,3.2h-0.3l0.2-4.5h12.4l0.2,4.5h-0.3c-0.3-1.5-0.7-2.3-1.4-3.2
		c-0.6-0.8-1.1-0.9-2.6-0.9h-0.8v13.5h2.1v0.4h-6.7v-0.4h2.1V60.2z"/>
	<path d="M366.8,60.2v-0.4h4.3v0.4h-1.9v8.2c0,2.8-0.1,3.4-0.8,4.4c-0.7,1-2.1,1.5-3.8,1.5c-1.8,0-3.4-0.5-4.3-1.4
		c-1-0.9-1.2-1.7-1.2-4.6v-8.2h-1.9v-0.4h6.2v0.4h-1.9v8.2c0,3,0,3.4,0.6,4.2c0.5,0.8,1.6,1.2,2.8,1.2c1.5,0,2.6-0.6,3.1-1.7
		c0.4-0.8,0.5-1.3,0.5-3.7v-8.2H366.8z"/>
	<path d="M376,60.2h-1.9v-0.4h5.2c3.3,0,4.5,0.3,5.9,1.4c1.7,1.4,2.6,3.4,2.6,5.7c0,2.6-1.1,4.8-3.1,6.2c-1.3,0.9-2.3,1.1-5.2,1.1
		h-5.4v-0.4h1.9V60.2z M379.5,73.7c1.8,0,2.2,0,3-0.3c1-0.3,1.8-1.1,2.1-2c0.3-0.9,0.4-2.4,0.4-4.7c0-3.1-0.3-4.4-1.1-5.3
		c-0.5-0.6-1.3-0.9-2.4-1.1c-0.4,0-0.9-0.1-2.1-0.1h-0.9v13.5H379.5z"/>
	<path d="M393.3,60.2h-1.9v-0.4h6.2v0.4h-1.9v13.5h1.9v0.4h-6.2v-0.4h1.9V60.2z"/>
	<path d="M402.8,60.2h-1.9v-0.4h6.2v0.4h-1.9v13.5h1.9v0.4h-6.2v-0.4h1.9V60.2z M407.5,56.2c0.3,0,0.4,0.1,0.4,0.2
		c0,0.1,0,0.2-0.3,0.3l-4.6,2l-0.2-0.3l2.5-2.3H407.5z"/>
</g>
</svg>
